RecursiveMonoVar-CasualRegular.ufo
<glyph name="exclam" format="1">
  <advance width="600"/>
  <unicode hex="0021"/>
  <outline>
    <contour>
      <point x="335" y="256" type="line"/>
      <point x="344" y="330"/>
      <point x="352" y="415"/>
      <point x="352" y="488" type="curve"/>
      <point x="352" y="661" type="line" smooth="yes"/>
      <point x="352" y="697"/>
      <point x="326" y="710"/>
      <point x="274" y="710" type="curve" smooth="yes"/>
      <point x="260" y="710"/>
      <point x="250" y="709"/>
      <point x="238" y="706" type="curve"/>
      <point x="245" y="670"/>
      <point x="247" y="635"/>
      <point x="247" y="597" type="curve" smooth="yes"/>
      <point x="247" y="490" type="line"/>
      <point x="247" y="382"/>
      <point x="254" y="289"/>
      <point x="270" y="273" type="curve" smooth="yes"/>
      <point x="283" y="261"/>
      <point x="302" y="256"/>
      <point x="327" y="256" type="curve"/>
    </contour>
    <contour>
      <point x="375" y="5" type="curve"/>
      <point x="375" y="90" type="line" smooth="yes"/>
      <point x="375" y="133"/>
      <point x="338" y="150"/>
      <point x="284" y="150" type="curve" smooth="yes"/>
      <point x="262" y="150"/>
      <point x="242" y="146"/>
      <point x="225" y="139" type="curve"/>
      <point x="225" y="53" type="line" smooth="yes"/>
      <point x="225" y="10"/>
      <point x="262" y="-7"/>
      <point x="316" y="-7" type="curve" smooth="yes"/>
      <point x="338" y="-7"/>
      <point x="358" y="-3"/>
    </contour>
  </outline>
</glyph>
<glyph name="percent" format="1">
  <advance width="600"/>
  <unicode hex="0025"/>
  <outline>
    <contour>
      <point x="140" y="667" type="curve"/>
      <point x="222" y="667"/>
      <point x="261" y="634"/>
      <point x="261" y="545" type="curve" smooth="yes"/>
      <point x="261" y="540" type="line" smooth="yes"/>
      <point x="261" y="471"/>
      <point x="228" y="430"/>
      <point x="160" y="430" type="curve" smooth="yes"/>
      <point x="127" y="430"/>
      <point x="109" y="439"/>
      <point x="86" y="465" type="curve"/>
      <point x="43" y="421"/>
      <point x="120" y="356"/>
      <point x="173" y="356" type="curve" smooth="yes"/>
      <point x="270" y="356"/>
      <point x="332" y="423"/>
      <point x="332" y="529" type="curve" smooth="yes"/>
      <point x="332" y="535" type="line" smooth="yes"/>
      <point x="332" y="639"/>
      <point x="270" y="710"/>
      <point x="180" y="710" type="curve" smooth="yes"/>
      <point x="157" y="710"/>
      <point x="140" y="691"/>
    </contour>
    <contour>
      <point x="206" y="402" type="curve"/>
      <point x="132" y="402"/>
      <point x="87" y="451"/>
      <point x="87" y="521" type="curve" smooth="yes"/>
      <point x="87" y="526" type="line" smooth="yes"/>
      <point x="87" y="599"/>
      <point x="126" y="648"/>
      <point x="184" y="648" type="curve" smooth="yes"/>
      <point x="218" y="648"/>
      <point x="238" y="644"/>
      <point x="266" y="618" type="curve"/>
      <point x="297" y="650"/>
      <point x="236" y="710"/>
      <point x="180" y="710" type="curve" smooth="yes"/>
      <point x="86" y="710"/>
      <point x="23" y="637"/>
      <point x="23" y="529" type="curve" smooth="yes"/>
      <point x="23" y="523" type="line" smooth="yes"/>
      <point x="23" y="420"/>
      <point x="80" y="356"/>
      <point x="173" y="356" type="curve" smooth="yes"/>
      <point x="194" y="356"/>
      <point x="206" y="378"/>
    </contour>
    <contour>
      <point x="384" y="301" type="curve"/>
      <point x="466" y="301"/>
      <point x="506" y="268"/>
      <point x="506" y="179" type="curve" smooth="yes"/>
      <point x="506" y="174" type="line" smooth="yes"/>
      <point x="506" y="105"/>
      <point x="472" y="64"/>
      <point x="404" y="64" type="curve" smooth="yes"/>
      <point x="372" y="64"/>
      <point x="354" y="73"/>
      <point x="330" y="99" type="curve"/>
      <point x="287" y="55"/>
      <point x="364" y="-10"/>
      <point x="418" y="-10" type="curve" smooth="yes"/>
      <point x="515" y="-10"/>
      <point x="577" y="57"/>
      <point x="577" y="163" type="curve" smooth="yes"/>
      <point x="577" y="169" type="line" smooth="yes"/>
      <point x="577" y="273"/>
      <point x="515" y="344"/>
      <point x="425" y="344" type="curve" smooth="yes"/>
      <point x="401" y="344"/>
      <point x="384" y="325"/>
    </contour>
    <contour>
      <point x="450" y="36" type="curve"/>
      <point x="376" y="36"/>
      <point x="331" y="85"/>
      <point x="331" y="155" type="curve" smooth="yes"/>
      <point x="331" y="160" type="line" smooth="yes"/>
      <point x="331" y="233"/>
      <point x="370" y="282"/>
      <point x="428" y="282" type="curve" smooth="yes"/>
      <point x="463" y="282"/>
      <point x="482" y="278"/>
      <point x="510" y="252" type="curve"/>
      <point x="541" y="284"/>
      <point x="480" y="344"/>
      <point x="425" y="344" type="curve" smooth="yes"/>
      <point x="331" y="344"/>
      <point x="268" y="271"/>
      <point x="268" y="163" type="curve" smooth="yes"/>
      <point x="268" y="157" type="line" smooth="yes"/>
      <point x="268" y="54"/>
      <point x="325" y="-10"/>
      <point x="418" y="-10" type="curve" smooth="yes"/>
      <point x="438" y="-10"/>
      <point x="450" y="12"/>
    </contour>
    <contour>
      <point x="362" y="415" type="curve"/>
      <point x="376" y="407"/>
      <point x="389" y="403"/>
      <point x="408" y="403" type="curve" smooth="yes"/>
      <point x="426" y="403"/>
      <point x="435" y="407"/>
      <point x="446" y="418" type="curve" smooth="yes"/>
      <point x="511" y="484"/>
      <point x="558" y="582"/>
      <point x="558" y="667" type="curve" smooth="yes"/>
      <point x="558" y="692"/>
      <point x="538" y="708"/>
      <point x="502" y="708" type="curve" smooth="yes"/>
      <point x="486" y="708"/>
      <point x="476" y="707"/>
      <point x="463" y="702" type="curve"/>
      <point x="455" y="591"/>
      <point x="431" y="508"/>
    </contour>
    <contour>
      <point x="238" y="284" type="curve"/>
      <point x="224" y="293"/>
      <point x="211" y="296"/>
      <point x="192" y="296" type="curve" smooth="yes"/>
      <point x="174" y="296"/>
      <point x="165" y="292"/>
      <point x="154" y="281" type="curve" smooth="yes"/>
      <point x="89" y="216"/>
      <point x="42" y="118"/>
      <point x="42" y="32" type="curve" smooth="yes"/>
      <point x="42" y="7"/>
      <point x="62" y="-9"/>
      <point x="98" y="-9" type="curve" smooth="yes"/>
      <point x="114" y="-9"/>
      <point x="124" y="-7"/>
      <point x="137" y="-2" type="curve"/>
      <point x="145" y="109"/>
      <point x="169" y="191"/>
    </contour>
  </outline>
</glyph>
<glyph name="ampersand" format="1">
  <advance width="600"/>
  <unicode hex="0026"/>
  <outline>
    <contour>
      <point x="320" y="710" type="curve" smooth="yes"/>
      <point x="200" y="710"/>
      <point x="115" y="632"/>
      <point x="115" y="536" type="curve" smooth="yes"/>
      <point x="115" y="509"/>
      <point x="133" y="475"/>
      <point x="182" y="475" type="curve"/>
      <point x="179" y="488"/>
      <point x="179" y="496"/>
      <point x="179" y="512" type="curve" smooth="yes"/>
      <point x="179" y="576"/>
      <point x="234" y="628"/>
      <point x="320" y="628" type="curve" smooth="yes"/>
      <point x="387" y="628"/>
      <point x="430" y="613"/>
      <point x="462" y="587" type="curve"/>
      <point x="466" y="587" type="line"/>
      <point x="470" y="597"/>
      <point x="472" y="608"/>
      <point x="472" y="622" type="curve"/>
      <point x="472" y="646"/>
      <point x="467" y="665"/>
      <point x="454" y="678" type="curve" smooth="yes"/>
      <point x="435" y="697"/>
      <point x="391" y="710"/>
    </contour>
    <contour>
      <point x="242" y="364" type="curve" smooth="yes"/>
      <point x="210" y="427"/>
      <point x="193" y="488"/>
      <point x="193" y="532" type="curve" smooth="yes"/>
      <point x="193" y="566"/>
      <point x="199" y="590"/>
      <point x="216" y="620" type="curve"/>
      <point x="167" y="635"/>
      <point x="115" y="591"/>
      <point x="115" y="536" type="curve" smooth="yes"/>
      <point x="115" y="533" type="line" smooth="yes"/>
      <point x="115" y="475"/>
      <point x="139" y="407"/>
      <point x="175" y="337" type="curve" smooth="yes"/>
      <point x="225" y="242"/>
      <point x="298" y="145"/>
      <point x="367" y="77" type="curve" smooth="yes"/>
      <point x="431" y="12"/>
      <point x="475" y="-10"/>
      <point x="516" y="-10" type="curve" smooth="yes"/>
      <point x="520" y="-10" type="line" smooth="yes"/>
      <point x="556" y="-10"/>
      <point x="572" y="10"/>
      <point x="572" y="50" type="curve" smooth="yes"/>
      <point x="572" y="66"/>
      <point x="570" y="80"/>
      <point x="567" y="91" type="curve"/>
      <point x="563" y="91" type="line"/>
      <point x="553" y="79"/>
      <point x="540" y="74"/>
      <point x="520" y="74" type="curve" smooth="yes"/>
      <point x="489" y="74"/>
      <point x="448" y="98"/>
      <point x="410" y="136" type="curve" smooth="yes"/>
      <point x="342" y="204"/>
      <point x="281" y="288"/>
    </contour>
    <contour>
      <point x="211" y="-10" type="curve" smooth="yes"/>
      <point x="299" y="-10"/>
      <point x="350" y="24"/>
      <point x="384" y="74" type="curve" smooth="yes"/>
      <point x="392" y="87"/>
      <point x="379" y="113"/>
      <point x="354" y="127" type="curve"/>
      <point x="318" y="83"/>
      <point x="283" y="65"/>
      <point x="220" y="65" type="curve" smooth="yes"/>
      <point x="151" y="65"/>
      <point x="114" y="114"/>
      <point x="114" y="176" type="curve" smooth="yes"/>
      <point x="114" y="179" type="line" smooth="yes"/>
      <point x="114" y="251"/>
      <point x="161" y="286"/>
      <point x="229" y="301" type="curve"/>
      <point x="223" y="321"/>
      <point x="209" y="359"/>
      <point x="184" y="353" type="curve" smooth="yes"/>
      <point x="116" y="336"/>
      <point x="36" y="280"/>
      <point x="36" y="166" type="curve" smooth="yes"/>
      <point x="36" y="163" type="line" smooth="yes"/>
      <point x="36" y="63"/>
      <point x="99" y="-10"/>
    </contour>
    <contour>
      <point x="453" y="393" type="curve" smooth="yes"/>
      <point x="445" y="393"/>
      <point x="439" y="392"/>
      <point x="435" y="391" type="curve"/>
      <point x="435" y="381"/>
      <point x="435" y="371"/>
      <point x="435" y="359" type="curve" smooth="yes"/>
      <point x="435" y="277"/>
      <point x="418" y="217"/>
      <point x="375" y="155" type="curve" smooth="yes"/>
      <point x="364" y="138"/>
      <point x="390" y="116"/>
      <point x="417" y="110" type="curve"/>
      <point x="486" y="190"/>
      <point x="517" y="268"/>
      <point x="517" y="342" type="curve" smooth="yes"/>
      <point x="517" y="355" type="line" smooth="yes"/>
      <point x="517" y="380"/>
      <point x="495" y="393"/>
    </contour>
  </outline>
</glyph>
<glyph name="quotesingle" format="1">
  <advance width="600"/>
  <unicode hex="0027"/>
  <outline>
    <contour>
      <point x="341" y="441" type="curve"/>
      <point x="353" y="667" type="line" smooth="yes"/>
      <point x="356" y="728"/>
      <point x="330" y="754"/>
      <point x="267" y="754" type="curve" smooth="yes"/>
      <point x="255" y="754"/>
      <point x="243" y="752"/>
      <point x="234" y="750" type="curve"/>
      <point x="243" y="726"/>
      <point x="245" y="712"/>
      <point x="247" y="657" type="curve" smooth="yes"/>
      <point x="257" y="481" type="line" smooth="yes"/>
      <point x="259" y="450"/>
      <point x="276" y="439"/>
      <point x="317" y="439" type="curve" smooth="yes"/>
      <point x="326" y="439"/>
      <point x="335" y="439"/>
    </contour>
  </outline>
</glyph>
<glyph name="parenleft" format="1">
  <advance width="600"/>
  <unicode hex="0028"/>
  <outline>
    <contour>
      <point x="383" y="745" type="curve" smooth="yes"/>
      <point x="272" y="635"/>
      <point x="210" y="480"/>
      <point x="210" y="302" type="curve" smooth="yes"/>
      <point x="210" y="296" type="line" smooth="yes"/>
      <point x="210" y="118"/>
      <point x="272" y="-37"/>
      <point x="383" y="-148" type="curve" smooth="yes"/>
      <point x="400" y="-165"/>
      <point x="415" y="-172"/>
      <point x="434" y="-172" type="curve" smooth="yes"/>
      <point x="460" y="-172"/>
      <point x="477" y="-164"/>
      <point x="491" y="-153" type="curve"/>
      <point x="491" y="-149" type="line"/>
      <point x="364" y="-29"/>
      <point x="301" y="124"/>
      <point x="301" y="296" type="curve" smooth="yes"/>
      <point x="301" y="302" type="line" smooth="yes"/>
      <point x="301" y="472"/>
      <point x="364" y="627"/>
      <point x="491" y="747" type="curve"/>
      <point x="491" y="751" type="line"/>
      <point x="477" y="762"/>
      <point x="460" y="770"/>
      <point x="434" y="770" type="curve" smooth="yes"/>
      <point x="415" y="770"/>
      <point x="400" y="763"/>
    </contour>
  </outline>
</glyph>
<glyph name="parenright" format="1">
  <advance width="600"/>
  <unicode hex="0029"/>
  <outline>
    <contour>
      <point x="217" y="-148" type="curve" smooth="yes"/>
      <point x="328" y="-37"/>
      <point x="390" y="118"/>
      <point x="390" y="296" type="curve" smooth="yes"/>
      <point x="390" y="302" type="line" smooth="yes"/>
      <point x="390" y="480"/>
      <point x="328" y="635"/>
      <point x="217" y="745" type="curve" smooth="yes"/>
      <point x="200" y="763"/>
      <point x="185" y="770"/>
      <point x="166" y="770" type="curve" smooth="yes"/>
      <point x="140" y="770"/>
      <point x="123" y="762"/>
      <point x="109" y="751" type="curve"/>
      <point x="109" y="747" type="line"/>
      <point x="236" y="627"/>
      <point x="299" y="473"/>
      <point x="299" y="302" type="curve" smooth="yes"/>
      <point x="299" y="296" type="line" smooth="yes"/>
      <point x="299" y="125"/>
      <point x="236" y="-29"/>
      <point x="109" y="-149" type="curve"/>
      <point x="109" y="-153" type="line"/>
      <point x="123" y="-164"/>
      <point x="140" y="-172"/>
      <point x="166" y="-172" type="curve" smooth="yes"/>
      <point x="185" y="-172"/>
      <point x="200" y="-165"/>
    </contour>
  </outline>
</glyph>
<glyph name="asterisk" format="1">
  <advance width="600"/>
  <unicode hex="002A"/>
  <outline>
    <contour>
      <point x="251" y="570" type="curve"/>
      <point x="258" y="550"/>
      <point x="264" y="532"/>
      <point x="266" y="503" type="curve" smooth="yes"/>
      <point x="281" y="309" type="line"/>
      <point x="258" y="120" type="line" smooth="yes"/>
      <point x="251" y="71"/>
      <point x="266" y="43"/>
      <point x="315" y="43" type="curve"/>
      <point x="328" y="43"/>
      <point x="340" y="45"/>
      <point x="352" y="49" type="curve"/>
      <point x="345" y="69"/>
      <point x="340" y="87"/>
      <point x="337" y="115" type="curve" smooth="yes"/>
      <point x="323" y="309" type="line"/>
      <point x="344" y="498" type="line" smooth="yes"/>
      <point x="352" y="549"/>
      <point x="337" y="577"/>
      <point x="287" y="577" type="curve" smooth="yes"/>
      <point x="275" y="576"/>
      <point x="264" y="574"/>
    </contour>
    <contour>
      <point x="508" y="478" type="curve"/>
      <point x="287" y="329" type="line"/>
      <point x="86" y="235" type="line" smooth="yes"/>
      <point x="63" y="225"/>
      <point x="59" y="197"/>
      <point x="75" y="170" type="curve"/>
      <point x="81" y="159"/>
      <point x="88" y="151"/>
      <point x="96" y="143" type="curve"/>
      <point x="316" y="293" type="line"/>
      <point x="518" y="387" type="line" smooth="yes"/>
      <point x="542" y="398"/>
      <point x="544" y="422"/>
      <point x="528" y="452" type="curve" smooth="yes"/>
      <point x="523" y="460"/>
      <point x="518" y="468"/>
    </contour>
    <contour>
      <point x="549" y="217" type="curve"/>
      <point x="316" y="328" type="line"/>
      <point x="127" y="457" type="line" smooth="yes"/>
      <point x="106" y="473"/>
      <point x="83" y="465"/>
      <point x="65" y="436" type="curve"/>
      <point x="60" y="427"/>
      <point x="57" y="416"/>
      <point x="53" y="406" type="curve"/>
      <point x="286" y="292" type="line"/>
      <point x="475" y="162" type="line" smooth="yes"/>
      <point x="497" y="147"/>
      <point x="519" y="156"/>
      <point x="537" y="186" type="curve"/>
      <point x="543" y="197"/>
      <point x="546" y="205"/>
    </contour>
  </outline>
</glyph>
<glyph name="plus" format="1">
  <advance width="600"/>
  <unicode hex="002B"/>
  <outline>
    <contour>
      <point x="57" y="341" type="line"/>
      <point x="57" y="337"/>
      <point x="57" y="332"/>
      <point x="57" y="328" type="curve" smooth="yes"/>
      <point x="57" y="298"/>
      <point x="61" y="280"/>
      <point x="72" y="269" type="curve" smooth="yes"/>
      <point x="79" y="262"/>
      <point x="88" y="259"/>
      <point x="106" y="259" type="curve"/>
      <point x="544" y="259" type="line"/>
      <point x="546" y="268"/>
      <point x="547" y="278"/>
      <point x="547" y="286" type="curve" smooth="yes"/>
      <point x="547" y="322"/>
      <point x="538" y="341"/>
      <point x="508" y="341" type="curve"/>
    </contour>
    <contour>
      <point x="341" y="59" type="curve"/>
      <point x="341" y="456" type="line" smooth="yes"/>
      <point x="341" y="491"/>
      <point x="337" y="511"/>
      <point x="323" y="526" type="curve" smooth="yes"/>
      <point x="309" y="540"/>
      <point x="289" y="543"/>
      <point x="272" y="543" type="curve" smooth="yes"/>
      <point x="264" y="543"/>
      <point x="256" y="542"/>
      <point x="248" y="540" type="curve"/>
      <point x="257" y="510"/>
      <point x="260" y="491"/>
      <point x="260" y="447" type="curve" smooth="yes"/>
      <point x="260" y="92" type="line" smooth="yes"/>
      <point x="260" y="63"/>
      <point x="283" y="57"/>
      <point x="316" y="57" type="curve" smooth="yes"/>
      <point x="325" y="57"/>
      <point x="334" y="57"/>
    </contour>
  </outline>
</glyph>
<glyph name="period" format="1">
  <advance width="600"/>
  <unicode hex="002E"/>
  <outline>
    <contour>
      <point x="375" y="5" type="curve"/>
      <point x="375" y="90" type="line" smooth="yes"/>
      <point x="375" y="133"/>
      <point x="338" y="150"/>
      <point x="284" y="150" type="curve" smooth="yes"/>
      <point x="262" y="150"/>
      <point x="242" y="146"/>
      <point x="225" y="139" type="curve"/>
      <point x="225" y="53" type="line" smooth="yes"/>
      <point x="225" y="10"/>
      <point x="262" y="-7"/>
      <point x="316" y="-7" type="curve" smooth="yes"/>
      <point x="338" y="-7"/>
      <point x="358" y="-3"/>
    </contour>
  </outline>
</glyph>
<glyph name="slash" format="1">
  <advance width="600"/>
  <unicode hex="002F"/>
  <outline>
    <contour>
      <point x="532" y="750" type="curve"/>
      <point x="519" y="757"/>
      <point x="508" y="760"/>
      <point x="493" y="760" type="curve" smooth="yes"/>
      <point x="465" y="760"/>
      <point x="441" y="751"/>
      <point x="435" y="725" type="curve" smooth="yes"/>
      <point x="365" y="444"/>
      <point x="265" y="184"/>
      <point x="131" y="-52" type="curve" smooth="yes"/>
      <point x="112" y="-84"/>
      <point x="98" y="-106"/>
      <point x="78" y="-127" type="curve"/>
      <point x="93" y="-134"/>
      <point x="106" y="-138"/>
      <point x="125" y="-138" type="curve" smooth="yes"/>
      <point x="156" y="-138"/>
      <point x="179" y="-126"/>
      <point x="197" y="-95" type="curve"/>
      <point x="344" y="149"/>
      <point x="455" y="431"/>
    </contour>
  </outline>
</glyph>
<glyph name="zero" format="1">
  <advance width="600"/>
  <unicode hex="0030"/>
  <outline>
    <contour>
      <point x="303" y="720" type="curve" smooth="yes"/>
      <point x="170" y="720"/>
      <point x="67" y="591"/>
      <point x="67" y="360" type="curve" smooth="yes"/>
      <point x="67" y="313" type="line" smooth="yes"/>
      <point x="67" y="102"/>
      <point x="160" y="-20"/>
      <point x="297" y="-20" type="curve"/>
      <point x="324" y="-20"/>
      <point x="336" y="4"/>
      <point x="336" y="30" type="curve"/>
      <point x="184" y="44"/>
      <point x="148" y="178"/>
      <point x="148" y="307" type="curve" smooth="yes"/>
      <point x="148" y="351" type="line" smooth="yes"/>
      <point x="148" y="515"/>
      <point x="205" y="639"/>
      <point x="314" y="639" type="curve" smooth="yes"/>
      <point x="360" y="639"/>
      <point x="384" y="631"/>
      <point x="417" y="614" type="curve"/>
      <point x="432" y="647"/>
      <point x="377" y="720"/>
    </contour>
    <contour>
      <point x="297" y="-20" type="curve" smooth="yes"/>
      <point x="430" y="-20"/>
      <point x="533" y="103"/>
      <point x="533" y="324" type="curve" smooth="yes"/>
      <point x="533" y="371" type="line" smooth="yes"/>
      <point x="533" y="592"/>
      <point x="440" y="720"/>
      <point x="303" y="720" type="curve"/>
      <point x="276" y="720"/>
      <point x="264" y="696"/>
      <point x="264" y="670" type="curve"/>
      <point x="416" y="656"/>
      <point x="452" y="518"/>
      <point x="452" y="377" type="curve" smooth="yes"/>
      <point x="452" y="333" type="line" smooth="yes"/>
      <point x="452" y="178"/>
      <point x="395" y="61"/>
      <point x="286" y="61" type="curve" smooth="yes"/>
      <point x="240" y="61"/>
      <point x="216" y="68"/>
      <point x="183" y="86" type="curve"/>
      <point x="168" y="48"/>
      <point x="225" y="-20"/>
    </contour>
    <contour>
      <point x="140" y="149" type="curve"/>
      <point x="269" y="252"/>
      <point x="364" y="355"/>
      <point x="459" y="490" type="curve"/>
      <point x="479" y="516"/>
      <point x="474" y="550"/>
      <point x="452" y="572" type="curve"/>
      <point x="345" y="415"/>
      <point x="249" y="317"/>
      <point x="128" y="213" type="curve" smooth="yes"/>
      <point x="114" y="203"/>
      <point x="120" y="168"/>
    </contour>
  </outline>
</glyph>
<glyph name="one" format="1">
  <advance width="600"/>
  <unicode hex="0031"/>
  <outline>
    <contour>
      <point x="376" y="41" type="curve"/>
      <point x="376" y="255"/>
      <point x="376" y="468"/>
      <point x="376" y="680" type="curve" smooth="yes"/>
      <point x="376" y="703"/>
      <point x="345" y="710"/>
      <point x="309" y="710" type="curve" smooth="yes"/>
      <point x="294" y="710" type="line"/>
      <point x="294" y="522"/>
      <point x="294" y="329"/>
      <point x="294" y="140" type="curve" smooth="yes"/>
      <point x="294" y="69"/>
      <point x="326" y="41"/>
    </contour>
    <contour>
      <point x="79" y="81" type="line"/>
      <point x="78" y="77"/>
      <point x="77" y="71"/>
      <point x="77" y="64" type="curve" smooth="yes"/>
      <point x="77" y="38"/>
      <point x="81" y="22"/>
      <point x="92" y="11" type="curve" smooth="yes"/>
      <point x="100" y="3"/>
      <point x="109" y="0"/>
      <point x="131" y="0" type="curve" smooth="yes"/>
      <point x="555" y="0" type="line"/>
      <point x="556" y="6"/>
      <point x="557" y="13"/>
      <point x="557" y="19" type="curve" smooth="yes"/>
      <point x="557" y="54"/>
      <point x="481" y="81"/>
      <point x="361" y="81" type="curve" smooth="yes"/>
    </contour>
    <contour>
      <point x="120" y="454" type="curve" smooth="yes"/>
      <point x="146" y="454"/>
      <point x="200" y="491"/>
      <point x="238" y="530" type="curve" smooth="yes"/>
      <point x="281" y="573"/>
      <point x="316" y="636"/>
      <point x="316" y="673" type="curve" smooth="yes"/>
      <point x="316" y="697"/>
      <point x="307" y="710"/>
      <point x="297" y="710" type="curve"/>
      <point x="281" y="710" type="line"/>
      <point x="260" y="675"/>
      <point x="238" y="645"/>
      <point x="207" y="613" type="curve"/>
      <point x="170" y="576"/>
      <point x="132" y="549"/>
      <point x="91" y="530" type="curve"/>
      <point x="91" y="518" type="line" smooth="yes"/>
      <point x="91" y="474"/>
      <point x="106" y="454"/>
    </contour>
  </outline>
</glyph>
<glyph name="three" format="1">
  <advance width="600"/>
  <unicode hex="0033"/>
  <outline>
    <contour>
      <point x="293" y="638" type="curve" smooth="yes"/>
      <point x="410" y="638"/>
      <point x="465" y="577"/>
      <point x="465" y="493" type="curve" smooth="yes"/>
      <point x="465" y="484"/>
      <point x="464" y="473"/>
      <point x="462" y="462" type="curve"/>
      <point x="487" y="462"/>
      <point x="522" y="503"/>
      <point x="522" y="536" type="curve" smooth="yes"/>
      <point x="522" y="544" type="line" smooth="yes"/>
      <point x="522" y="647"/>
      <point x="436" y="719"/>
      <point x="300" y="719" type="curve" smooth="yes"/>
      <point x="213" y="719"/>
      <point x="144" y="690"/>
      <point x="112" y="658" type="curve" smooth="yes"/>
      <point x="89" y="635"/>
      <point x="82" y="619"/>
      <point x="82" y="588" type="curve" smooth="yes"/>
      <point x="82" y="570"/>
      <point x="84" y="557"/>
      <point x="89" y="542" type="curve"/>
      <point x="93" y="542" type="line"/>
      <point x="142" y="607"/>
      <point x="200" y="638"/>
    </contour>
    <contour>
      <point x="204" y="307" type="curve" smooth="yes"/>
      <point x="405" y="307"/>
      <point x="522" y="413"/>
      <point x="522" y="536" type="curve" smooth="yes"/>
      <point x="522" y="565"/>
      <point x="478" y="596"/>
      <point x="451" y="599" type="curve"/>
      <point x="453" y="587"/>
      <point x="453" y="576"/>
      <point x="453" y="560" type="curve" smooth="yes"/>
      <point x="453" y="428"/>
      <point x="340" y="360"/>
      <point x="175" y="360" type="curve"/>
      <point x="172" y="350"/>
      <point x="171" y="343"/>
      <point x="171" y="331" type="curve" smooth="yes"/>
      <point x="171" y="316"/>
      <point x="189" y="307"/>
    </contour>
    <contour>
      <point x="200" y="284" type="curve" smooth="yes"/>
      <point x="351" y="281"/>
      <point x="464" y="234"/>
      <point x="464" y="142" type="curve" smooth="yes"/>
      <point x="464" y="129"/>
      <point x="464" y="122"/>
      <point x="462" y="112" type="curve"/>
      <point x="494" y="115"/>
      <point x="532" y="140"/>
      <point x="532" y="164" type="curve" smooth="yes"/>
      <point x="532" y="279"/>
      <point x="403" y="342"/>
      <point x="174" y="342" type="curve"/>
      <point x="172" y="338"/>
      <point x="171" y="335"/>
      <point x="171" y="331" type="curve" smooth="yes"/>
      <point x="171" y="303"/>
      <point x="178" y="285"/>
    </contour>
    <contour>
      <point x="293" y="61" type="curve" smooth="yes"/>
      <point x="194" y="61"/>
      <point x="131" y="92"/>
      <point x="78" y="158" type="curve"/>
      <point x="74" y="158" type="line"/>
      <point x="70" y="144"/>
      <point x="69" y="130"/>
      <point x="69" y="112" type="curve" smooth="yes"/>
      <point x="69" y="83"/>
      <point x="74" y="63"/>
      <point x="94" y="44" type="curve" smooth="yes"/>
      <point x="133" y="5"/>
      <point x="207" y="-20"/>
      <point x="300" y="-20" type="curve" smooth="yes"/>
      <point x="442" y="-20"/>
      <point x="532" y="52"/>
      <point x="532" y="155" type="curve" smooth="yes"/>
      <point x="532" y="164" type="line" smooth="yes"/>
      <point x="532" y="195"/>
      <point x="498" y="227"/>
      <point x="474" y="229" type="curve"/>
      <point x="475" y="222"/>
      <point x="475" y="213"/>
      <point x="475" y="203" type="curve" smooth="yes"/>
      <point x="475" y="118"/>
      <point x="418" y="61"/>
    </contour>
  </outline>
</glyph>
<glyph name="four" format="1">
  <advance width="600"/>
  <unicode hex="0034"/>
  <outline>
    <contour>
      <point x="113" y="200" type="curve"/>
      <point x="169" y="366"/>
      <point x="344" y="593"/>
      <point x="491" y="687" type="curve"/>
      <point x="491" y="691" type="line"/>
      <point x="477" y="705"/>
      <point x="454" y="714"/>
      <point x="417" y="714" type="curve" smooth="yes"/>
      <point x="390" y="714"/>
      <point x="372" y="707"/>
      <point x="318" y="654" type="curve" smooth="yes"/>
      <point x="177" y="513"/>
      <point x="48" y="309"/>
      <point x="48" y="225" type="curve" smooth="yes"/>
      <point x="48" y="207"/>
      <point x="86" y="200"/>
    </contour>
    <contour>
      <point x="565" y="150" type="line"/>
      <point x="566" y="157"/>
      <point x="567" y="165"/>
      <point x="567" y="172" type="curve" smooth="yes"/>
      <point x="567" y="201"/>
      <point x="560" y="231"/>
      <point x="537" y="231" type="curve" smooth="yes"/>
      <point x="308" y="231" type="line"/>
      <point x="228" y="231"/>
      <point x="132" y="229"/>
      <point x="48" y="225" type="curve"/>
      <point x="48" y="217" type="line" smooth="yes"/>
      <point x="48" y="191"/>
      <point x="56" y="170"/>
      <point x="68" y="158" type="curve" smooth="yes"/>
      <point x="73" y="152"/>
      <point x="79" y="150"/>
      <point x="90" y="150" type="curve" smooth="yes"/>
    </contour>
    <contour>
      <point x="491" y="-4" type="curve"/>
      <point x="482" y="30"/>
      <point x="479" y="54"/>
      <point x="479" y="99" type="curve" smooth="yes"/>
      <point x="479" y="354" type="line" smooth="yes"/>
      <point x="479" y="368"/>
      <point x="457" y="388"/>
      <point x="422" y="388" type="curve" smooth="yes"/>
      <point x="414" y="388" type="line"/>
      <point x="404" y="326"/>
      <point x="395" y="252"/>
      <point x="395" y="190" type="curve"/>
      <point x="395" y="56" type="line" smooth="yes"/>
      <point x="395" y="3"/>
      <point x="427" y="-9"/>
      <point x="461" y="-9" type="curve" smooth="yes"/>
      <point x="473" y="-9"/>
      <point x="483" y="-7"/>
    </contour>
  </outline>
</glyph>
<glyph name="six" format="1">
  <advance width="600"/>
  <unicode hex="0036"/>
  <outline>
    <contour>
      <point x="145" y="131" type="curve"/>
      <point x="131" y="58"/>
      <point x="216" y="-20"/>
      <point x="310" y="-20" type="curve"/>
      <point x="444" y="-20"/>
      <point x="535" y="64"/>
      <point x="535" y="186" type="curve" smooth="yes"/>
      <point x="535" y="191" type="line" smooth="yes"/>
      <point x="535" y="287"/>
      <point x="460" y="351"/>
      <point x="407" y="324" type="curve"/>
      <point x="441" y="285"/>
      <point x="454" y="247"/>
      <point x="454" y="195" type="curve" smooth="yes"/>
      <point x="454" y="190" type="line" smooth="yes"/>
      <point x="454" y="110"/>
      <point x="398" y="59"/>
      <point x="306" y="59" type="curve" smooth="yes"/>
      <point x="240" y="59"/>
      <point x="197" y="78"/>
    </contour>
    <contour>
      <point x="169" y="558" type="curve"/>
      <point x="219" y="614"/>
      <point x="274" y="639"/>
      <point x="350" y="639" type="curve" smooth="yes"/>
      <point x="415" y="639"/>
      <point x="459" y="624"/>
      <point x="499" y="592" type="curve"/>
      <point x="503" y="592" type="line"/>
      <point x="506" y="602"/>
      <point x="507" y="611"/>
      <point x="507" y="625" type="curve" smooth="yes"/>
      <point x="507" y="655"/>
      <point x="499" y="672"/>
      <point x="489" y="682" type="curve" smooth="yes"/>
      <point x="467" y="703"/>
      <point x="421" y="720"/>
      <point x="348" y="720" type="curve" smooth="yes"/>
      <point x="244" y="720"/>
      <point x="131" y="642"/>
    </contour>
    <contour>
      <point x="67" y="326" type="curve" smooth="yes"/>
      <point x="67" y="318" type="line" smooth="yes"/>
      <point x="67" y="88"/>
      <point x="152" y="-20"/>
      <point x="310" y="-20" type="curve" smooth="yes"/>
      <point x="321" y="-20"/>
      <point x="340" y="-8"/>
      <point x="340" y="21" type="curve"/>
      <point x="204" y="30"/>
      <point x="150" y="121"/>
      <point x="150" y="316" type="curve" smooth="yes"/>
      <point x="150" y="324" type="line" smooth="yes"/>
      <point x="150" y="551"/>
      <point x="217" y="658"/>
      <point x="375" y="682" type="curve"/>
      <point x="375" y="703"/>
      <point x="364" y="720"/>
      <point x="348" y="720" type="curve" smooth="yes"/>
      <point x="175" y="720"/>
      <point x="67" y="595"/>
    </contour>
    <contour>
      <point x="323" y="388" type="curve" smooth="yes"/>
      <point x="256" y="388"/>
      <point x="176" y="361"/>
      <point x="141" y="326" type="curve" smooth="yes"/>
      <point x="129" y="314"/>
      <point x="125" y="294"/>
      <point x="124" y="254" type="curve"/>
      <point x="179" y="294"/>
      <point x="244" y="314"/>
      <point x="314" y="314" type="curve" smooth="yes"/>
      <point x="424" y="314"/>
      <point x="489" y="255"/>
      <point x="489" y="161" type="curve" smooth="yes"/>
      <point x="489" y="149"/>
      <point x="488" y="137"/>
      <point x="484" y="128" type="curve"/>
      <point x="510" y="128"/>
      <point x="535" y="165"/>
      <point x="535" y="191" type="curve" smooth="yes"/>
      <point x="535" y="316"/>
      <point x="452" y="388"/>
    </contour>
  </outline>
</glyph>
<glyph name="seven" format="1">
  <advance width="600"/>
  <unicode hex="0037"/>
  <outline>
    <contour>
      <point x="451" y="619" type="line" smooth="yes"/>
      <point x="482" y="619"/>
      <point x="507" y="620"/>
      <point x="530" y="623" type="curve"/>
      <point x="530" y="632" type="line"/>
      <point x="530" y="662"/>
      <point x="520" y="700"/>
      <point x="497" y="700" type="curve"/>
      <point x="100" y="700" type="line"/>
      <point x="100" y="685" type="line" smooth="yes"/>
      <point x="100" y="642"/>
      <point x="109" y="619"/>
      <point x="133" y="619" type="curve" smooth="yes"/>
    </contour>
    <contour>
      <point x="316" y="-10" type="line"/>
      <point x="316" y="225"/>
      <point x="530" y="470"/>
      <point x="530" y="623" type="curve" smooth="yes"/>
      <point x="530" y="640"/>
      <point x="495" y="645"/>
      <point x="449" y="644" type="curve"/>
      <point x="449" y="491"/>
      <point x="236" y="230"/>
      <point x="236" y="32" type="curve" smooth="yes"/>
      <point x="236" y="3"/>
      <point x="270" y="-10"/>
      <point x="301" y="-10" type="curve" smooth="yes"/>
    </contour>
    <contour>
      <point x="152" y="471" type="curve"/>
      <point x="152" y="580"/>
      <point x="172" y="663"/>
      <point x="172" y="687" type="curve"/>
      <point x="172" y="710"/>
      <point x="138" y="720"/>
      <point x="105" y="720" type="curve" smooth="yes"/>
      <point x="96" y="720" type="line"/>
      <point x="79" y="649"/>
      <point x="71" y="575"/>
      <point x="71" y="504" type="curve"/>
      <point x="71" y="475"/>
      <point x="94" y="469"/>
      <point x="127" y="469" type="curve" smooth="yes"/>
      <point x="136" y="469"/>
      <point x="145" y="469"/>
    </contour>
  </outline>
</glyph>
<glyph name="nine" format="1">
  <advance width="600"/>
  <unicode hex="0039"/>
  <outline>
    <contour>
      <point x="455" y="569" type="curve"/>
      <point x="486" y="636"/>
      <point x="385" y="720"/>
      <point x="291" y="720" type="curve"/>
      <point x="157" y="720"/>
      <point x="66" y="620"/>
      <point x="66" y="463" type="curve" smooth="yes"/>
      <point x="66" y="458" type="line" smooth="yes"/>
      <point x="66" y="348"/>
      <point x="142" y="275"/>
      <point x="197" y="302" type="curve"/>
      <point x="157" y="346"/>
      <point x="147" y="392"/>
      <point x="147" y="454" type="curve" smooth="yes"/>
      <point x="147" y="459" type="line" smooth="yes"/>
      <point x="147" y="570"/>
      <point x="205" y="641"/>
      <point x="301" y="641" type="curve" smooth="yes"/>
      <point x="364" y="641"/>
      <point x="405" y="622"/>
    </contour>
    <contour>
      <point x="437" y="142" type="curve"/>
      <point x="386" y="86"/>
      <point x="328" y="61"/>
      <point x="251" y="61" type="curve" smooth="yes"/>
      <point x="185" y="61"/>
      <point x="142" y="76"/>
      <point x="102" y="108" type="curve"/>
      <point x="98" y="108" type="line"/>
      <point x="95" y="98"/>
      <point x="94" y="89"/>
      <point x="94" y="75" type="curve" smooth="yes"/>
      <point x="94" y="45"/>
      <point x="102" y="28"/>
      <point x="112" y="18" type="curve" smooth="yes"/>
      <point x="133" y="-3"/>
      <point x="179" y="-20"/>
      <point x="253" y="-20" type="curve" smooth="yes"/>
      <point x="360" y="-20"/>
      <point x="470" y="68"/>
    </contour>
    <contour>
      <point x="534" y="374" type="curve" smooth="yes"/>
      <point x="534" y="382" type="line" smooth="yes"/>
      <point x="534" y="612"/>
      <point x="448" y="720"/>
      <point x="291" y="720" type="curve" smooth="yes"/>
      <point x="280" y="720"/>
      <point x="261" y="707"/>
      <point x="261" y="679" type="curve"/>
      <point x="397" y="670"/>
      <point x="451" y="579"/>
      <point x="451" y="384" type="curve" smooth="yes"/>
      <point x="451" y="376" type="line" smooth="yes"/>
      <point x="451" y="149"/>
      <point x="384" y="42"/>
      <point x="227" y="18" type="curve"/>
      <point x="227" y="-3"/>
      <point x="238" y="-20"/>
      <point x="253" y="-20" type="curve" smooth="yes"/>
      <point x="428" y="-20"/>
      <point x="534" y="99"/>
    </contour>
    <contour>
      <point x="276" y="230" type="curve" smooth="yes"/>
      <point x="344" y="230"/>
      <point x="424" y="257"/>
      <point x="460" y="292" type="curve" smooth="yes"/>
      <point x="472" y="304"/>
      <point x="476" y="324"/>
      <point x="477" y="364" type="curve"/>
      <point x="422" y="324"/>
      <point x="355" y="303"/>
      <point x="285" y="303" type="curve" smooth="yes"/>
      <point x="176" y="303"/>
      <point x="112" y="370"/>
      <point x="112" y="477" type="curve" smooth="yes"/>
      <point x="112" y="498"/>
      <point x="114" y="513"/>
      <point x="120" y="530" type="curve"/>
      <point x="92" y="530"/>
      <point x="66" y="497"/>
      <point x="66" y="458" type="curve" smooth="yes"/>
      <point x="66" y="313"/>
      <point x="148" y="230"/>
    </contour>
  </outline>
</glyph>
<glyph name="semicolon" format="1">
  <advance width="600"/>
  <unicode hex="003B"/>
  <outline>
    <contour>
      <point x="375" y="391" type="curve"/>
      <point x="375" y="477" type="line" smooth="yes"/>
      <point x="375" y="520"/>
      <point x="338" y="537"/>
      <point x="284" y="537" type="curve" smooth="yes"/>
      <point x="262" y="537"/>
      <point x="242" y="533"/>
      <point x="225" y="525" type="curve"/>
      <point x="225" y="440" type="line" smooth="yes"/>
      <point x="225" y="397"/>
      <point x="262" y="380"/>
      <point x="316" y="380" type="curve" smooth="yes"/>
      <point x="338" y="380"/>
      <point x="358" y="384"/>
    </contour>
    <contour>
      <point x="252" y="-193" type="curve" smooth="yes"/>
      <point x="266" y="-193"/>
      <point x="274" y="-191"/>
      <point x="281" y="-183" type="curve"/>
      <point x="334" y="-131"/>
      <point x="382" y="-26"/>
      <point x="382" y="93" type="curve"/>
      <point x="382" y="129"/>
      <point x="354" y="141"/>
      <point x="312" y="141" type="curve" smooth="yes"/>
      <point x="294" y="141"/>
      <point x="282" y="139"/>
      <point x="266" y="134" type="curve"/>
      <point x="266" y="-11"/>
      <point x="247" y="-84"/>
      <point x="191" y="-175" type="curve"/>
      <point x="210" y="-188"/>
      <point x="226" y="-193"/>
    </contour>
  </outline>
</glyph>
<glyph name="less" format="1">
  <advance width="600"/>
  <unicode hex="003C"/>
  <outline>
    <contour>
      <point x="525" y="496" type="curve"/>
      <point x="525" y="510" type="line"/>
      <point x="525" y="541"/>
      <point x="510" y="569"/>
      <point x="490" y="569" type="curve" smooth="yes"/>
      <point x="477" y="569"/>
      <point x="445" y="561"/>
      <point x="400" y="545" type="curve" smooth="yes"/>
      <point x="256" y="491"/>
      <point x="150" y="418"/>
      <point x="69" y="326" type="curve"/>
      <point x="69" y="298" type="line"/>
      <point x="69" y="280"/>
      <point x="92" y="270"/>
      <point x="132" y="281" type="curve"/>
      <point x="243" y="390"/>
      <point x="321" y="447"/>
    </contour>
    <contour>
      <point x="520" y="25" type="curve"/>
      <point x="523" y="34"/>
      <point x="524" y="43"/>
      <point x="524" y="56" type="curve" smooth="yes"/>
      <point x="524" y="85"/>
      <point x="516" y="107"/>
      <point x="499" y="113" type="curve" smooth="yes"/>
      <point x="317" y="166"/>
      <point x="245" y="213"/>
      <point x="130" y="320" type="curve" smooth="yes"/>
      <point x="123" y="327"/>
      <point x="120" y="333"/>
      <point x="120" y="339" type="curve" smooth="yes"/>
      <point x="120" y="343"/>
      <point x="120" y="349"/>
      <point x="120" y="357" type="curve"/>
      <point x="85" y="338"/>
      <point x="69" y="320"/>
      <point x="69" y="302" type="curve" smooth="yes"/>
      <point x="69" y="292" type="line" smooth="yes"/>
      <point x="69" y="271"/>
      <point x="77" y="259"/>
      <point x="105" y="235" type="curve" smooth="yes"/>
      <point x="210" y="145"/>
      <point x="307" y="74"/>
    </contour>
  </outline>
</glyph>
<glyph name="greater" format="1">
  <advance width="600"/>
  <unicode hex="003E"/>
  <outline>
    <contour>
      <point x="75" y="104" type="curve"/>
      <point x="75" y="90" type="line"/>
      <point x="75" y="58"/>
      <point x="90" y="31"/>
      <point x="110" y="31" type="curve" smooth="yes"/>
      <point x="123" y="31"/>
      <point x="155" y="38"/>
      <point x="200" y="55" type="curve" smooth="yes"/>
      <point x="344" y="108"/>
      <point x="450" y="182"/>
      <point x="531" y="273" type="curve"/>
      <point x="531" y="301" type="line"/>
      <point x="531" y="320"/>
      <point x="508" y="329"/>
      <point x="468" y="319" type="curve"/>
      <point x="357" y="210"/>
      <point x="279" y="152"/>
    </contour>
    <contour>
      <point x="80" y="574" type="curve"/>
      <point x="77" y="565"/>
      <point x="76" y="556"/>
      <point x="76" y="544" type="curve" smooth="yes"/>
      <point x="76" y="515"/>
      <point x="84" y="492"/>
      <point x="101" y="486" type="curve" smooth="yes"/>
      <point x="283" y="434"/>
      <point x="355" y="387"/>
      <point x="470" y="279" type="curve" smooth="yes"/>
      <point x="477" y="273"/>
      <point x="480" y="266"/>
      <point x="480" y="261" type="curve" smooth="yes"/>
      <point x="480" y="257"/>
      <point x="480" y="251"/>
      <point x="480" y="242" type="curve"/>
      <point x="515" y="261"/>
      <point x="531" y="280"/>
      <point x="531" y="297" type="curve" smooth="yes"/>
      <point x="531" y="307" type="line" smooth="yes"/>
      <point x="531" y="328"/>
      <point x="523" y="341"/>
      <point x="495" y="365" type="curve" smooth="yes"/>
      <point x="390" y="455"/>
      <point x="293" y="525"/>
    </contour>
  </outline>
</glyph>
<glyph name="question" format="1">
  <advance width="600"/>
  <unicode hex="003F"/>
  <outline>
    <contour>
      <point x="305" y="720" type="curve" smooth="yes"/>
      <point x="232" y="720"/>
      <point x="171" y="697"/>
      <point x="136" y="662" type="curve" smooth="yes"/>
      <point x="107" y="634"/>
      <point x="89" y="599"/>
      <point x="89" y="562" type="curve" smooth="yes"/>
      <point x="89" y="543"/>
      <point x="98" y="529"/>
      <point x="109" y="517" type="curve"/>
      <point x="114" y="517" type="line"/>
      <point x="150" y="590"/>
      <point x="210" y="639"/>
      <point x="307" y="639" type="curve" smooth="yes"/>
      <point x="404" y="639"/>
      <point x="460" y="598"/>
      <point x="460" y="543" type="curve" smooth="yes"/>
      <point x="460" y="522"/>
      <point x="459" y="510"/>
      <point x="456" y="496" type="curve"/>
      <point x="498" y="493"/>
      <point x="516" y="527"/>
      <point x="516" y="550" type="curve" smooth="yes"/>
      <point x="516" y="634"/>
      <point x="456" y="720"/>
    </contour>
    <contour>
      <point x="386" y="664" type="curve"/>
      <point x="415" y="627"/>
      <point x="433" y="601"/>
      <point x="433" y="553" type="curve" smooth="yes"/>
      <point x="433" y="506"/>
      <point x="416" y="468"/>
      <point x="356" y="424" type="curve" smooth="yes"/>
      <point x="333" y="408" type="line" smooth="yes"/>
      <point x="273" y="365"/>
      <point x="240" y="325"/>
      <point x="240" y="285" type="curve" smooth="yes"/>
      <point x="240" y="281" type="line" smooth="yes"/>
      <point x="240" y="261"/>
      <point x="262" y="242"/>
      <point x="309" y="242" type="curve" smooth="yes"/>
      <point x="316" y="242" type="line"/>
      <point x="316" y="250" type="line" smooth="yes"/>
      <point x="316" y="287"/>
      <point x="329" y="310"/>
      <point x="388" y="353" type="curve" smooth="yes"/>
      <point x="412" y="370" type="line" smooth="yes"/>
      <point x="485" y="422"/>
      <point x="516" y="475"/>
      <point x="516" y="545" type="curve" smooth="yes"/>
      <point x="516" y="550" type="line" smooth="yes"/>
      <point x="516" y="610"/>
      <point x="460" y="685"/>
    </contour>
    <contour>
      <point x="357" y="5" type="curve"/>
      <point x="357" y="84" type="line" smooth="yes"/>
      <point x="357" y="127"/>
      <point x="320" y="144"/>
      <point x="266" y="144" type="curve" smooth="yes"/>
      <point x="244" y="144"/>
      <point x="224" y="140"/>
      <point x="207" y="133" type="curve"/>
      <point x="207" y="53" type="line" smooth="yes"/>
      <point x="207" y="10"/>
      <point x="244" y="-7"/>
      <point x="298" y="-7" type="curve" smooth="yes"/>
      <point x="320" y="-7"/>
      <point x="340" y="-3"/>
    </contour>
  </outline>
</glyph>
<glyph name="at" format="1">
  <advance width="600"/>
  <unicode hex="0040"/>
  <outline>
    <contour>
      <point x="482" y="515" type="curve" smooth="yes"/>
      <point x="467" y="529"/>
      <point x="439" y="540"/>
      <point x="391" y="540" type="curve" smooth="yes"/>
      <point x="361" y="540"/>
      <point x="331" y="531"/>
      <point x="306" y="505" type="curve" smooth="yes"/>
      <point x="289" y="489"/>
      <point x="288" y="454"/>
      <point x="301" y="436" type="curve"/>
      <point x="337" y="462"/>
      <point x="361" y="472"/>
      <point x="397" y="472" type="curve" smooth="yes"/>
      <point x="435" y="472"/>
      <point x="455" y="467"/>
      <point x="481" y="447" type="curve"/>
      <point x="495" y="480"/>
      <point x="491" y="505"/>
    </contour>
    <contour>
      <point x="495" y="167" type="curve"/>
      <point x="456" y="111"/>
      <point x="406" y="82"/>
      <point x="370" y="82" type="curve" smooth="yes"/>
      <point x="329" y="82"/>
      <point x="307" y="111"/>
      <point x="307" y="200" type="curve" smooth="yes"/>
      <point x="307" y="205" type="line" smooth="yes"/>
      <point x="307" y="352"/>
      <point x="318" y="423"/>
      <point x="375" y="503" type="curve"/>
      <point x="349" y="517"/>
      <point x="318" y="518"/>
      <point x="306" y="505" type="curve" smooth="yes"/>
      <point x="256" y="456"/>
      <point x="230" y="358"/>
      <point x="230" y="201" type="curve" smooth="yes"/>
      <point x="230" y="195" type="line" smooth="yes"/>
      <point x="230" y="73"/>
      <point x="275" y="10"/>
      <point x="359" y="10" type="curve" smooth="yes"/>
      <point x="400" y="10"/>
      <point x="437" y="25"/>
      <point x="488" y="80" type="curve" smooth="yes"/>
      <point x="502" y="96"/>
      <point x="507" y="131"/>
    </contour>
    <contour>
      <point x="543" y="16" type="line"/>
      <point x="535" y="48"/>
      <point x="533" y="66"/>
      <point x="533" y="108" type="curve"/>
      <point x="533" y="516" type="line" smooth="yes"/>
      <point x="533" y="684"/>
      <point x="473" y="760"/>
      <point x="345" y="760" type="curve" smooth="yes"/>
      <point x="319" y="760"/>
      <point x="322" y="735"/>
      <point x="322" y="719" type="curve"/>
      <point x="438" y="708"/>
      <point x="458" y="659"/>
      <point x="458" y="523" type="curve" smooth="yes"/>
      <point x="458" y="83" type="line" smooth="yes"/>
      <point x="458" y="42"/>
      <point x="490" y="16"/>
      <point x="535" y="16" type="curve" smooth="yes"/>
    </contour>
    <contour>
      <point x="58" y="200" type="curve" smooth="yes"/>
      <point x="58" y="192" type="line" smooth="yes"/>
      <point x="58" y="37"/>
      <point x="83" y="-69"/>
      <point x="142" y="-129" type="curve" smooth="yes"/>
      <point x="171" y="-158"/>
      <point x="199" y="-151"/>
      <point x="222" y="-127" type="curve"/>
      <point x="132" y="-32"/>
      <point x="124" y="29"/>
      <point x="124" y="188" type="curve" smooth="yes"/>
      <point x="124" y="197" type="line" smooth="yes"/>
      <point x="124" y="510"/>
      <point x="217" y="694"/>
      <point x="345" y="694" type="curve" smooth="yes"/>
      <point x="397" y="694"/>
      <point x="425" y="678"/>
      <point x="455" y="643" type="curve"/>
      <point x="469" y="654"/>
      <point x="475" y="665"/>
      <point x="475" y="679" type="curve" smooth="yes"/>
      <point x="475" y="719"/>
      <point x="411" y="760"/>
      <point x="345" y="760" type="curve" smooth="yes"/>
      <point x="160" y="760"/>
      <point x="58" y="536"/>
    </contour>
    <contour>
      <point x="325" y="-190" type="curve" smooth="yes"/>
      <point x="389" y="-190"/>
      <point x="444" y="-180"/>
      <point x="461" y="-163" type="curve" smooth="yes"/>
      <point x="473" y="-151"/>
      <point x="478" y="-129"/>
      <point x="478" y="-104" type="curve" smooth="yes"/>
      <point x="478" y="-96" type="line"/>
      <point x="474" y="-96" type="line"/>
      <point x="429" y="-118"/>
      <point x="388" y="-124"/>
      <point x="328" y="-124" type="curve" smooth="yes"/>
      <point x="248" y="-124"/>
      <point x="187" y="-101"/>
      <point x="135" y="-39" type="curve"/>
      <point x="121" y="-63"/>
      <point x="120" y="-107"/>
      <point x="142" y="-129" type="curve"/>
      <point x="184" y="-171"/>
      <point x="244" y="-190"/>
    </contour>
  </outline>
</glyph>
<glyph name="D" format="1">
  <advance width="600"/>
  <unicode hex="0044"/>
  <outline>
    <contour>
      <point x="177" y="26" type="curve"/>
      <point x="177" y="575" type="line" smooth="yes"/>
      <point x="177" y="636"/>
      <point x="150" y="661"/>
      <point x="92" y="661" type="curve"/>
      <point x="92" y="57" type="line" smooth="yes"/>
      <point x="92" y="40"/>
      <point x="127" y="26"/>
    </contour>
    <contour>
      <point x="42" y="700" type="curve"/>
      <point x="41" y="693"/>
      <point x="41" y="685"/>
      <point x="41" y="675" type="curve"/>
      <point x="41" y="650"/>
      <point x="45" y="635"/>
      <point x="55" y="625" type="curve" smooth="yes"/>
      <point x="60" y="620"/>
      <point x="66" y="619"/>
      <point x="72" y="619" type="curve" smooth="yes"/>
      <point x="79" y="619"/>
      <point x="91" y="621"/>
      <point x="110" y="624" type="curve" smooth="yes"/>
      <point x="158" y="632"/>
      <point x="224" y="639"/>
      <point x="279" y="639" type="curve" smooth="yes"/>
      <point x="363" y="639"/>
      <point x="404" y="617"/>
      <point x="457" y="569" type="curve"/>
      <point x="517" y="629"/>
      <point x="409" y="720"/>
      <point x="292" y="720" type="curve" smooth="yes"/>
      <point x="213" y="720"/>
      <point x="136" y="715"/>
    </contour>
    <contour>
      <point x="535" y="377" type="curve" smooth="yes"/>
      <point x="535" y="421" type="line" smooth="yes"/>
      <point x="535" y="609"/>
      <point x="460" y="720"/>
      <point x="292" y="720" type="curve"/>
      <point x="276" y="720"/>
      <point x="266" y="701"/>
      <point x="266" y="679" type="curve"/>
      <point x="415" y="664"/>
      <point x="452" y="587"/>
      <point x="452" y="406" type="curve" smooth="yes"/>
      <point x="452" y="381" type="line" smooth="yes"/>
      <point x="452" y="198"/>
      <point x="370" y="73"/>
      <point x="232" y="73" type="curve" smooth="yes"/>
      <point x="181" y="73"/>
      <point x="150" y="81"/>
      <point x="110" y="101" type="curve"/>
      <point x="97" y="91"/>
      <point x="92" y="78"/>
      <point x="92" y="57" type="curve" smooth="yes"/>
      <point x="92" y="23"/>
      <point x="153" y="-10"/>
      <point x="231" y="-10" type="curve" smooth="yes"/>
      <point x="236" y="-10" type="line" smooth="yes"/>
      <point x="417" y="-10"/>
      <point x="535" y="149"/>
    </contour>
    <contour>
      <point x="288" y="711" type="move" name="top"/>
    </contour>
  </outline>
</glyph>
<glyph name="E" format="1">
  <advance width="600"/>
  <unicode hex="0045"/>
  <outline>
    <contour>
      <point x="42" y="700" type="line"/>
      <point x="42" y="695"/>
      <point x="42" y="690"/>
      <point x="42" y="685" type="curve" smooth="yes"/>
      <point x="42" y="659"/>
      <point x="46" y="635"/>
      <point x="57" y="625" type="curve" smooth="yes"/>
      <point x="61" y="621"/>
      <point x="65" y="619"/>
      <point x="70" y="619" type="curve" smooth="yes"/>
      <point x="532" y="619" type="line"/>
      <point x="535" y="627"/>
      <point x="536" y="637"/>
      <point x="536" y="647" type="curve" smooth="yes"/>
      <point x="536" y="660"/>
      <point x="533" y="681"/>
      <point x="522" y="693" type="curve" smooth="yes"/>
      <point x="517" y="698"/>
      <point x="512" y="700"/>
      <point x="503" y="700" type="curve" smooth="yes"/>
    </contour>
    <contour>
      <point x="177" y="41" type="curve"/>
      <point x="177" y="563" type="line" smooth="yes"/>
      <point x="177" y="622"/>
      <point x="155" y="647"/>
      <point x="92" y="647" type="curve"/>
      <point x="92" y="74" type="line"/>
      <point x="92" y="49"/>
      <point x="128" y="41"/>
    </contour>
    <contour>
      <point x="92" y="81" type="line"/>
      <point x="92" y="69" type="line" smooth="yes"/>
      <point x="92" y="37"/>
      <point x="121" y="0"/>
      <point x="147" y="0" type="curve" smooth="yes"/>
      <point x="535" y="0" type="line"/>
      <point x="536" y="7"/>
      <point x="537" y="16"/>
      <point x="537" y="25" type="curve" smooth="yes"/>
      <point x="537" y="64"/>
      <point x="525" y="81"/>
      <point x="501" y="81" type="curve" smooth="yes"/>
    </contour>
    <contour>
      <point x="128" y="366" type="line"/>
      <point x="128" y="313"/>
      <point x="135" y="291"/>
      <point x="161" y="291" type="curve" smooth="yes"/>
      <point x="466" y="291" type="line"/>
      <point x="466" y="294"/>
      <point x="466" y="299"/>
      <point x="466" y="302" type="curve" smooth="yes"/>
      <point x="466" y="323"/>
      <point x="460" y="343"/>
      <point x="447" y="357" type="curve" smooth="yes"/>
      <point x="440" y="363"/>
      <point x="434" y="366"/>
      <point x="424" y="366" type="curve" smooth="yes"/>
    </contour>
    <contour>
      <point x="300" y="711" type="move" name="top"/>
    </contour>
    <contour>
      <point x="536" y="0" type="move" name="ogonek"/>
    </contour>
    <contour>
      <point x="326" y="-1" type="move" name="bottom"/>
    </contour>
  </outline>
</glyph>
<glyph name="F" format="1">
  <advance width="600"/>
  <unicode hex="0046"/>
  <outline>
    <contour>
      <point x="193" y="-7" type="curve"/>
      <point x="184" y="25"/>
      <point x="183" y="42"/>
      <point x="183" y="85" type="curve" smooth="yes"/>
      <point x="183" y="563" type="line"/>
      <point x="183" y="625"/>
      <point x="160" y="652"/>
      <point x="98" y="652" type="curve"/>
      <point x="98" y="45" type="line" smooth="yes"/>
      <point x="98" y="10"/>
      <point x="125" y="-7"/>
      <point x="184" y="-7" type="curve" smooth="yes"/>
      <point x="187" y="-7"/>
      <point x="190" y="-7"/>
    </contour>
    <contour>
      <point x="42" y="700" type="line"/>
      <point x="42" y="695"/>
      <point x="42" y="690"/>
      <point x="42" y="685" type="curve" smooth="yes"/>
      <point x="42" y="653"/>
      <point x="47" y="636"/>
      <point x="57" y="627" type="curve" smooth="yes"/>
      <point x="62" y="621"/>
      <point x="67" y="619"/>
      <point x="77" y="619" type="curve"/>
      <point x="532" y="619" type="line"/>
      <point x="535" y="626"/>
      <point x="536" y="636"/>
      <point x="536" y="647" type="curve" smooth="yes"/>
      <point x="536" y="666"/>
      <point x="532" y="683"/>
      <point x="522" y="692" type="curve" smooth="yes"/>
      <point x="517" y="698"/>
      <point x="511" y="700"/>
      <point x="501" y="700" type="curve"/>
    </contour>
    <contour>
      <point x="118" y="316" type="line"/>
      <point x="118" y="263"/>
      <point x="126" y="234"/>
      <point x="151" y="234" type="curve"/>
      <point x="492" y="234" type="line"/>
      <point x="493" y="239"/>
      <point x="493" y="245"/>
      <point x="493" y="250" type="curve"/>
      <point x="493" y="272"/>
      <point x="486" y="293"/>
      <point x="473" y="305" type="curve" smooth="yes"/>
      <point x="465" y="314"/>
      <point x="459" y="316"/>
      <point x="446" y="316" type="curve"/>
    </contour>
  </outline>
</glyph>
<glyph name="G" format="1">
  <advance width="600"/>
  <unicode hex="0047"/>
  <outline>
    <contour>
      <point x="373" y="642" type="curve" smooth="yes"/>
      <point x="447" y="642"/>
      <point x="476" y="602"/>
      <point x="476" y="544" type="curve"/>
      <point x="505" y="544"/>
      <point x="515" y="558"/>
      <point x="515" y="571" type="curve" smooth="yes"/>
      <point x="515" y="617"/>
      <point x="505" y="648"/>
      <point x="476" y="677" type="curve" smooth="yes"/>
      <point x="448" y="705"/>
      <point x="417" y="720"/>
      <point x="371" y="720" type="curve" smooth="yes"/>
      <point x="188" y="720"/>
      <point x="64" y="551"/>
      <point x="64" y="282" type="curve" smooth="yes"/>
      <point x="64" y="268" type="line" smooth="yes"/>
      <point x="64" y="209"/>
      <point x="110" y="135"/>
      <point x="164" y="123" type="curve"/>
      <point x="151" y="162"/>
      <point x="146" y="213"/>
      <point x="146" y="266" type="curve" smooth="yes"/>
      <point x="146" y="279" type="line" smooth="yes"/>
      <point x="146" y="504"/>
      <point x="245" y="642"/>
    </contour>
    <contour>
      <point x="314" y="61" type="curve" smooth="yes"/>
      <point x="193" y="61"/>
      <point x="134" y="153"/>
      <point x="134" y="315" type="curve"/>
      <point x="93" y="315"/>
      <point x="64" y="299"/>
      <point x="64" y="268" type="curve" smooth="yes"/>
      <point x="64" y="96"/>
      <point x="150" y="-20"/>
      <point x="314" y="-20" type="curve" smooth="yes"/>
      <point x="440" y="-20"/>
      <point x="533" y="58"/>
      <point x="533" y="174" type="curve" smooth="yes"/>
      <point x="533" y="181" type="line" smooth="yes"/>
      <point x="533" y="238"/>
      <point x="509" y="281"/>
      <point x="462" y="281" type="curve"/>
      <point x="467" y="260"/>
      <point x="470" y="238"/>
      <point x="470" y="206" type="curve" smooth="yes"/>
      <point x="470" y="116"/>
      <point x="405" y="61"/>
    </contour>
    <contour>
      <point x="297" y="317" type="line"/>
      <point x="296" y="313"/>
      <point x="295" y="307"/>
      <point x="295" y="301" type="curve" smooth="yes"/>
      <point x="295" y="280"/>
      <point x="300" y="266"/>
      <point x="310" y="257" type="curve" smooth="yes"/>
      <point x="320" y="247"/>
      <point x="333" y="242"/>
      <point x="361" y="242" type="curve"/>
      <point x="567" y="242" type="line"/>
      <point x="567" y="252" type="line" smooth="yes"/>
      <point x="567" y="299"/>
      <point x="557" y="317"/>
      <point x="530" y="317" type="curve" smooth="yes"/>
    </contour>
    <contour>
      <point x="515" y="472" type="curve"/>
      <point x="515" y="571" type="line" smooth="yes"/>
      <point x="515" y="639"/>
      <point x="470" y="678"/>
      <point x="425" y="669" type="curve"/>
      <point x="432" y="636"/>
      <point x="433" y="598"/>
      <point x="433" y="571" type="curve" smooth="yes"/>
      <point x="433" y="507" type="line" smooth="yes"/>
      <point x="433" y="479"/>
      <point x="447" y="469"/>
      <point x="487" y="469" type="curve" smooth="yes"/>
      <point x="498" y="469"/>
      <point x="507" y="470"/>
    </contour>
    <contour>
      <point x="315" y="711" type="move" name="top"/>
    </contour>
    <contour>
      <point x="315" y="-1" type="move" name="bottom"/>
    </contour>
  </outline>
</glyph>
<glyph name="H" format="1">
  <advance width="600"/>
  <unicode hex="0048"/>
  <outline>
    <contour>
      <point x="76" y="706" type="curve"/>
      <point x="83" y="670"/>
      <point x="85" y="635"/>
      <point x="85" y="597" type="curve" smooth="yes"/>
      <point x="85" y="27" type="line" smooth="yes"/>
      <point x="85" y="0"/>
      <point x="111" y="-10"/>
      <point x="151" y="-10" type="curve" smooth="yes"/>
      <point x="159" y="-10"/>
      <point x="165" y="-10"/>
      <point x="170" y="-9" type="curve"/>
      <point x="170" y="647" type="line" smooth="yes"/>
      <point x="170" y="670"/>
      <point x="167" y="686"/>
      <point x="155" y="698" type="curve" smooth="yes"/>
      <point x="147" y="706"/>
      <point x="134" y="710"/>
      <point x="109" y="710" type="curve" smooth="yes"/>
      <point x="97" y="710"/>
      <point x="88" y="709"/>
    </contour>
    <contour>
      <point x="534" y="-6" type="curve"/>
      <point x="527" y="30"/>
      <point x="525" y="65"/>
      <point x="525" y="103" type="curve" smooth="yes"/>
      <point x="525" y="673" type="line" smooth="yes"/>
      <point x="525" y="699"/>
      <point x="497" y="710"/>
      <point x="452" y="710" type="curve" smooth="yes"/>
      <point x="448" y="710"/>
      <point x="444" y="710"/>
      <point x="440" y="710" type="curve"/>
      <point x="440" y="53" type="line" smooth="yes"/>
      <point x="440" y="30"/>
      <point x="443" y="14"/>
      <point x="455" y="2" type="curve" smooth="yes"/>
      <point x="463" y="-6"/>
      <point x="476" y="-10"/>
      <point x="501" y="-10" type="curve" smooth="yes"/>
      <point x="513" y="-10"/>
      <point x="522" y="-9"/>
    </contour>
    <contour>
      <point x="42" y="331" type="line"/>
      <point x="42" y="317" type="line" smooth="yes"/>
      <point x="42" y="290"/>
      <point x="48" y="269"/>
      <point x="62" y="256" type="curve" smooth="yes"/>
      <point x="66" y="252"/>
      <point x="70" y="250"/>
      <point x="75" y="250" type="curve"/>
      <point x="472" y="250" type="line"/>
      <point x="472" y="310"/>
      <point x="443" y="331"/>
      <point x="384" y="331" type="curve" smooth="yes"/>
    </contour>
    <contour>
      <point x="287" y="711" type="move" name="top"/>
    </contour>
  </outline>
</glyph>
<glyph name="J" format="1">
  <advance width="600"/>
  <unicode hex="004A"/>
  <outline>
    <contour>
      <point x="142" y="700" type="line"/>
      <point x="142" y="695"/>
      <point x="141" y="689"/>
      <point x="141" y="682" type="curve" smooth="yes"/>
      <point x="141" y="659"/>
      <point x="146" y="642"/>
      <point x="158" y="631" type="curve" smooth="yes"/>
      <point x="167" y="622"/>
      <point x="179" y="619"/>
      <point x="205" y="619" type="curve" smooth="yes"/>
      <point x="462" y="619" type="line"/>
      <point x="462" y="678"/>
      <point x="451" y="700"/>
      <point x="423" y="700" type="curve"/>
    </contour>
    <contour>
      <point x="501" y="224" type="curve" smooth="yes"/>
      <point x="501" y="669" type="line" smooth="yes"/>
      <point x="501" y="688"/>
      <point x="481" y="700"/>
      <point x="435" y="700" type="curve" smooth="yes"/>
      <point x="417" y="700" type="line"/>
      <point x="417" y="230" type="line" smooth="yes"/>
      <point x="417" y="134"/>
      <point x="405" y="99"/>
      <point x="345" y="41" type="curve"/>
      <point x="413" y="16"/>
      <point x="501" y="99"/>
    </contour>
    <contour>
      <point x="282" y="61" type="curve" smooth="yes"/>
      <point x="203" y="61"/>
      <point x="163" y="81"/>
      <point x="102" y="114" type="curve"/>
      <point x="98" y="114" type="line"/>
      <point x="97" y="106"/>
      <point x="97" y="98"/>
      <point x="97" y="89" type="curve"/>
      <point x="97" y="57"/>
      <point x="105" y="34"/>
      <point x="115" y="24" type="curve" smooth="yes"/>
      <point x="147" y="-8"/>
      <point x="208" y="-20"/>
      <point x="264" y="-20" type="curve" smooth="yes"/>
      <point x="270" y="-20" type="line" smooth="yes"/>
      <point x="422" y="-20"/>
      <point x="501" y="79"/>
      <point x="501" y="224" type="curve"/>
      <point x="501" y="237"/>
      <point x="489" y="252"/>
      <point x="461" y="252" type="curve"/>
      <point x="449" y="125"/>
      <point x="384" y="61"/>
    </contour>
    <contour>
      <point x="299" y="711" type="move" name="top"/>
    </contour>
  </outline>
</glyph>
<glyph name="L" format="1">
  <advance width="600"/>
  <unicode hex="004C"/>
  <outline>
    <contour>
      <point x="173" y="37" type="curve"/>
      <point x="173" y="647" type="line" smooth="yes"/>
      <point x="173" y="670"/>
      <point x="171" y="686"/>
      <point x="159" y="698" type="curve" smooth="yes"/>
      <point x="151" y="706"/>
      <point x="138" y="710"/>
      <point x="113" y="710" type="curve" smooth="yes"/>
      <point x="101" y="710"/>
      <point x="91" y="709"/>
      <point x="80" y="706" type="curve"/>
      <point x="87" y="671"/>
      <point x="89" y="635"/>
      <point x="89" y="597" type="curve" smooth="yes"/>
      <point x="89" y="84" type="line" smooth="yes"/>
      <point x="89" y="58"/>
      <point x="124" y="37"/>
    </contour>
    <contour>
      <point x="89" y="84" type="line"/>
      <point x="89" y="69" type="line" smooth="yes"/>
      <point x="89" y="37"/>
      <point x="117" y="0"/>
      <point x="143" y="0" type="curve" smooth="yes"/>
      <point x="538" y="0" type="line"/>
      <point x="539" y="8"/>
      <point x="540" y="18"/>
      <point x="540" y="28" type="curve" smooth="yes"/>
      <point x="540" y="67"/>
      <point x="529" y="84"/>
      <point x="504" y="84" type="curve" smooth="yes"/>
    </contour>
    <contour>
      <point x="412" y="550" type="move" name="caronslovak"/>
    </contour>
    <contour>
      <point x="132" y="711" type="move" name="top"/>
    </contour>
    <contour>
      <point x="391" y="400" type="move" name="dot"/>
    </contour>
    <contour>
      <point x="309" y="-1" type="move" name="bottom"/>
    </contour>
  </outline>
</glyph>
<glyph name="M" format="1">
  <advance width="600"/>
  <unicode hex="004D"/>
  <outline>
    <contour>
      <point x="150" y="-9" type="curve"/>
      <point x="150" y="60"/>
      <point x="150" y="129"/>
      <point x="150" y="198" type="curve" smooth="yes"/>
      <point x="150" y="352"/>
      <point x="141" y="548"/>
      <point x="141" y="684" type="curve" smooth="yes"/>
      <point x="141" y="690"/>
      <point x="139" y="697"/>
      <point x="135" y="701" type="curve" smooth="yes"/>
      <point x="129" y="707"/>
      <point x="124" y="710"/>
      <point x="112" y="710" type="curve" smooth="yes"/>
      <point x="99" y="710"/>
      <point x="84" y="708"/>
      <point x="66" y="705" type="curve"/>
      <point x="70" y="671"/>
      <point x="72" y="636"/>
      <point x="72" y="600" type="curve" smooth="yes"/>
      <point x="72" y="26" type="line" smooth="yes"/>
      <point x="72" y="17"/>
      <point x="75" y="11"/>
      <point x="80" y="6" type="curve" smooth="yes"/>
      <point x="91" y="-5"/>
      <point x="112" y="-10"/>
      <point x="134" y="-10" type="curve" smooth="yes"/>
      <point x="140" y="-10"/>
      <point x="146" y="-10"/>
    </contour>
    <contour>
      <point x="537" y="-7" type="curve"/>
      <point x="531" y="28"/>
      <point x="528" y="63"/>
      <point x="528" y="100" type="curve" smooth="yes"/>
      <point x="528" y="678" type="line" smooth="yes"/>
      <point x="528" y="685"/>
      <point x="525" y="690"/>
      <point x="521" y="695" type="curve" smooth="yes"/>
      <point x="512" y="703"/>
      <point x="488" y="710"/>
      <point x="452" y="710" type="curve" smooth="yes"/>
      <point x="445" y="710" type="line"/>
      <point x="457" y="699"/>
      <point x="461" y="692"/>
      <point x="461" y="670" type="curve" smooth="yes"/>
      <point x="461" y="542"/>
      <point x="450" y="288"/>
      <point x="450" y="190" type="curve" smooth="yes"/>
      <point x="450" y="140"/>
      <point x="450" y="90"/>
      <point x="450" y="40" type="curve" smooth="yes"/>
      <point x="450" y="23"/>
      <point x="452" y="13"/>
      <point x="460" y="6" type="curve" smooth="yes"/>
      <point x="470" y="-5"/>
      <point x="490" y="-10"/>
      <point x="511" y="-10" type="curve"/>
      <point x="520" y="-10"/>
      <point x="528" y="-9"/>
    </contour>
    <contour>
      <point x="112" y="710" type="line"/>
      <point x="146" y="482"/>
      <point x="221" y="279"/>
      <point x="284" y="216" type="curve"/>
      <point x="288" y="212"/>
      <point x="295" y="209"/>
      <point x="300" y="209" type="curve"/>
      <point x="311" y="209"/>
      <point x="316" y="248"/>
      <point x="315" y="282" type="curve"/>
      <point x="261" y="358"/>
      <point x="204" y="524"/>
      <point x="182" y="682" type="curve"/>
      <point x="179" y="697"/>
      <point x="151" y="710"/>
      <point x="116" y="710" type="curve"/>
    </contour>
    <contour>
      <point x="445" y="710" type="curve" smooth="yes"/>
      <point x="435" y="710"/>
      <point x="429" y="709"/>
      <point x="421" y="707" type="curve"/>
      <point x="398" y="504"/>
      <point x="340" y="359"/>
      <point x="285" y="286" type="curve"/>
      <point x="278" y="280"/>
      <point x="288" y="209"/>
      <point x="300" y="209" type="curve"/>
      <point x="309" y="209" type="line"/>
      <point x="385" y="295"/>
      <point x="460" y="493"/>
      <point x="471" y="665" type="curve"/>
      <point x="473" y="698"/>
      <point x="467" y="710"/>
    </contour>
  </outline>
</glyph>
<glyph name="N" format="1">
  <advance width="600"/>
  <unicode hex="004E"/>
  <outline>
    <contour>
      <point x="157" y="-7" type="curve"/>
      <point x="157" y="360" type="line"/>
      <point x="157" y="532"/>
      <point x="142" y="691"/>
      <point x="131" y="703" type="curve" smooth="yes"/>
      <point x="127" y="706"/>
      <point x="122" y="710"/>
      <point x="118" y="710" type="curve"/>
      <point x="103" y="710"/>
      <point x="89" y="709"/>
      <point x="70" y="705" type="curve"/>
      <point x="76" y="670"/>
      <point x="78" y="625"/>
      <point x="78" y="597" type="curve" smooth="yes"/>
      <point x="78" y="27" type="line"/>
      <point x="78" y="-1"/>
      <point x="110" y="-10"/>
      <point x="134" y="-10" type="curve"/>
      <point x="143" y="-10"/>
      <point x="150" y="-9"/>
    </contour>
    <contour>
      <point x="525" y="-10" type="line"/>
      <point x="525" y="676" type="line"/>
      <point x="525" y="701"/>
      <point x="496" y="710"/>
      <point x="461" y="710" type="curve"/>
      <point x="447" y="710" type="line"/>
      <point x="447" y="190" type="line"/>
      <point x="447" y="103"/>
      <point x="459" y="18"/>
      <point x="473" y="4" type="curve" smooth="yes"/>
      <point x="483" y="-6"/>
      <point x="493" y="-10"/>
      <point x="505" y="-10" type="curve"/>
    </contour>
    <contour>
      <point x="118" y="710" type="line"/>
      <point x="127" y="689"/>
      <point x="133" y="659"/>
      <point x="139" y="632" type="curve" smooth="yes"/>
      <point x="194" y="349"/>
      <point x="350" y="106"/>
      <point x="447" y="9" type="curve"/>
      <point x="460" y="-4"/>
      <point x="479" y="-10"/>
      <point x="505" y="-10" type="curve" smooth="yes"/>
      <point x="509" y="-10"/>
      <point x="508" y="-10"/>
      <point x="512" y="-10" type="curve"/>
      <point x="515" y="-10"/>
      <point x="518" y="13"/>
      <point x="517" y="39" type="curve"/>
      <point x="340" y="232"/>
      <point x="253" y="427"/>
      <point x="194" y="679" type="curve"/>
      <point x="190" y="697"/>
      <point x="156" y="710"/>
      <point x="120" y="710" type="curve"/>
    </contour>
    <contour>
      <point x="300" y="711" type="move" name="top"/>
    </contour>
    <contour>
      <point x="297" y="-1" type="move" name="bottom"/>
    </contour>
  </outline>
</glyph>
<glyph name="O" format="1">
  <advance width="600"/>
  <unicode hex="004F"/>
  <outline>
    <contour>
      <point x="299" y="720" type="curve" smooth="yes"/>
      <point x="147" y="720"/>
      <point x="60" y="574"/>
      <point x="60" y="337" type="curve" smooth="yes"/>
      <point x="60" y="312" type="line" smooth="yes"/>
      <point x="60" y="102"/>
      <point x="138" y="-20"/>
      <point x="301" y="-20" type="curve" smooth="yes"/>
      <point x="322" y="-20"/>
      <point x="336" y="3"/>
      <point x="336" y="38" type="curve"/>
      <point x="196" y="42"/>
      <point x="142" y="141"/>
      <point x="142" y="308" type="curve" smooth="yes"/>
      <point x="142" y="328" type="line" smooth="yes"/>
      <point x="142" y="521"/>
      <point x="196" y="639"/>
      <point x="309" y="639" type="curve" smooth="yes"/>
      <point x="347" y="639"/>
      <point x="382" y="628"/>
      <point x="424" y="604" type="curve"/>
      <point x="462" y="640"/>
      <point x="384" y="720"/>
    </contour>
    <contour>
      <point x="301" y="-20" type="curve" smooth="yes"/>
      <point x="453" y="-20"/>
      <point x="540" y="115"/>
      <point x="540" y="335" type="curve" smooth="yes"/>
      <point x="540" y="361" type="line" smooth="yes"/>
      <point x="540" y="587"/>
      <point x="462" y="720"/>
      <point x="299" y="720" type="curve" smooth="yes"/>
      <point x="278" y="720"/>
      <point x="264" y="697"/>
      <point x="264" y="662" type="curve"/>
      <point x="404" y="658"/>
      <point x="458" y="548"/>
      <point x="458" y="365" type="curve" smooth="yes"/>
      <point x="458" y="345" type="line" smooth="yes"/>
      <point x="458" y="169"/>
      <point x="404" y="61"/>
      <point x="291" y="61" type="curve" smooth="yes"/>
      <point x="253" y="61"/>
      <point x="217" y="71"/>
      <point x="176" y="96" type="curve"/>
      <point x="138" y="60"/>
      <point x="216" y="-20"/>
    </contour>
    <contour>
      <point x="300" y="711" type="move" name="top"/>
    </contour>
    <contour>
      <point x="399" y="12" type="move" name="ogonek"/>
    </contour>
    <contour>
      <point x="300" y="-1" type="move" name="bottom"/>
    </contour>
  </outline>
</glyph>
<glyph name="P" format="1">
  <advance width="600"/>
  <unicode hex="0050"/>
  <outline>
    <contour>
      <point x="185" y="-6" type="curve"/>
      <point x="179" y="30"/>
      <point x="177" y="65"/>
      <point x="177" y="103" type="curve" smooth="yes"/>
      <point x="177" y="575" type="line" smooth="yes"/>
      <point x="177" y="636"/>
      <point x="150" y="661"/>
      <point x="92" y="661" type="curve"/>
      <point x="92" y="53" type="line" smooth="yes"/>
      <point x="92" y="30"/>
      <point x="95" y="14"/>
      <point x="106" y="2" type="curve" smooth="yes"/>
      <point x="115" y="-6"/>
      <point x="128" y="-10"/>
      <point x="153" y="-10" type="curve" smooth="yes"/>
      <point x="165" y="-10"/>
      <point x="174" y="-9"/>
    </contour>
    <contour>
      <point x="42" y="700" type="curve"/>
      <point x="41" y="693"/>
      <point x="41" y="685"/>
      <point x="41" y="675" type="curve"/>
      <point x="41" y="650"/>
      <point x="45" y="635"/>
      <point x="55" y="625" type="curve" smooth="yes"/>
      <point x="60" y="620"/>
      <point x="66" y="619"/>
      <point x="72" y="619" type="curve" smooth="yes"/>
      <point x="79" y="619"/>
      <point x="91" y="621"/>
      <point x="110" y="624" type="curve" smooth="yes"/>
      <point x="158" y="632"/>
      <point x="224" y="639"/>
      <point x="279" y="639" type="curve" smooth="yes"/>
      <point x="369" y="639"/>
      <point x="409" y="620"/>
      <point x="463" y="566" type="curve"/>
      <point x="526" y="630"/>
      <point x="410" y="720"/>
      <point x="292" y="720" type="curve" smooth="yes"/>
      <point x="213" y="720"/>
      <point x="136" y="715"/>
    </contour>
    <contour>
      <point x="533" y="473" type="curve" smooth="yes"/>
      <point x="533" y="522" type="line" smooth="yes"/>
      <point x="533" y="637"/>
      <point x="432" y="720"/>
      <point x="292" y="720" type="curve"/>
      <point x="265" y="720"/>
      <point x="256" y="705"/>
      <point x="256" y="682" type="curve"/>
      <point x="380" y="677"/>
      <point x="449" y="629"/>
      <point x="449" y="513" type="curve" smooth="yes"/>
      <point x="449" y="476" type="line" smooth="yes"/>
      <point x="449" y="344"/>
      <point x="343" y="255"/>
      <point x="220" y="255" type="curve" smooth="yes"/>
      <point x="185" y="255"/>
      <point x="176" y="256"/>
      <point x="163" y="258" type="curve"/>
      <point x="158" y="254"/>
      <point x="156" y="249"/>
      <point x="156" y="241" type="curve" smooth="yes"/>
      <point x="156" y="213"/>
      <point x="197" y="177"/>
      <point x="233" y="177" type="curve" smooth="yes"/>
      <point x="237" y="177" type="line" smooth="yes"/>
      <point x="393" y="177"/>
      <point x="533" y="299"/>
    </contour>
  </outline>
</glyph>
<glyph name="Q" format="1">
  <advance width="600"/>
  <unicode hex="0051"/>
  <outline>
    <contour>
      <point x="299" y="720" type="curve" smooth="yes"/>
      <point x="147" y="720"/>
      <point x="60" y="574"/>
      <point x="60" y="337" type="curve" smooth="yes"/>
      <point x="60" y="312" type="line" smooth="yes"/>
      <point x="60" y="102"/>
      <point x="138" y="-20"/>
      <point x="301" y="-20" type="curve" smooth="yes"/>
      <point x="322" y="-20"/>
      <point x="336" y="3"/>
      <point x="336" y="38" type="curve"/>
      <point x="196" y="42"/>
      <point x="142" y="141"/>
      <point x="142" y="308" type="curve" smooth="yes"/>
      <point x="142" y="328" type="line" smooth="yes"/>
      <point x="142" y="521"/>
      <point x="196" y="639"/>
      <point x="309" y="639" type="curve" smooth="yes"/>
      <point x="347" y="639"/>
      <point x="382" y="628"/>
      <point x="424" y="604" type="curve"/>
      <point x="462" y="640"/>
      <point x="384" y="720"/>
    </contour>
    <contour>
      <point x="301" y="-20" type="curve" smooth="yes"/>
      <point x="453" y="-20"/>
      <point x="540" y="115"/>
      <point x="540" y="335" type="curve" smooth="yes"/>
      <point x="540" y="361" type="line" smooth="yes"/>
      <point x="540" y="587"/>
      <point x="462" y="720"/>
      <point x="299" y="720" type="curve" smooth="yes"/>
      <point x="278" y="720"/>
      <point x="264" y="697"/>
      <point x="264" y="662" type="curve"/>
      <point x="404" y="658"/>
      <point x="458" y="548"/>
      <point x="458" y="365" type="curve" smooth="yes"/>
      <point x="458" y="345" type="line" smooth="yes"/>
      <point x="458" y="168"/>
      <point x="404" y="61"/>
      <point x="291" y="61" type="curve" smooth="yes"/>
      <point x="253" y="61"/>
      <point x="217" y="71"/>
      <point x="176" y="96" type="curve"/>
      <point x="138" y="60"/>
      <point x="216" y="-20"/>
    </contour>
    <contour>
      <point x="396" y="70" type="line"/>
      <point x="352" y="43"/>
      <point x="338" y="21"/>
      <point x="346" y="6" type="curve" smooth="yes"/>
      <point x="400" y="-78" type="line" smooth="yes"/>
      <point x="439" y="-137"/>
      <point x="473" y="-164"/>
      <point x="516" y="-164" type="curve" smooth="yes"/>
      <point x="519" y="-164" type="line" smooth="yes"/>
      <point x="561" y="-164"/>
      <point x="581" y="-141"/>
      <point x="581" y="-93" type="curve" smooth="yes"/>
      <point x="581" y="-78"/>
      <point x="579" y="-65"/>
      <point x="576" y="-52" type="curve"/>
      <point x="572" y="-52" type="line"/>
      <point x="562" y="-62"/>
      <point x="548" y="-67"/>
      <point x="532" y="-67" type="curve" smooth="yes"/>
      <point x="505" y="-67"/>
      <point x="484" y="-57"/>
      <point x="463" y="-26" type="curve" smooth="yes"/>
    </contour>
  </outline>
</glyph>
<glyph name="T" format="1">
  <advance width="600"/>
  <unicode hex="0054"/>
  <outline>
    <contour>
      <point x="46" y="700" type="line"/>
      <point x="44" y="694"/>
      <point x="43" y="687"/>
      <point x="43" y="679" type="curve" smooth="yes"/>
      <point x="43" y="662"/>
      <point x="48" y="643"/>
      <point x="59" y="631" type="curve" smooth="yes"/>
      <point x="69" y="622"/>
      <point x="83" y="619"/>
      <point x="113" y="619" type="curve" smooth="yes"/>
      <point x="551" y="619" type="line"/>
      <point x="553" y="626"/>
      <point x="554" y="636"/>
      <point x="554" y="646" type="curve" smooth="yes"/>
      <point x="554" y="679"/>
      <point x="546" y="700"/>
      <point x="519" y="700" type="curve" smooth="yes"/>
    </contour>
    <contour>
      <point x="351" y="-6" type="curve"/>
      <point x="344" y="30"/>
      <point x="342" y="65"/>
      <point x="342" y="103" type="curve" smooth="yes"/>
      <point x="342" y="566" type="line" smooth="yes"/>
      <point x="342" y="627"/>
      <point x="320" y="650"/>
      <point x="258" y="650" type="curve"/>
      <point x="258" y="53" type="line" smooth="yes"/>
      <point x="258" y="30"/>
      <point x="260" y="14"/>
      <point x="272" y="2" type="curve" smooth="yes"/>
      <point x="281" y="-6"/>
      <point x="293" y="-10"/>
      <point x="318" y="-10" type="curve" smooth="yes"/>
      <point x="330" y="-10"/>
      <point x="340" y="-9"/>
    </contour>
    <contour>
      <point x="299" y="711" type="move" name="top"/>
    </contour>
    <contour>
      <point x="300" y="-1" type="move" name="bottom"/>
    </contour>
  </outline>
</glyph>
<glyph name="U" format="1">
  <advance width="600"/>
  <unicode hex="0055"/>
  <outline>
    <contour>
      <point x="57" y="705" type="curve"/>
      <point x="66" y="670"/>
      <point x="70" y="629"/>
      <point x="70" y="576" type="curve" smooth="yes"/>
      <point x="70" y="153" type="line"/>
      <point x="70" y="113"/>
      <point x="95" y="95"/>
      <point x="137" y="108" type="curve"/>
      <point x="153" y="285"/>
      <point x="161" y="395"/>
      <point x="161" y="545" type="curve" smooth="yes"/>
      <point x="161" y="550" type="line"/>
      <point x="161" y="673"/>
      <point x="135" y="710"/>
      <point x="90" y="710" type="curve"/>
      <point x="77" y="710"/>
      <point x="68" y="709"/>
    </contour>
    <contour>
      <point x="224" y="-17" type="curve" smooth="yes"/>
      <point x="312" y="-17"/>
      <point x="381" y="25"/>
      <point x="447" y="118" type="curve" smooth="yes"/>
      <point x="469" y="154"/>
      <point x="471" y="184"/>
      <point x="461" y="220" type="curve"/>
      <point x="371" y="99"/>
      <point x="318" y="71"/>
      <point x="238" y="71" type="curve" smooth="yes"/>
      <point x="173" y="71"/>
      <point x="140" y="107"/>
      <point x="130" y="197" type="curve"/>
      <point x="97" y="190"/>
      <point x="70" y="172"/>
      <point x="70" y="153" type="curve" smooth="yes"/>
      <point x="70" y="66"/>
      <point x="132" y="-17"/>
    </contour>
    <contour>
      <point x="535" y="-6" type="curve"/>
      <point x="528" y="28"/>
      <point x="526" y="63"/>
      <point x="526" y="100" type="curve" smooth="yes"/>
      <point x="526" y="676" type="line" smooth="yes"/>
      <point x="526" y="701"/>
      <point x="502" y="710"/>
      <point x="462" y="710" type="curve" smooth="yes"/>
      <point x="454" y="710"/>
      <point x="448" y="710"/>
      <point x="442" y="709" type="curve"/>
      <point x="442" y="168" type="line" smooth="yes"/>
      <point x="442" y="66"/>
      <point x="449" y="24"/>
      <point x="470" y="4" type="curve" smooth="yes"/>
      <point x="479" y="-6"/>
      <point x="491" y="-10"/>
      <point x="508" y="-10" type="curve" smooth="yes"/>
      <point x="518" y="-10"/>
      <point x="526" y="-9"/>
    </contour>
    <contour>
      <point x="300" y="711" type="move" name="top"/>
    </contour>
    <contour>
      <point x="536" y="-6" type="move" name="ogonek"/>
    </contour>
    <contour>
      <point x="300" y="695" type="move" name="ring"/>
    </contour>
    <contour>
      <point x="296" y="-1" type="move" name="bottom"/>
    </contour>
  </outline>
</glyph>
<glyph name="V" format="1">
  <advance width="600"/>
  <unicode hex="0056"/>
  <outline>
    <contour>
      <point x="73" y="710" type="curve"/>
      <point x="59" y="710" type="line"/>
      <point x="75" y="332"/>
      <point x="117" y="143"/>
      <point x="238" y="21" type="curve" smooth="yes"/>
      <point x="262" y="-3"/>
      <point x="282" y="-10"/>
      <point x="303" y="-10" type="curve" smooth="yes"/>
      <point x="314" y="-10" type="line" smooth="yes"/>
      <point x="333" y="-10"/>
      <point x="350" y="10"/>
      <point x="360" y="36" type="curve"/>
      <point x="354" y="36"/>
      <point x="351" y="36"/>
      <point x="346" y="36" type="curve" smooth="yes"/>
      <point x="341" y="36"/>
      <point x="335" y="37"/>
      <point x="329" y="42" type="curve"/>
      <point x="201" y="161"/>
      <point x="162" y="289"/>
      <point x="144" y="681" type="curve"/>
      <point x="143" y="699"/>
      <point x="111" y="710"/>
    </contour>
    <contour>
      <point x="472" y="710" type="curve"/>
      <point x="457" y="710" type="line"/>
      <point x="434" y="305"/>
      <point x="411" y="168"/>
      <point x="279" y="51" type="curve"/>
      <point x="263" y="37"/>
      <point x="270" y="-10"/>
      <point x="309" y="-10" type="curve"/>
      <point x="336" y="-10" type="line"/>
      <point x="475" y="110"/>
      <point x="520" y="306"/>
      <point x="539" y="668" type="curve"/>
      <point x="540" y="691"/>
      <point x="510" y="710"/>
    </contour>
  </outline>
</glyph>
<glyph name="W" format="1">
  <advance width="600"/>
  <unicode hex="0057"/>
  <outline>
    <contour>
      <point x="38" y="710" type="curve"/>
      <point x="38" y="235"/>
      <point x="61" y="97"/>
      <point x="151" y="7" type="curve"/>
      <point x="163" y="-4"/>
      <point x="176" y="-10"/>
      <point x="189" y="-10" type="curve"/>
      <point x="196" y="-10" type="line" smooth="yes"/>
      <point x="205" y="-10"/>
      <point x="211" y="35"/>
      <point x="211" y="51" type="curve"/>
      <point x="135" y="138"/>
      <point x="122" y="216"/>
      <point x="122" y="679" type="curve"/>
      <point x="122" y="686"/>
      <point x="121" y="688"/>
      <point x="114" y="696" type="curve" smooth="yes"/>
      <point x="107" y="703"/>
      <point x="82" y="710"/>
      <point x="53" y="710" type="curve"/>
      <point x="48" y="710"/>
      <point x="43" y="710"/>
    </contour>
    <contour>
      <point x="479" y="710" type="curve"/>
      <point x="479" y="203"/>
      <point x="458" y="155"/>
      <point x="397" y="55" type="curve"/>
      <point x="399" y="12"/>
      <point x="407" y="-10"/>
      <point x="420" y="-10" type="curve"/>
      <point x="446" y="-10" type="line"/>
      <point x="531" y="146"/>
      <point x="560" y="268"/>
      <point x="560" y="675" type="curve"/>
      <point x="560" y="685"/>
      <point x="559" y="690"/>
      <point x="553" y="696" type="curve" smooth="yes"/>
      <point x="545" y="704"/>
      <point x="522" y="710"/>
      <point x="494" y="710" type="curve"/>
      <point x="489" y="710"/>
      <point x="484" y="710"/>
    </contour>
    <contour>
      <point x="283" y="577" type="curve"/>
      <point x="269" y="577" type="line"/>
      <point x="269" y="299"/>
      <point x="254" y="172"/>
      <point x="170" y="28" type="curve"/>
      <point x="171" y="10"/>
      <point x="175" y="-10"/>
      <point x="189" y="-10" type="curve"/>
      <point x="210" y="-10" type="line"/>
      <point x="305" y="133"/>
      <point x="321" y="328"/>
      <point x="321" y="539" type="curve"/>
      <point x="321" y="565"/>
      <point x="306" y="577"/>
    </contour>
    <contour>
      <point x="283" y="577" type="curve"/>
      <point x="278" y="577" type="line"/>
      <point x="281" y="276"/>
      <point x="310" y="93"/>
      <point x="382" y="2" type="curve"/>
      <point x="389" y="-6"/>
      <point x="398" y="-10"/>
      <point x="407" y="-10" type="curve"/>
      <point x="427" y="-10" type="line"/>
      <point x="435" y="-10"/>
      <point x="443" y="12"/>
      <point x="443" y="31" type="curve"/>
      <point x="366" y="97"/>
      <point x="331" y="288"/>
      <point x="331" y="549" type="curve"/>
      <point x="331" y="564"/>
      <point x="316" y="577"/>
    </contour>
    <contour>
      <point x="299" y="711" type="move" name="top"/>
    </contour>
  </outline>
</glyph>
<glyph name="X" format="1">
  <advance width="600"/>
  <unicode hex="0058"/>
  <outline>
    <contour>
      <point x="532" y="-7" type="curve" smooth="yes"/>
      <point x="547" y="-7"/>
      <point x="561" y="-5"/>
      <point x="572" y="-2" type="curve"/>
      <point x="491" y="76"/>
      <point x="403" y="194"/>
      <point x="325" y="318" type="curve" smooth="yes"/>
      <point x="318" y="331"/>
      <point x="310" y="344"/>
      <point x="302" y="357" type="curve" smooth="yes"/>
      <point x="229" y="476"/>
      <point x="171" y="597"/>
      <point x="139" y="682" type="curve" smooth="yes"/>
      <point x="132" y="702"/>
      <point x="101" y="707"/>
      <point x="45" y="707" type="curve" smooth="yes"/>
      <point x="28" y="707" type="line"/>
      <point x="78" y="585"/>
      <point x="154" y="434"/>
      <point x="238" y="300" type="curve" smooth="yes"/>
      <point x="245" y="289"/>
      <point x="252" y="277"/>
      <point x="259" y="266" type="curve" smooth="yes"/>
      <point x="326" y="164"/>
      <point x="395" y="74"/>
      <point x="449" y="19" type="curve" smooth="yes"/>
      <point x="465" y="0"/>
      <point x="494" y="-7"/>
    </contour>
    <contour>
      <point x="489" y="707" type="curve"/>
      <point x="477" y="707" type="line"/>
      <point x="427" y="561"/>
      <point x="368" y="456"/>
      <point x="272" y="345" type="curve"/>
      <point x="248" y="317"/>
      <point x="277" y="287"/>
      <point x="317" y="290" type="curve"/>
      <point x="434" y="415"/>
      <point x="499" y="524"/>
      <point x="556" y="671" type="curve"/>
      <point x="558" y="679"/>
      <point x="558" y="684"/>
      <point x="554" y="688" type="curve" smooth="yes"/>
      <point x="540" y="702"/>
      <point x="515" y="707"/>
    </contour>
    <contour>
      <point x="108" y="-7" type="curve" smooth="yes"/>
      <point x="116" y="-7" type="line"/>
      <point x="155" y="100"/>
      <point x="222" y="203"/>
      <point x="297" y="278" type="curve"/>
      <point x="320" y="302"/>
      <point x="291" y="340"/>
      <point x="254" y="340" type="curve"/>
      <point x="156" y="241"/>
      <point x="84" y="134"/>
      <point x="35" y="32" type="curve"/>
      <point x="30" y="22"/>
      <point x="32" y="16"/>
      <point x="37" y="11" type="curve" smooth="yes"/>
      <point x="50" y="-2"/>
      <point x="75" y="-7"/>
    </contour>
  </outline>
</glyph>
<glyph name="Y" format="1">
  <advance width="600"/>
  <unicode hex="0059"/>
  <outline>
    <contour>
      <point x="43" y="710" type="line"/>
      <point x="82" y="453"/>
      <point x="138" y="349"/>
      <point x="253" y="234" type="curve"/>
      <point x="268" y="218"/>
      <point x="285" y="216"/>
      <point x="298" y="216" type="curve"/>
      <point x="319" y="216"/>
      <point x="333" y="232"/>
      <point x="334" y="269" type="curve"/>
      <point x="218" y="371"/>
      <point x="167" y="448"/>
      <point x="131" y="681" type="curve"/>
      <point x="129" y="699"/>
      <point x="96" y="710"/>
      <point x="58" y="710" type="curve" smooth="yes"/>
    </contour>
    <contour>
      <point x="472" y="710" type="line"/>
      <point x="444" y="480"/>
      <point x="394" y="385"/>
      <point x="275" y="275" type="curve"/>
      <point x="250" y="251"/>
      <point x="276" y="216"/>
      <point x="298" y="216" type="curve"/>
      <point x="331" y="216" type="line"/>
      <point x="450" y="331"/>
      <point x="526" y="457"/>
      <point x="552" y="668" type="curve"/>
      <point x="555" y="691"/>
      <point x="524" y="710"/>
      <point x="487" y="710" type="curve"/>
    </contour>
    <contour>
      <point x="351" y="-6" type="curve"/>
      <point x="344" y="30"/>
      <point x="342" y="65"/>
      <point x="342" y="103" type="curve" smooth="yes"/>
      <point x="342" y="245" type="line" smooth="yes"/>
      <point x="342" y="271"/>
      <point x="304" y="282"/>
      <point x="258" y="282" type="curve"/>
      <point x="258" y="53" type="line" smooth="yes"/>
      <point x="258" y="30"/>
      <point x="260" y="14"/>
      <point x="272" y="2" type="curve" smooth="yes"/>
      <point x="281" y="-6"/>
      <point x="293" y="-10"/>
      <point x="318" y="-10" type="curve" smooth="yes"/>
      <point x="330" y="-10"/>
      <point x="340" y="-9"/>
    </contour>
    <contour>
      <point x="300" y="711" type="move" name="top"/>
    </contour>
  </outline>
</glyph>
<glyph name="Z" format="1">
  <advance width="600"/>
  <unicode hex="005A"/>
  <outline>
    <contour>
      <point x="110" y="700" type="line"/>
      <point x="108" y="695"/>
      <point x="107" y="687"/>
      <point x="107" y="678" type="curve" smooth="yes"/>
      <point x="107" y="655"/>
      <point x="111" y="639"/>
      <point x="123" y="627" type="curve" smooth="yes"/>
      <point x="129" y="621"/>
      <point x="135" y="619"/>
      <point x="145" y="619" type="curve" smooth="yes"/>
      <point x="417" y="619" type="line" smooth="yes"/>
      <point x="470" y="619"/>
      <point x="497" y="607"/>
      <point x="523" y="581" type="curve" smooth="yes"/>
      <point x="536" y="595"/>
      <point x="543" y="605"/>
      <point x="543" y="614" type="curve"/>
      <point x="543" y="619" type="line" smooth="yes"/>
      <point x="543" y="658"/>
      <point x="509" y="700"/>
      <point x="463" y="700" type="curve" smooth="yes"/>
    </contour>
    <contour>
      <point x="474" y="653" type="curve"/>
      <point x="412" y="433"/>
      <point x="277" y="265"/>
      <point x="57" y="78" type="curve"/>
      <point x="57" y="46"/>
      <point x="101" y="39"/>
      <point x="132" y="58" type="curve" smooth="yes"/>
      <point x="386" y="243"/>
      <point x="543" y="537"/>
      <point x="543" y="614" type="curve"/>
      <point x="543" y="640"/>
      <point x="518" y="651"/>
    </contour>
    <contour>
      <point x="542" y="0" type="line"/>
      <point x="543" y="5"/>
      <point x="543" y="10"/>
      <point x="543" y="17" type="curve" smooth="yes"/>
      <point x="543" y="42"/>
      <point x="537" y="59"/>
      <point x="524" y="72" type="curve" smooth="yes"/>
      <point x="518" y="79"/>
      <point x="512" y="81"/>
      <point x="501" y="81" type="curve" smooth="yes"/>
      <point x="286" y="81" type="line" smooth="yes"/>
      <point x="220" y="81"/>
      <point x="124" y="80"/>
      <point x="57" y="78" type="curve"/>
      <point x="57" y="67" type="line" smooth="yes"/>
      <point x="57" y="26"/>
      <point x="67" y="0"/>
      <point x="90" y="0" type="curve" smooth="yes"/>
    </contour>
    <contour>
      <point x="154" y="501" type="curve"/>
      <point x="154" y="596"/>
      <point x="171" y="665"/>
      <point x="171" y="687" type="curve"/>
      <point x="171" y="709"/>
      <point x="141" y="720"/>
      <point x="105" y="720" type="curve" smooth="yes"/>
      <point x="96" y="720" type="line"/>
      <point x="81" y="661"/>
      <point x="74" y="598"/>
      <point x="74" y="535" type="curve"/>
      <point x="74" y="508"/>
      <point x="93" y="499"/>
      <point x="129" y="499" type="curve" smooth="yes"/>
      <point x="139" y="499"/>
      <point x="148" y="500"/>
    </contour>
    <contour>
      <point x="300" y="711" type="move" name="top"/>
    </contour>
  </outline>
</glyph>
<glyph name="bracketleft" format="1">
  <advance width="600"/>
  <unicode hex="005B"/>
  <outline>
    <contour>
      <point x="204" y="647" type="curve" smooth="yes"/>
      <point x="204" y="-81" type="line" smooth="yes"/>
      <point x="204" y="-104"/>
      <point x="249" y="-108"/>
      <point x="289" y="-108" type="curve"/>
      <point x="289" y="711" type="line" smooth="yes"/>
      <point x="289" y="743"/>
      <point x="278" y="760"/>
      <point x="235" y="760" type="curve" smooth="yes"/>
      <point x="220" y="760"/>
      <point x="209" y="759"/>
      <point x="195" y="755" type="curve"/>
      <point x="202" y="720"/>
      <point x="204" y="685"/>
    </contour>
    <contour>
      <point x="509" y="679" type="line"/>
      <point x="512" y="687"/>
      <point x="513" y="697"/>
      <point x="513" y="707" type="curve" smooth="yes"/>
      <point x="513" y="720"/>
      <point x="510" y="741"/>
      <point x="499" y="753" type="curve" smooth="yes"/>
      <point x="494" y="758"/>
      <point x="489" y="760"/>
      <point x="480" y="760" type="curve" smooth="yes"/>
      <point x="235" y="760" type="line"/>
      <point x="235" y="711"/>
      <point x="255" y="679"/>
      <point x="331" y="679" type="curve"/>
    </contour>
    <contour>
      <point x="512" y="-161" type="line"/>
      <point x="513" y="-154"/>
      <point x="513" y="-145"/>
      <point x="513" y="-136" type="curve" smooth="yes"/>
      <point x="513" y="-97"/>
      <point x="502" y="-80"/>
      <point x="478" y="-80" type="curve" smooth="yes"/>
      <point x="204" y="-80" type="line"/>
      <point x="204" y="-92" type="line" smooth="yes"/>
      <point x="204" y="-124"/>
      <point x="233" y="-161"/>
      <point x="259" y="-161" type="curve" smooth="yes"/>
    </contour>
  </outline>
</glyph>
<glyph name="backslash" format="1">
  <advance width="600"/>
  <unicode hex="005C"/>
  <outline>
    <contour>
      <point x="78" y="750" type="curve"/>
      <point x="154" y="431"/>
      <point x="266" y="149"/>
      <point x="412" y="-95" type="curve" smooth="yes"/>
      <point x="431" y="-126"/>
      <point x="454" y="-138"/>
      <point x="485" y="-138" type="curve" smooth="yes"/>
      <point x="503" y="-138"/>
      <point x="517" y="-134"/>
      <point x="532" y="-127" type="curve"/>
      <point x="512" y="-106"/>
      <point x="497" y="-84"/>
      <point x="479" y="-52" type="curve"/>
      <point x="345" y="184"/>
      <point x="244" y="444"/>
      <point x="175" y="725" type="curve"/>
      <point x="169" y="751"/>
      <point x="145" y="760"/>
      <point x="117" y="760" type="curve" smooth="yes"/>
      <point x="102" y="760"/>
      <point x="91" y="757"/>
    </contour>
  </outline>
</glyph>
<glyph name="bracketright" format="1">
  <advance width="600"/>
  <unicode hex="005D"/>
  <outline>
    <contour>
      <point x="396" y="-48" type="curve" smooth="yes"/>
      <point x="396" y="680" type="line" smooth="yes"/>
      <point x="396" y="703"/>
      <point x="351" y="707"/>
      <point x="311" y="707" type="curve"/>
      <point x="311" y="-112" type="line" smooth="yes"/>
      <point x="311" y="-144"/>
      <point x="322" y="-161"/>
      <point x="365" y="-161" type="curve" smooth="yes"/>
      <point x="380" y="-161"/>
      <point x="391" y="-160"/>
      <point x="405" y="-156" type="curve"/>
      <point x="398" y="-121"/>
      <point x="396" y="-86"/>
    </contour>
    <contour>
      <point x="91" y="-80" type="line"/>
      <point x="88" y="-88"/>
      <point x="87" y="-98"/>
      <point x="87" y="-108" type="curve" smooth="yes"/>
      <point x="87" y="-121"/>
      <point x="90" y="-142"/>
      <point x="101" y="-154" type="curve" smooth="yes"/>
      <point x="106" y="-159"/>
      <point x="111" y="-161"/>
      <point x="120" y="-161" type="curve" smooth="yes"/>
      <point x="365" y="-161" type="line"/>
      <point x="365" y="-112"/>
      <point x="345" y="-80"/>
      <point x="269" y="-80" type="curve"/>
    </contour>
    <contour>
      <point x="88" y="760" type="line"/>
      <point x="87" y="753"/>
      <point x="87" y="744"/>
      <point x="87" y="735" type="curve" smooth="yes"/>
      <point x="87" y="696"/>
      <point x="98" y="679"/>
      <point x="122" y="679" type="curve" smooth="yes"/>
      <point x="396" y="679" type="line"/>
      <point x="396" y="691" type="line" smooth="yes"/>
      <point x="396" y="723"/>
      <point x="367" y="760"/>
      <point x="341" y="760" type="curve" smooth="yes"/>
    </contour>
  </outline>
</glyph>
<glyph name="asciicircum" format="1">
  <advance width="600"/>
  <unicode hex="005E"/>
  <outline>
    <contour>
      <point x="136" y="369" type="line"/>
      <point x="175" y="532"/>
      <point x="225" y="608"/>
      <point x="321" y="708" type="curve"/>
      <point x="327" y="739"/>
      <point x="317" y="755"/>
      <point x="297" y="760" type="curve"/>
      <point x="270" y="760" type="line"/>
      <point x="192" y="692"/>
      <point x="128" y="599"/>
      <point x="83" y="476" type="curve" smooth="yes"/>
      <point x="69" y="437"/>
      <point x="62" y="411"/>
      <point x="62" y="400" type="curve" smooth="yes"/>
      <point x="62" y="382"/>
      <point x="89" y="369"/>
      <point x="124" y="369" type="curve"/>
    </contour>
    <contour>
      <point x="531" y="375" type="curve"/>
      <point x="488" y="553"/>
      <point x="432" y="642"/>
      <point x="352" y="730" type="curve" smooth="yes"/>
      <point x="331" y="754"/>
      <point x="319" y="760"/>
      <point x="301" y="760" type="curve" smooth="yes"/>
      <point x="293" y="760" type="line" smooth="yes"/>
      <point x="277" y="760"/>
      <point x="256" y="734"/>
      <point x="246" y="710" type="curve"/>
      <point x="251" y="710"/>
      <point x="255" y="710"/>
      <point x="257" y="710" type="curve" smooth="yes"/>
      <point x="262" y="710"/>
      <point x="268" y="707"/>
      <point x="273" y="701" type="curve" smooth="yes"/>
      <point x="365" y="608"/>
      <point x="400" y="547"/>
      <point x="444" y="395" type="curve" smooth="yes"/>
      <point x="449" y="380"/>
      <point x="470" y="370"/>
      <point x="500" y="370" type="curve" smooth="yes"/>
      <point x="512" y="370"/>
      <point x="521" y="372"/>
    </contour>
  </outline>
</glyph>
<glyph name="underscore" format="1">
  <advance width="600"/>
  <unicode hex="005F"/>
  <outline>
    <contour>
      <point x="57" y="-84" type="line"/>
      <point x="57" y="-88"/>
      <point x="57" y="-93"/>
      <point x="57" y="-97" type="curve" smooth="yes"/>
      <point x="57" y="-127"/>
      <point x="61" y="-145"/>
      <point x="73" y="-156" type="curve" smooth="yes"/>
      <point x="79" y="-163"/>
      <point x="88" y="-166"/>
      <point x="106" y="-166" type="curve"/>
      <point x="545" y="-166" type="line"/>
      <point x="546" y="-157"/>
      <point x="547" y="-147"/>
      <point x="547" y="-139" type="curve" smooth="yes"/>
      <point x="547" y="-103"/>
      <point x="538" y="-84"/>
      <point x="508" y="-84" type="curve"/>
    </contour>
  </outline>
</glyph>
<glyph name="grave" format="1">
  <advance width="600"/>
  <unicode hex="0060"/>
  <outline>
    <contour>
      <point x="412" y="410" type="curve"/>
      <point x="356" y="498"/>
      <point x="320" y="595"/>
      <point x="303" y="712" type="curve"/>
      <point x="287" y="718"/>
      <point x="275" y="720"/>
      <point x="257" y="720" type="curve" smooth="yes"/>
      <point x="218" y="720"/>
      <point x="187" y="710"/>
      <point x="187" y="672" type="curve" smooth="yes"/>
      <point x="187" y="602"/>
      <point x="264" y="451"/>
      <point x="319" y="402" type="curve" smooth="yes"/>
      <point x="327" y="394"/>
      <point x="335" y="391"/>
      <point x="349" y="391" type="curve" smooth="yes"/>
      <point x="375" y="391"/>
      <point x="393" y="397"/>
    </contour>
  </outline>
</glyph>
<glyph name="a" format="1">
  <advance width="600"/>
  <unicode hex="0061"/>
  <outline>
    <contour>
      <point x="283" y="540" type="curve" smooth="yes"/>
      <point x="209" y="540"/>
      <point x="142" y="530"/>
      <point x="122" y="510" type="curve" smooth="yes"/>
      <point x="110" y="498"/>
      <point x="106" y="480"/>
      <point x="106" y="461" type="curve" smooth="yes"/>
      <point x="106" y="451"/>
      <point x="107" y="442"/>
      <point x="110" y="436" type="curve"/>
      <point x="114" y="436" type="line"/>
      <point x="156" y="452"/>
      <point x="207" y="461"/>
      <point x="265" y="461" type="curve" smooth="yes"/>
      <point x="389" y="461"/>
      <point x="428" y="419"/>
      <point x="451" y="318" type="curve"/>
      <point x="475" y="318"/>
      <point x="487" y="328"/>
      <point x="487" y="352" type="curve"/>
      <point x="487" y="461"/>
      <point x="404" y="540"/>
    </contour>
    <contour>
      <point x="362" y="475" type="curve"/>
      <point x="394" y="435"/>
      <point x="405" y="404"/>
      <point x="405" y="348" type="curve" smooth="yes"/>
      <point x="405" y="252"/>
      <point x="405" y="192"/>
      <point x="405" y="118" type="curve" smooth="yes"/>
      <point x="405" y="46"/>
      <point x="449" y="28"/>
      <point x="500" y="41" type="curve"/>
      <point x="489" y="62"/>
      <point x="487" y="78"/>
      <point x="487" y="106" type="curve" smooth="yes"/>
      <point x="487" y="199"/>
      <point x="487" y="244"/>
      <point x="487" y="352" type="curve" smooth="yes"/>
      <point x="487" y="419"/>
      <point x="425" y="489"/>
    </contour>
    <contour>
      <point x="559" y="78" type="line"/>
      <point x="555" y="78" type="line"/>
      <point x="546" y="74"/>
      <point x="535" y="71"/>
      <point x="523" y="71" type="curve" smooth="yes"/>
      <point x="498" y="71"/>
      <point x="475" y="79"/>
      <point x="467" y="148" type="curve"/>
      <point x="422" y="149"/>
      <point x="405" y="141"/>
      <point x="405" y="118" type="curve" smooth="yes"/>
      <point x="405" y="39"/>
      <point x="444" y="-10"/>
      <point x="509" y="-10" type="curve" smooth="yes"/>
      <point x="512" y="-10" type="line" smooth="yes"/>
      <point x="548" y="-10"/>
      <point x="559" y="31"/>
      <point x="559" y="68" type="curve"/>
    </contour>
    <contour>
      <point x="157" y="141" type="curve" smooth="yes"/>
      <point x="157" y="144" type="line" smooth="yes"/>
      <point x="157" y="197"/>
      <point x="179" y="221"/>
      <point x="199" y="241" type="curve"/>
      <point x="142" y="258"/>
      <point x="76" y="188"/>
      <point x="76" y="140" type="curve" smooth="yes"/>
      <point x="76" y="134" type="line" smooth="yes"/>
      <point x="76" y="41"/>
      <point x="131" y="-10"/>
      <point x="226" y="-10" type="curve" smooth="yes"/>
      <point x="314" y="-10"/>
      <point x="381" y="37"/>
      <point x="419" y="98" type="curve" smooth="yes"/>
      <point x="433" y="121"/>
      <point x="432" y="142"/>
      <point x="428" y="174" type="curve"/>
      <point x="365" y="95"/>
      <point x="300" y="67"/>
      <point x="245" y="67" type="curve" smooth="yes"/>
      <point x="242" y="67" type="line" smooth="yes"/>
      <point x="184" y="67"/>
      <point x="157" y="90"/>
    </contour>
    <contour>
      <point x="432" y="268" type="curve" smooth="yes"/>
      <point x="416" y="284"/>
      <point x="354" y="298"/>
      <point x="257" y="298" type="curve" smooth="yes"/>
      <point x="151" y="298"/>
      <point x="77" y="228"/>
      <point x="76" y="140" type="curve" smooth="yes"/>
      <point x="76" y="123"/>
      <point x="85" y="114"/>
      <point x="110" y="114" type="curve"/>
      <point x="137" y="196"/>
      <point x="183" y="234"/>
      <point x="279" y="234" type="curve" smooth="yes"/>
      <point x="333" y="234"/>
      <point x="390" y="229"/>
      <point x="446" y="216" type="curve"/>
      <point x="446" y="243"/>
      <point x="442" y="258"/>
    </contour>
    <contour>
      <point x="286" y="541" type="move" name="top"/>
    </contour>
    <contour>
      <point x="528" y="7" type="move" name="ogonek"/>
    </contour>
    <contour>
      <point x="317" y="-1" type="move" name="bottom"/>
    </contour>
  </outline>
</glyph>
<glyph name="b" format="1">
  <advance width="600"/>
  <unicode hex="0062"/>
  <outline>
    <contour>
      <point x="96" y="0" type="line"/>
      <point x="103" y="-3"/>
      <point x="113" y="-5"/>
      <point x="126" y="-5" type="curve" smooth="yes"/>
      <point x="162" y="-5"/>
      <point x="177" y="15"/>
      <point x="177" y="47" type="curve" smooth="yes"/>
      <point x="177" y="670" type="line"/>
      <point x="177" y="732"/>
      <point x="160" y="759"/>
      <point x="114" y="759" type="curve" smooth="yes"/>
      <point x="103" y="759"/>
      <point x="94" y="758"/>
      <point x="82" y="753" type="curve"/>
      <point x="93" y="726"/>
      <point x="96" y="703"/>
      <point x="96" y="656" type="curve" smooth="yes"/>
    </contour>
    <contour>
      <point x="378" y="541" type="curve" smooth="yes"/>
      <point x="288" y="541"/>
      <point x="200" y="462"/>
      <point x="165" y="352" type="curve" smooth="yes"/>
      <point x="153" y="313"/>
      <point x="156" y="270"/>
      <point x="169" y="242" type="curve"/>
      <point x="231" y="401"/>
      <point x="297" y="456"/>
      <point x="376" y="456" type="curve" smooth="yes"/>
      <point x="425" y="456"/>
      <point x="468" y="407"/>
      <point x="493" y="318" type="curve"/>
      <point x="525" y="320"/>
      <point x="536" y="327"/>
      <point x="536" y="335" type="curve" smooth="yes"/>
      <point x="536" y="457"/>
      <point x="471" y="541"/>
    </contour>
    <contour>
      <point x="320" y="-11" type="curve" smooth="yes"/>
      <point x="446" y="-11"/>
      <point x="536" y="88"/>
      <point x="536" y="317" type="curve" smooth="yes"/>
      <point x="536" y="335" type="line" smooth="yes"/>
      <point x="536" y="388"/>
      <point x="500" y="470"/>
      <point x="454" y="470" type="curve"/>
      <point x="439" y="470"/>
      <point x="429" y="464"/>
      <point x="427" y="447" type="curve"/>
      <point x="449" y="407"/>
      <point x="453" y="372"/>
      <point x="453" y="320" type="curve" smooth="yes"/>
      <point x="453" y="310" type="line" smooth="yes"/>
      <point x="453" y="151"/>
      <point x="406" y="69"/>
      <point x="307" y="69" type="curve" smooth="yes"/>
      <point x="245" y="69"/>
      <point x="211" y="93"/>
      <point x="167" y="142" type="curve"/>
      <point x="159" y="132"/>
      <point x="156" y="108"/>
      <point x="162" y="94" type="curve" smooth="yes"/>
      <point x="170" y="45"/>
      <point x="239" y="-11"/>
    </contour>
  </outline>
</glyph>
<glyph name="e" format="1">
  <advance width="600"/>
  <unicode hex="0065"/>
  <outline>
    <contour>
      <point x="340" y="464" type="curve" smooth="yes"/>
      <point x="390" y="464"/>
      <point x="409" y="452"/>
      <point x="447" y="427" type="curve"/>
      <point x="458" y="439"/>
      <point x="462" y="452"/>
      <point x="462" y="464" type="curve"/>
      <point x="462" y="503"/>
      <point x="412" y="541"/>
      <point x="339" y="541" type="curve"/>
      <point x="197" y="541"/>
      <point x="74" y="449"/>
      <point x="74" y="239" type="curve" smooth="yes"/>
      <point x="74" y="226" type="line" smooth="yes"/>
      <point x="74" y="70"/>
      <point x="183" y="-12"/>
      <point x="326" y="-13" type="curve" smooth="yes"/>
      <point x="352" y="-13"/>
      <point x="363" y="14"/>
      <point x="364" y="36" type="curve"/>
      <point x="213" y="36"/>
      <point x="154" y="117"/>
      <point x="154" y="212" type="curve" smooth="yes"/>
      <point x="154" y="225" type="line" smooth="yes"/>
      <point x="154" y="386"/>
      <point x="226" y="464"/>
    </contour>
    <contour>
      <point x="499" y="36" type="curve" smooth="yes"/>
      <point x="513" y="50"/>
      <point x="518" y="82"/>
      <point x="518" y="105" type="curve" smooth="yes"/>
      <point x="518" y="114"/>
      <point x="517" y="122"/>
      <point x="516" y="129" type="curve"/>
      <point x="512" y="129" type="line"/>
      <point x="460" y="85"/>
      <point x="409" y="65"/>
      <point x="323" y="65" type="curve" smooth="yes"/>
      <point x="228" y="65"/>
      <point x="189" y="94"/>
      <point x="130" y="147" type="curve"/>
      <point x="94" y="68"/>
      <point x="223" y="-13"/>
      <point x="326" y="-13" type="curve" smooth="yes"/>
      <point x="403" y="-13"/>
      <point x="473" y="10"/>
    </contour>
    <contour>
      <point x="310" y="205" type="line" smooth="yes"/>
      <point x="481" y="205"/>
      <point x="526" y="276"/>
      <point x="526" y="366" type="curve" smooth="yes"/>
      <point x="526" y="370" type="line" smooth="yes"/>
      <point x="526" y="461"/>
      <point x="460" y="541"/>
      <point x="339" y="541" type="curve" smooth="yes"/>
      <point x="322" y="541"/>
      <point x="311" y="519"/>
      <point x="311" y="487" type="curve"/>
      <point x="399" y="487"/>
      <point x="442" y="450"/>
      <point x="442" y="371" type="curve" smooth="yes"/>
      <point x="442" y="367" type="line" smooth="yes"/>
      <point x="442" y="306"/>
      <point x="406" y="268"/>
      <point x="300" y="268" type="curve" smooth="yes"/>
      <point x="207" y="268"/>
      <point x="173" y="277"/>
      <point x="136" y="293" type="curve"/>
      <point x="131" y="264"/>
      <point x="133" y="248"/>
      <point x="145" y="236" type="curve" smooth="yes"/>
      <point x="164" y="217"/>
      <point x="225" y="205"/>
      <point x="303" y="205" type="curve" smooth="yes"/>
    </contour>
    <contour>
      <point x="323" y="541" type="move" name="top"/>
    </contour>
    <contour>
      <point x="500" y="35" type="move" name="ogonek"/>
    </contour>
    <contour>
      <point x="300" y="-1" type="move" name="bottom"/>
    </contour>
  </outline>
</glyph>
<glyph name="h" format="1">
  <advance width="600"/>
  <unicode hex="0068"/>
  <outline>
    <contour>
      <point x="173" y="-3" type="curve"/>
      <point x="173" y="664" type="line" smooth="yes"/>
      <point x="173" y="701"/>
      <point x="169" y="725"/>
      <point x="154" y="739" type="curve" smooth="yes"/>
      <point x="140" y="753"/>
      <point x="124" y="757"/>
      <point x="102" y="757" type="curve" smooth="yes"/>
      <point x="94" y="757"/>
      <point x="86" y="756"/>
      <point x="79" y="754" type="curve"/>
      <point x="88" y="724"/>
      <point x="90" y="706"/>
      <point x="90" y="661" type="curve" smooth="yes"/>
      <point x="90" y="30" type="line" smooth="yes"/>
      <point x="90" y="1"/>
      <point x="116" y="-5"/>
      <point x="149" y="-5" type="curve" smooth="yes"/>
      <point x="158" y="-5"/>
      <point x="166" y="-5"/>
    </contour>
    <contour>
      <point x="389" y="542" type="curve" smooth="yes"/>
      <point x="299" y="542"/>
      <point x="213" y="449"/>
      <point x="164" y="333" type="curve" smooth="yes"/>
      <point x="148" y="285"/>
      <point x="147" y="235"/>
      <point x="164" y="190" type="curve"/>
      <point x="209" y="353"/>
      <point x="291" y="455"/>
      <point x="371" y="455" type="curve" smooth="yes"/>
      <point x="413" y="455"/>
      <point x="439" y="421"/>
      <point x="450" y="354" type="curve"/>
      <point x="494" y="355"/>
      <point x="509" y="374"/>
      <point x="509" y="393" type="curve" smooth="yes"/>
      <point x="509" y="469"/>
      <point x="462" y="542"/>
    </contour>
    <contour>
      <point x="523" y="0" type="curve"/>
      <point x="512" y="48"/>
      <point x="509" y="83"/>
      <point x="509" y="135" type="curve" smooth="yes"/>
      <point x="509" y="393" type="line"/>
      <point x="509" y="425"/>
      <point x="490" y="443"/>
      <point x="442" y="442" type="curve"/>
      <point x="429" y="299"/>
      <point x="421" y="232"/>
      <point x="421" y="135" type="curve" smooth="yes"/>
      <point x="421" y="130" type="line" smooth="yes"/>
      <point x="421" y="24"/>
      <point x="452" y="-3"/>
      <point x="497" y="-3" type="curve" smooth="yes"/>
      <point x="507" y="-3"/>
      <point x="515" y="-2"/>
    </contour>
    <contour>
      <point x="128" y="730" type="move" name="top"/>
    </contour>
  </outline>
</glyph>
<glyph name="i" format="1">
  <advance width="600"/>
  <unicode hex="0069"/>
  <outline>
    <contour>
      <point x="71" y="530" type="curve"/>
      <point x="68" y="522"/>
      <point x="67" y="512"/>
      <point x="67" y="500" type="curve" smooth="yes"/>
      <point x="67" y="469"/>
      <point x="78" y="449"/>
      <point x="96" y="449" type="curve" smooth="yes"/>
      <point x="124" y="449"/>
      <point x="186" y="458"/>
      <point x="304" y="471" type="curve"/>
      <point x="304" y="520"/>
      <point x="298" y="540"/>
      <point x="274" y="540" type="curve" smooth="yes"/>
      <point x="213" y="540"/>
      <point x="150" y="537"/>
    </contour>
    <contour>
      <point x="347" y="523" type="curve" smooth="yes"/>
      <point x="335" y="535"/>
      <point x="313" y="540"/>
      <point x="284" y="540" type="curve" smooth="yes"/>
      <point x="274" y="540" type="line"/>
      <point x="274" y="144" type="line" smooth="yes"/>
      <point x="274" y="73"/>
      <point x="297" y="41"/>
      <point x="356" y="41" type="curve"/>
      <point x="356" y="502" type="line" smooth="yes"/>
      <point x="356" y="512"/>
      <point x="353" y="517"/>
    </contour>
    <contour>
      <point x="59" y="81" type="line"/>
      <point x="58" y="77"/>
      <point x="57" y="71"/>
      <point x="57" y="64" type="curve" smooth="yes"/>
      <point x="57" y="38"/>
      <point x="61" y="22"/>
      <point x="71" y="11" type="curve" smooth="yes"/>
      <point x="79" y="3"/>
      <point x="89" y="0"/>
      <point x="110" y="0" type="curve"/>
      <point x="558" y="0" type="line"/>
      <point x="560" y="6"/>
      <point x="561" y="13"/>
      <point x="561" y="19" type="curve" smooth="yes"/>
      <point x="561" y="54"/>
      <point x="474" y="81"/>
      <point x="345" y="81" type="curve"/>
    </contour>
    <contour>
      <point x="367" y="653" type="curve"/>
      <point x="367" y="715" type="line" smooth="yes"/>
      <point x="367" y="747"/>
      <point x="340" y="758"/>
      <point x="298" y="758" type="curve" smooth="yes"/>
      <point x="283" y="758"/>
      <point x="267" y="757"/>
      <point x="253" y="754" type="curve"/>
      <point x="253" y="693" type="line" smooth="yes"/>
      <point x="253" y="661"/>
      <point x="282" y="649"/>
      <point x="322" y="649" type="curve" smooth="yes"/>
      <point x="338" y="649"/>
      <point x="354" y="651"/>
    </contour>
    <contour>
      <point x="559" y="0" type="move" name="ogonek"/>
    </contour>
    <contour>
      <point x="309" y="-1" type="move" name="bottom"/>
    </contour>
  </outline>
</glyph>
<glyph name="j" format="1">
  <advance width="600"/>
  <unicode hex="006A"/>
  <outline>
    <contour>
      <point x="71" y="530" type="curve"/>
      <point x="68" y="522"/>
      <point x="67" y="512"/>
      <point x="67" y="500" type="curve" smooth="yes"/>
      <point x="67" y="466"/>
      <point x="79" y="448"/>
      <point x="98" y="448" type="curve" smooth="yes"/>
      <point x="133" y="448"/>
      <point x="223" y="457"/>
      <point x="381" y="465" type="curve"/>
      <point x="381" y="515"/>
      <point x="374" y="540"/>
      <point x="352" y="540" type="curve" smooth="yes"/>
      <point x="275" y="540"/>
      <point x="175" y="539"/>
    </contour>
    <contour>
      <point x="433" y="-2" type="curve" smooth="yes"/>
      <point x="433" y="502" type="line" smooth="yes"/>
      <point x="433" y="512"/>
      <point x="431" y="517"/>
      <point x="424" y="523" type="curve" smooth="yes"/>
      <point x="412" y="535"/>
      <point x="386" y="540"/>
      <point x="358" y="540" type="curve" smooth="yes"/>
      <point x="352" y="540" type="line"/>
      <point x="352" y="0" type="line" smooth="yes"/>
      <point x="352" y="-106"/>
      <point x="337" y="-137"/>
      <point x="284" y="-188" type="curve"/>
      <point x="329" y="-225"/>
      <point x="433" y="-122"/>
    </contour>
    <contour>
      <point x="206" y="-169" type="curve" smooth="yes"/>
      <point x="135" y="-169"/>
      <point x="97" y="-160"/>
      <point x="47" y="-131" type="curve"/>
      <point x="43" y="-131" type="line"/>
      <point x="42" y="-139"/>
      <point x="41" y="-149"/>
      <point x="41" y="-158" type="curve" smooth="yes"/>
      <point x="41" y="-181"/>
      <point x="46" y="-203"/>
      <point x="57" y="-215" type="curve" smooth="yes"/>
      <point x="78" y="-235"/>
      <point x="130" y="-250"/>
      <point x="203" y="-250" type="curve" smooth="yes"/>
      <point x="354" y="-250"/>
      <point x="433" y="-165"/>
      <point x="433" y="-2" type="curve" smooth="yes"/>
      <point x="433" y="6"/>
      <point x="415" y="20"/>
      <point x="404" y="20" type="curve"/>
      <point x="381" y="-147"/>
      <point x="288" y="-169"/>
    </contour>
    <contour>
      <point x="443" y="653" type="curve"/>
      <point x="443" y="715" type="line" smooth="yes"/>
      <point x="443" y="747"/>
      <point x="416" y="758"/>
      <point x="375" y="758" type="curve" smooth="yes"/>
      <point x="359" y="758"/>
      <point x="343" y="757"/>
      <point x="330" y="754" type="curve"/>
      <point x="330" y="693" type="line" smooth="yes"/>
      <point x="330" y="661"/>
      <point x="358" y="649"/>
      <point x="398" y="649" type="curve" smooth="yes"/>
      <point x="414" y="649"/>
      <point x="430" y="651"/>
    </contour>
  </outline>
</glyph>
<glyph name="l" format="1">
  <advance width="600"/>
  <unicode hex="006C"/>
  <outline>
    <contour>
      <point x="71" y="750" type="curve"/>
      <point x="68" y="742"/>
      <point x="67" y="731"/>
      <point x="67" y="719" type="curve" smooth="yes"/>
      <point x="67" y="688"/>
      <point x="78" y="669"/>
      <point x="96" y="669" type="curve" smooth="yes"/>
      <point x="124" y="669"/>
      <point x="186" y="678"/>
      <point x="304" y="691" type="curve"/>
      <point x="304" y="740"/>
      <point x="298" y="760"/>
      <point x="274" y="760" type="curve" smooth="yes"/>
      <point x="213" y="760"/>
      <point x="150" y="757"/>
    </contour>
    <contour>
      <point x="347" y="742" type="curve" smooth="yes"/>
      <point x="335" y="754"/>
      <point x="313" y="760"/>
      <point x="284" y="760" type="curve" smooth="yes"/>
      <point x="274" y="760" type="line"/>
      <point x="274" y="144" type="line" smooth="yes"/>
      <point x="274" y="73"/>
      <point x="297" y="41"/>
      <point x="356" y="41" type="curve"/>
      <point x="356" y="722" type="line" smooth="yes"/>
      <point x="356" y="731"/>
      <point x="353" y="736"/>
    </contour>
    <contour>
      <point x="59" y="81" type="line"/>
      <point x="58" y="77"/>
      <point x="57" y="71"/>
      <point x="57" y="64" type="curve" smooth="yes"/>
      <point x="57" y="38"/>
      <point x="61" y="22"/>
      <point x="71" y="11" type="curve" smooth="yes"/>
      <point x="79" y="3"/>
      <point x="89" y="0"/>
      <point x="110" y="0" type="curve"/>
      <point x="558" y="0" type="line"/>
      <point x="560" y="6"/>
      <point x="561" y="13"/>
      <point x="561" y="19" type="curve" smooth="yes"/>
      <point x="561" y="54"/>
      <point x="474" y="81"/>
      <point x="345" y="81" type="curve"/>
    </contour>
    <contour>
      <point x="510" y="670" type="move" name="caronslovak"/>
    </contour>
    <contour>
      <point x="313" y="740" type="move" name="top"/>
    </contour>
    <contour>
      <point x="474" y="400" type="move" name="dot"/>
    </contour>
    <contour>
      <point x="309" y="-1" type="move" name="bottom"/>
    </contour>
  </outline>
</glyph>
<glyph name="m" format="1">
  <advance width="600"/>
  <unicode hex="006D"/>
  <outline>
    <contour>
      <point x="125" y="-4" type="curve"/>
      <point x="125" y="443" type="line" smooth="yes"/>
      <point x="125" y="487"/>
      <point x="120" y="507"/>
      <point x="107" y="520" type="curve" smooth="yes"/>
      <point x="94" y="533"/>
      <point x="76" y="536"/>
      <point x="59" y="536" type="curve" smooth="yes"/>
      <point x="52" y="536"/>
      <point x="43" y="535"/>
      <point x="35" y="532" type="curve"/>
      <point x="44" y="503"/>
      <point x="47" y="484"/>
      <point x="47" y="439" type="curve" smooth="yes"/>
      <point x="47" y="29" type="line" smooth="yes"/>
      <point x="47" y="0"/>
      <point x="67" y="-6"/>
      <point x="100" y="-6" type="curve" smooth="yes"/>
      <point x="109" y="-6"/>
      <point x="118" y="-5"/>
    </contour>
    <contour>
      <point x="245" y="540" type="curve" smooth="yes"/>
      <point x="189" y="540"/>
      <point x="139" y="491"/>
      <point x="106" y="388" type="curve" smooth="yes"/>
      <point x="97" y="360"/>
      <point x="102" y="334"/>
      <point x="112" y="310" type="curve"/>
      <point x="157" y="425"/>
      <point x="192" y="458"/>
      <point x="234" y="458" type="curve" smooth="yes"/>
      <point x="263" y="458"/>
      <point x="277" y="442"/>
      <point x="285" y="402" type="curve"/>
      <point x="318" y="408"/>
      <point x="331" y="416"/>
      <point x="331" y="434" type="curve" smooth="yes"/>
      <point x="331" y="484"/>
      <point x="300" y="540"/>
    </contour>
    <contour>
      <point x="331" y="0" type="curve"/>
      <point x="331" y="434" type="line" smooth="yes"/>
      <point x="331" y="468"/>
      <point x="317" y="482"/>
      <point x="283" y="477" type="curve"/>
      <point x="270" y="313"/>
      <point x="266" y="216"/>
      <point x="266" y="117" type="curve" smooth="yes"/>
      <point x="266" y="112" type="line" smooth="yes"/>
      <point x="266" y="19"/>
      <point x="285" y="-3"/>
      <point x="317" y="-3" type="curve" smooth="yes"/>
      <point x="322" y="-3"/>
      <point x="327" y="-2"/>
    </contour>
    <contour>
      <point x="462" y="541" type="curve" smooth="yes"/>
      <point x="402" y="541"/>
      <point x="338" y="476"/>
      <point x="308" y="394" type="curve" smooth="yes"/>
      <point x="296" y="362"/>
      <point x="298" y="337"/>
      <point x="316" y="317" type="curve"/>
      <point x="349" y="402"/>
      <point x="397" y="458"/>
      <point x="442" y="458" type="curve" smooth="yes"/>
      <point x="474" y="458"/>
      <point x="486" y="438"/>
      <point x="494" y="394" type="curve"/>
      <point x="544" y="399"/>
      <point x="553" y="410"/>
      <point x="553" y="431" type="curve" smooth="yes"/>
      <point x="553" y="484"/>
      <point x="517" y="541"/>
    </contour>
    <contour>
      <point x="567" y="0" type="curve"/>
      <point x="556" y="48"/>
      <point x="553" y="83"/>
      <point x="553" y="135" type="curve" smooth="yes"/>
      <point x="553" y="431" type="line" smooth="yes"/>
      <point x="553" y="459"/>
      <point x="532" y="476"/>
      <point x="489" y="476" type="curve"/>
      <point x="476" y="325"/>
      <point x="470" y="226"/>
      <point x="470" y="128" type="curve" smooth="yes"/>
      <point x="470" y="123" type="line" smooth="yes"/>
      <point x="470" y="17"/>
      <point x="496" y="-3"/>
      <point x="538" y="-3" type="curve" smooth="yes"/>
      <point x="551" y="-3"/>
      <point x="559" y="-2"/>
    </contour>
  </outline>
</glyph>
<glyph name="n" format="1">
  <advance width="600"/>
  <unicode hex="006E"/>
  <outline>
    <contour>
      <point x="171" y="-3" type="curve"/>
      <point x="171" y="429" type="line" smooth="yes"/>
      <point x="171" y="472"/>
      <point x="165" y="500"/>
      <point x="147" y="518" type="curve" smooth="yes"/>
      <point x="133" y="533"/>
      <point x="117" y="536"/>
      <point x="100" y="536" type="curve" smooth="yes"/>
      <point x="92" y="536"/>
      <point x="85" y="535"/>
      <point x="77" y="533" type="curve"/>
      <point x="86" y="503"/>
      <point x="89" y="485"/>
      <point x="89" y="440" type="curve" smooth="yes"/>
      <point x="89" y="30" type="line" smooth="yes"/>
      <point x="89" y="1"/>
      <point x="114" y="-5"/>
      <point x="146" y="-5" type="curve" smooth="yes"/>
      <point x="156" y="-5"/>
      <point x="165" y="-5"/>
    </contour>
    <contour>
      <point x="389" y="542" type="curve" smooth="yes"/>
      <point x="298" y="542"/>
      <point x="210" y="450"/>
      <point x="161" y="334" type="curve" smooth="yes"/>
      <point x="145" y="285"/>
      <point x="144" y="240"/>
      <point x="162" y="192" type="curve"/>
      <point x="207" y="352"/>
      <point x="291" y="455"/>
      <point x="371" y="455" type="curve" smooth="yes"/>
      <point x="413" y="455"/>
      <point x="439" y="421"/>
      <point x="450" y="354" type="curve"/>
      <point x="494" y="355"/>
      <point x="509" y="374"/>
      <point x="509" y="393" type="curve" smooth="yes"/>
      <point x="509" y="469"/>
      <point x="462" y="542"/>
    </contour>
    <contour>
      <point x="523" y="0" type="curve"/>
      <point x="512" y="48"/>
      <point x="509" y="83"/>
      <point x="509" y="135" type="curve" smooth="yes"/>
      <point x="509" y="393" type="line"/>
      <point x="509" y="425"/>
      <point x="490" y="443"/>
      <point x="442" y="442" type="curve"/>
      <point x="429" y="299"/>
      <point x="421" y="232"/>
      <point x="421" y="135" type="curve" smooth="yes"/>
      <point x="421" y="130" type="line" smooth="yes"/>
      <point x="421" y="24"/>
      <point x="452" y="-3"/>
      <point x="497" y="-3" type="curve" smooth="yes"/>
      <point x="507" y="-3"/>
      <point x="515" y="-2"/>
    </contour>
    <contour>
      <point x="79" y="711" type="move" name="caronslovak"/>
    </contour>
    <contour>
      <point x="300" y="541" type="move" name="top"/>
    </contour>
    <contour>
      <point x="301" y="-1" type="move" name="bottom"/>
    </contour>
  </outline>
</glyph>
<glyph name="p" format="1">
  <advance width="600"/>
  <unicode hex="0070"/>
  <outline>
    <contour>
      <point x="177" y="-214" type="curve"/>
      <point x="177" y="418" type="line" smooth="yes"/>
      <point x="177" y="471"/>
      <point x="172" y="498"/>
      <point x="153" y="517" type="curve" smooth="yes"/>
      <point x="139" y="531"/>
      <point x="123" y="536"/>
      <point x="107" y="536" type="curve"/>
      <point x="99" y="536"/>
      <point x="92" y="535"/>
      <point x="84" y="532" type="curve"/>
      <point x="93" y="503"/>
      <point x="96" y="484"/>
      <point x="96" y="439" type="curve" smooth="yes"/>
      <point x="96" y="-182" type="line" smooth="yes"/>
      <point x="96" y="-211"/>
      <point x="120" y="-217"/>
      <point x="149" y="-217" type="curve"/>
      <point x="160" y="-217"/>
      <point x="170" y="-216"/>
    </contour>
    <contour>
      <point x="378" y="541" type="curve" smooth="yes"/>
      <point x="288" y="541"/>
      <point x="200" y="462"/>
      <point x="165" y="352" type="curve" smooth="yes"/>
      <point x="153" y="313"/>
      <point x="156" y="270"/>
      <point x="169" y="242" type="curve"/>
      <point x="231" y="401"/>
      <point x="297" y="456"/>
      <point x="376" y="456" type="curve" smooth="yes"/>
      <point x="425" y="456"/>
      <point x="468" y="407"/>
      <point x="493" y="318" type="curve"/>
      <point x="525" y="320"/>
      <point x="536" y="327"/>
      <point x="536" y="335" type="curve" smooth="yes"/>
      <point x="536" y="457"/>
      <point x="471" y="541"/>
    </contour>
    <contour>
      <point x="320" y="-11" type="curve" smooth="yes"/>
      <point x="446" y="-11"/>
      <point x="536" y="88"/>
      <point x="536" y="317" type="curve" smooth="yes"/>
      <point x="536" y="335" type="line" smooth="yes"/>
      <point x="536" y="388"/>
      <point x="500" y="470"/>
      <point x="454" y="470" type="curve" smooth="yes"/>
      <point x="439" y="470"/>
      <point x="429" y="464"/>
      <point x="427" y="447" type="curve"/>
      <point x="449" y="407"/>
      <point x="453" y="372"/>
      <point x="453" y="320" type="curve" smooth="yes"/>
      <point x="453" y="310" type="line" smooth="yes"/>
      <point x="453" y="151"/>
      <point x="406" y="69"/>
      <point x="307" y="69" type="curve" smooth="yes"/>
      <point x="245" y="69"/>
      <point x="211" y="93"/>
      <point x="167" y="142" type="curve"/>
      <point x="159" y="132"/>
      <point x="156" y="108"/>
      <point x="162" y="94" type="curve" smooth="yes"/>
      <point x="170" y="45"/>
      <point x="239" y="-11"/>
    </contour>
  </outline>
</glyph>
<glyph name="r" format="1">
  <advance width="600"/>
  <unicode hex="0072"/>
  <outline>
    <contour>
      <point x="63" y="530" type="curve"/>
      <point x="60" y="518"/>
      <point x="58" y="508"/>
      <point x="58" y="495" type="curve" smooth="yes"/>
      <point x="58" y="466"/>
      <point x="69" y="449"/>
      <point x="87" y="449" type="curve" smooth="yes"/>
      <point x="112" y="449"/>
      <point x="147" y="463"/>
      <point x="246" y="463" type="curve"/>
      <point x="246" y="519"/>
      <point x="238" y="540"/>
      <point x="217" y="540" type="curve" smooth="yes"/>
      <point x="159" y="540"/>
      <point x="119" y="537"/>
    </contour>
    <contour>
      <point x="282" y="41" type="curve"/>
      <point x="282" y="450" type="line" smooth="yes"/>
      <point x="282" y="504"/>
      <point x="255" y="540"/>
      <point x="217" y="540" type="curve" smooth="yes"/>
      <point x="211" y="540"/>
      <point x="206" y="539"/>
      <point x="201" y="535" type="curve"/>
      <point x="201" y="140" type="line" smooth="yes"/>
      <point x="201" y="73"/>
      <point x="225" y="41"/>
    </contour>
    <contour>
      <point x="59" y="81" type="line"/>
      <point x="58" y="77"/>
      <point x="57" y="71"/>
      <point x="57" y="64" type="curve" smooth="yes"/>
      <point x="57" y="38"/>
      <point x="61" y="22"/>
      <point x="71" y="11" type="curve" smooth="yes"/>
      <point x="79" y="3"/>
      <point x="89" y="0"/>
      <point x="110" y="0" type="curve"/>
      <point x="485" y="0" type="line"/>
      <point x="486" y="6"/>
      <point x="487" y="13"/>
      <point x="487" y="19" type="curve" smooth="yes"/>
      <point x="487" y="52"/>
      <point x="394" y="81"/>
      <point x="286" y="81" type="curve"/>
    </contour>
    <contour>
      <point x="275" y="223" type="curve"/>
      <point x="321" y="385"/>
      <point x="399" y="451"/>
      <point x="473" y="451" type="curve" smooth="yes"/>
      <point x="505" y="451"/>
      <point x="524" y="446"/>
      <point x="544" y="434" type="curve"/>
      <point x="548" y="434" type="line"/>
      <point x="553" y="448"/>
      <point x="556" y="465"/>
      <point x="556" y="484" type="curve"/>
      <point x="556" y="529"/>
      <point x="536" y="546"/>
      <point x="492" y="546" type="curve" smooth="yes"/>
      <point x="489" y="546" type="line" smooth="yes"/>
      <point x="394" y="546"/>
      <point x="302" y="465"/>
      <point x="266" y="328" type="curve" smooth="yes"/>
      <point x="256" y="294"/>
      <point x="261" y="260"/>
    </contour>
    <contour>
      <point x="305" y="541" type="move" name="top"/>
    </contour>
    <contour>
      <point x="305" y="-1" type="move" name="bottom"/>
    </contour>
  </outline>
</glyph>
<glyph name="s" format="1">
  <advance width="600"/>
  <unicode hex="0073"/>
  <outline>
    <contour>
      <point x="365" y="543" type="curve" smooth="yes"/>
      <point x="358" y="543" type="line" smooth="yes"/>
      <point x="219" y="543"/>
      <point x="99" y="466"/>
      <point x="99" y="365" type="curve" smooth="yes"/>
      <point x="99" y="327"/>
      <point x="153" y="316"/>
      <point x="190" y="316" type="curve"/>
      <point x="182" y="339"/>
      <point x="180" y="354"/>
      <point x="180" y="368" type="curve" smooth="yes"/>
      <point x="180" y="418"/>
      <point x="258" y="462"/>
      <point x="358" y="462" type="curve" smooth="yes"/>
      <point x="420" y="462"/>
      <point x="456" y="454"/>
      <point x="486" y="437" type="curve"/>
      <point x="490" y="437" type="line"/>
      <point x="493" y="445"/>
      <point x="494" y="452"/>
      <point x="494" y="460" type="curve"/>
      <point x="494" y="488"/>
      <point x="491" y="505"/>
      <point x="475" y="521" type="curve" smooth="yes"/>
      <point x="460" y="536"/>
      <point x="419" y="543"/>
    </contour>
    <contour>
      <point x="375" y="283" type="curve" smooth="yes"/>
      <point x="283" y="301" type="line" smooth="yes"/>
      <point x="193" y="319"/>
      <point x="180" y="343"/>
      <point x="180" y="368" type="curve" smooth="yes"/>
      <point x="180" y="380"/>
      <point x="181" y="398"/>
      <point x="190" y="421" type="curve"/>
      <point x="134" y="408"/>
      <point x="99" y="391"/>
      <point x="99" y="365" type="curve"/>
      <point x="99" y="299"/>
      <point x="138" y="260"/>
      <point x="246" y="238" type="curve" smooth="yes"/>
      <point x="346" y="217" type="line" smooth="yes"/>
      <point x="427" y="201"/>
      <point x="446" y="173"/>
      <point x="446" y="126" type="curve" smooth="yes"/>
      <point x="446" y="116"/>
      <point x="444" y="106"/>
      <point x="440" y="99" type="curve"/>
      <point x="491" y="103"/>
      <point x="518" y="129"/>
      <point x="518" y="149" type="curve" smooth="yes"/>
      <point x="518" y="211"/>
      <point x="477" y="264"/>
    </contour>
    <contour>
      <point x="300" y="71" type="curve" smooth="yes"/>
      <point x="192" y="71"/>
      <point x="147" y="83"/>
      <point x="82" y="129" type="curve"/>
      <point x="78" y="129" type="line"/>
      <point x="77" y="122"/>
      <point x="75" y="114"/>
      <point x="75" y="101" type="curve" smooth="yes"/>
      <point x="75" y="70"/>
      <point x="83" y="47"/>
      <point x="96" y="34" type="curve" smooth="yes"/>
      <point x="118" y="11"/>
      <point x="192" y="-11"/>
      <point x="287" y="-11" type="curve" smooth="yes"/>
      <point x="296" y="-11" type="line" smooth="yes"/>
      <point x="439" y="-11"/>
      <point x="518" y="43"/>
      <point x="518" y="149" type="curve" smooth="yes"/>
      <point x="518" y="176"/>
      <point x="494" y="184"/>
      <point x="464" y="187" type="curve"/>
      <point x="465" y="177"/>
      <point x="465" y="171"/>
      <point x="465" y="166" type="curve" smooth="yes"/>
      <point x="465" y="116"/>
      <point x="414" y="71"/>
    </contour>
    <contour>
      <point x="315" y="541" type="move" name="top"/>
    </contour>
    <contour>
      <point x="314" y="-1" type="move" name="bottom"/>
    </contour>
  </outline>
</glyph>
<glyph name="v" format="1">
  <advance width="600"/>
  <unicode hex="0076"/>
  <outline>
    <contour>
      <point x="462" y="537" type="curve" smooth="yes"/>
      <point x="448" y="537" type="line"/>
      <point x="424" y="259"/>
      <point x="388" y="142"/>
      <point x="277" y="47" type="curve"/>
      <point x="258" y="31"/>
      <point x="276" y="-10"/>
      <point x="304" y="-10" type="curve"/>
      <point x="336" y="-10" type="line"/>
      <point x="453" y="83"/>
      <point x="508" y="245"/>
      <point x="529" y="495" type="curve"/>
      <point x="531" y="518"/>
      <point x="501" y="537"/>
    </contour>
    <contour>
      <point x="82" y="537" type="curve" smooth="yes"/>
      <point x="67" y="537" type="line"/>
      <point x="90" y="268"/>
      <point x="136" y="120"/>
      <point x="235" y="21" type="curve"/>
      <point x="259" y="-3"/>
      <point x="280" y="-10"/>
      <point x="301" y="-10" type="curve" smooth="yes"/>
      <point x="309" y="-10" type="line" smooth="yes"/>
      <point x="333" y="-10"/>
      <point x="348" y="7"/>
      <point x="361" y="35" type="curve"/>
      <point x="352" y="35"/>
      <point x="346" y="35"/>
      <point x="342" y="35" type="curve" smooth="yes"/>
      <point x="336" y="35"/>
      <point x="329" y="37"/>
      <point x="322" y="43" type="curve"/>
      <point x="217" y="137"/>
      <point x="175" y="262"/>
      <point x="154" y="504" type="curve"/>
      <point x="153" y="526"/>
      <point x="120" y="537"/>
    </contour>
  </outline>
</glyph>
<glyph name="w" format="1">
  <advance width="600"/>
  <unicode hex="0077"/>
  <outline>
    <contour>
      <point x="56" y="541" type="curve"/>
      <point x="56" y="210"/>
      <point x="80" y="81"/>
      <point x="154" y="7" type="curve" smooth="yes"/>
      <point x="165" y="-4"/>
      <point x="178" y="-10"/>
      <point x="191" y="-10" type="curve" smooth="yes"/>
      <point x="198" y="-10" type="line" smooth="yes"/>
      <point x="207" y="-10"/>
      <point x="214" y="25"/>
      <point x="214" y="41" type="curve" smooth="yes"/>
      <point x="152" y="104"/>
      <point x="134" y="193"/>
      <point x="134" y="512" type="curve"/>
      <point x="134" y="517"/>
      <point x="132" y="521"/>
      <point x="128" y="525" type="curve" smooth="yes"/>
      <point x="120" y="535"/>
      <point x="96" y="541"/>
      <point x="70" y="541" type="curve"/>
      <point x="66" y="541"/>
      <point x="60" y="541"/>
    </contour>
    <contour>
      <point x="284" y="442" type="curve" smooth="yes"/>
      <point x="271" y="442" type="line"/>
      <point x="271" y="255"/>
      <point x="239" y="131"/>
      <point x="167" y="28" type="curve"/>
      <point x="173" y="10"/>
      <point x="177" y="-10"/>
      <point x="191" y="-10" type="curve"/>
      <point x="212" y="-10" type="line"/>
      <point x="280" y="91"/>
      <point x="319" y="237"/>
      <point x="319" y="405" type="curve" smooth="yes"/>
      <point x="319" y="431"/>
      <point x="307" y="442"/>
    </contour>
    <contour>
      <point x="284" y="442" type="curve" smooth="yes"/>
      <point x="279" y="442" type="line"/>
      <point x="279" y="266"/>
      <point x="310" y="98"/>
      <point x="386" y="2" type="curve" smooth="yes"/>
      <point x="392" y="-6"/>
      <point x="401" y="-10"/>
      <point x="410" y="-10" type="curve" smooth="yes"/>
      <point x="425" y="-10" type="line" smooth="yes"/>
      <point x="436" y="-10"/>
      <point x="442" y="10"/>
      <point x="442" y="31" type="curve" smooth="yes"/>
      <point x="376" y="93"/>
      <point x="330" y="239"/>
      <point x="330" y="415" type="curve" smooth="yes"/>
      <point x="330" y="429"/>
      <point x="317" y="442"/>
    </contour>
    <contour>
      <point x="468" y="541" type="curve"/>
      <point x="468" y="191"/>
      <point x="447" y="130"/>
      <point x="398" y="46" type="curve"/>
      <point x="400" y="5"/>
      <point x="405" y="-10"/>
      <point x="416" y="-10" type="curve"/>
      <point x="444" y="-10" type="line"/>
      <point x="518" y="107"/>
      <point x="543" y="224"/>
      <point x="543" y="507" type="curve"/>
      <point x="543" y="515"/>
      <point x="542" y="519"/>
      <point x="539" y="523" type="curve" smooth="yes"/>
      <point x="528" y="534"/>
      <point x="502" y="541"/>
      <point x="483" y="541" type="curve"/>
      <point x="478" y="541"/>
      <point x="473" y="541"/>
    </contour>
    <contour>
      <point x="299" y="541" type="move" name="top"/>
    </contour>
  </outline>
</glyph>
<glyph name="y" format="1">
  <advance width="600"/>
  <unicode hex="0079"/>
  <outline>
    <contour>
      <point x="481" y="535" type="curve" smooth="yes"/>
      <point x="472" y="535"/>
      <point x="463" y="534"/>
      <point x="456" y="530" type="curve"/>
      <point x="421" y="149"/>
      <point x="353" y="-10"/>
      <point x="261" y="-102" type="curve" smooth="yes"/>
      <point x="214" y="-149"/>
      <point x="161" y="-172"/>
      <point x="105" y="-172" type="curve" smooth="yes"/>
      <point x="87" y="-172" type="line"/>
      <point x="87" y="-176" type="line" smooth="yes"/>
      <point x="87" y="-220"/>
      <point x="103" y="-250"/>
      <point x="131" y="-250" type="curve" smooth="yes"/>
      <point x="136" y="-250" type="line" smooth="yes"/>
      <point x="200" y="-250"/>
      <point x="262" y="-220"/>
      <point x="316" y="-165" type="curve" smooth="yes"/>
      <point x="422" y="-59"/>
      <point x="505" y="149"/>
      <point x="537" y="494" type="curve" smooth="yes"/>
      <point x="540" y="522"/>
      <point x="519" y="535"/>
    </contour>
    <contour>
      <point x="87" y="535" type="curve" smooth="yes"/>
      <point x="77" y="535"/>
      <point x="68" y="533"/>
      <point x="59" y="530" type="curve"/>
      <point x="90" y="230"/>
      <point x="140" y="142"/>
      <point x="202" y="74" type="curve" smooth="yes"/>
      <point x="240" y="32"/>
      <point x="300" y="3"/>
      <point x="361" y="3" type="curve" smooth="yes"/>
      <point x="368" y="3" type="line" smooth="yes"/>
      <point x="386" y="3"/>
      <point x="405" y="20"/>
      <point x="405" y="60" type="curve"/>
      <point x="387" y="63" type="line"/>
      <point x="331" y="68"/>
      <point x="288" y="95"/>
      <point x="264" y="122" type="curve" smooth="yes"/>
      <point x="200" y="193"/>
      <point x="169" y="319"/>
      <point x="154" y="486" type="curve" smooth="yes"/>
      <point x="150" y="526"/>
      <point x="128" y="535"/>
    </contour>
    <contour>
      <point x="300" y="541" type="move" name="top"/>
    </contour>
  </outline>
</glyph>
<glyph name="braceleft" format="1">
  <advance width="600"/>
  <unicode hex="007B"/>
  <outline>
    <contour>
      <point x="445" y="689" type="curve" smooth="yes"/>
      <point x="470" y="689"/>
      <point x="488" y="687"/>
      <point x="507" y="681" type="curve"/>
      <point x="511" y="681" type="line"/>
      <point x="513" y="690"/>
      <point x="514" y="697"/>
      <point x="514" y="709" type="curve"/>
      <point x="514" y="742"/>
      <point x="494" y="770"/>
      <point x="456" y="770" type="curve" smooth="yes"/>
      <point x="452" y="770" type="line" smooth="yes"/>
      <point x="328" y="770"/>
      <point x="238" y="730"/>
      <point x="238" y="655" type="curve" smooth="yes"/>
      <point x="238" y="651" type="line" smooth="yes"/>
      <point x="238" y="633"/>
      <point x="260" y="613"/>
      <point x="285" y="612" type="curve"/>
      <point x="305" y="671"/>
      <point x="364" y="689"/>
    </contour>
    <contour>
      <point x="367" y="458" type="curve" smooth="yes"/>
      <point x="367" y="549"/>
      <point x="306" y="611"/>
      <point x="306" y="649" type="curve" smooth="yes"/>
      <point x="306" y="667"/>
      <point x="311" y="680"/>
      <point x="321" y="697" type="curve"/>
      <point x="281" y="703"/>
      <point x="238" y="696"/>
      <point x="238" y="654" type="curve" smooth="yes"/>
      <point x="238" y="650" type="line" smooth="yes"/>
      <point x="238" y="593"/>
      <point x="288" y="545"/>
      <point x="288" y="464" type="curve" smooth="yes"/>
      <point x="288" y="391"/>
      <point x="238" y="338"/>
      <point x="120" y="338" type="curve" smooth="yes"/>
      <point x="114" y="338" type="line"/>
      <point x="114" y="327" type="line" smooth="yes"/>
      <point x="114" y="303"/>
      <point x="121" y="285"/>
      <point x="139" y="285" type="curve" smooth="yes"/>
      <point x="151" y="285" type="line" smooth="yes"/>
      <point x="272" y="285"/>
      <point x="367" y="346"/>
    </contour>
    <contour>
      <point x="367" y="140" type="curve" smooth="yes"/>
      <point x="367" y="255"/>
      <point x="274" y="315"/>
      <point x="152" y="315" type="curve" smooth="yes"/>
      <point x="132" y="315"/>
      <point x="123" y="324"/>
      <point x="114" y="330" type="curve"/>
      <point x="114" y="322" type="line" smooth="yes"/>
      <point x="114" y="289"/>
      <point x="125" y="261"/>
      <point x="148" y="261" type="curve" smooth="yes"/>
      <point x="150" y="261" type="line" smooth="yes"/>
      <point x="237" y="261"/>
      <point x="288" y="206"/>
      <point x="288" y="134" type="curve" smooth="yes"/>
      <point x="288" y="53"/>
      <point x="238" y="1"/>
      <point x="238" y="-56" type="curve" smooth="yes"/>
      <point x="238" y="-59" type="line" smooth="yes"/>
      <point x="238" y="-107"/>
      <point x="286" y="-112"/>
      <point x="324" y="-107" type="curve"/>
      <point x="309" y="-88"/>
      <point x="306" y="-73"/>
      <point x="306" y="-52" type="curve" smooth="yes"/>
      <point x="306" y="-14"/>
      <point x="367" y="50"/>
    </contour>
    <contour>
      <point x="442" y="-90" type="curve" smooth="yes"/>
      <point x="345" y="-90"/>
      <point x="300" y="-74"/>
      <point x="280" y="-11" type="curve"/>
      <point x="255" y="-15"/>
      <point x="238" y="-38"/>
      <point x="238" y="-57" type="curve" smooth="yes"/>
      <point x="238" y="-60" type="line" smooth="yes"/>
      <point x="238" y="-141"/>
      <point x="321" y="-172"/>
      <point x="456" y="-172" type="curve" smooth="yes"/>
      <point x="461" y="-172" type="line" smooth="yes"/>
      <point x="496" y="-172"/>
      <point x="513" y="-139"/>
      <point x="513" y="-89" type="curve"/>
      <point x="513" y="-81" type="line"/>
      <point x="509" y="-81" type="line"/>
      <point x="487" y="-87"/>
      <point x="470" y="-90"/>
    </contour>
  </outline>
</glyph>
<glyph name="bar" format="1">
  <advance width="600"/>
  <unicode hex="007C"/>
  <outline>
    <contour>
      <point x="249" y="759" type="curve"/>
      <point x="256" y="724"/>
      <point x="258" y="688"/>
      <point x="258" y="650" type="curve" smooth="yes"/>
      <point x="258" y="-124" type="line" smooth="yes"/>
      <point x="258" y="-151"/>
      <point x="283" y="-161"/>
      <point x="324" y="-161" type="curve" smooth="yes"/>
      <point x="331" y="-161"/>
      <point x="338" y="-161"/>
      <point x="342" y="-160" type="curve"/>
      <point x="342" y="700" type="line" smooth="yes"/>
      <point x="342" y="723"/>
      <point x="340" y="740"/>
      <point x="328" y="751" type="curve" smooth="yes"/>
      <point x="319" y="760"/>
      <point x="307" y="764"/>
      <point x="282" y="764" type="curve" smooth="yes"/>
      <point x="270" y="764"/>
      <point x="260" y="762"/>
    </contour>
  </outline>
</glyph>
<glyph name="braceright" format="1">
  <advance width="600"/>
  <unicode hex="007D"/>
  <outline>
    <contour>
      <point x="155" y="-91" type="curve" smooth="yes"/>
      <point x="130" y="-91"/>
      <point x="112" y="-89"/>
      <point x="93" y="-83" type="curve"/>
      <point x="89" y="-83" type="line"/>
      <point x="87" y="-92"/>
      <point x="86" y="-99"/>
      <point x="86" y="-111" type="curve"/>
      <point x="86" y="-144"/>
      <point x="106" y="-172"/>
      <point x="144" y="-172" type="curve" smooth="yes"/>
      <point x="148" y="-172" type="line" smooth="yes"/>
      <point x="272" y="-172"/>
      <point x="362" y="-132"/>
      <point x="362" y="-57" type="curve" smooth="yes"/>
      <point x="362" y="-53" type="line" smooth="yes"/>
      <point x="362" y="-35"/>
      <point x="340" y="-15"/>
      <point x="315" y="-14" type="curve"/>
      <point x="295" y="-73"/>
      <point x="236" y="-91"/>
    </contour>
    <contour>
      <point x="233" y="140" type="curve" smooth="yes"/>
      <point x="233" y="49"/>
      <point x="294" y="-13"/>
      <point x="294" y="-51" type="curve" smooth="yes"/>
      <point x="294" y="-69"/>
      <point x="289" y="-82"/>
      <point x="279" y="-99" type="curve"/>
      <point x="319" y="-105"/>
      <point x="362" y="-98"/>
      <point x="362" y="-56" type="curve" smooth="yes"/>
      <point x="362" y="-52" type="line" smooth="yes"/>
      <point x="362" y="5"/>
      <point x="312" y="53"/>
      <point x="312" y="134" type="curve" smooth="yes"/>
      <point x="312" y="207"/>
      <point x="362" y="260"/>
      <point x="480" y="260" type="curve" smooth="yes"/>
      <point x="486" y="260" type="line"/>
      <point x="486" y="271" type="line" smooth="yes"/>
      <point x="486" y="295"/>
      <point x="479" y="313"/>
      <point x="461" y="313" type="curve" smooth="yes"/>
      <point x="449" y="313" type="line" smooth="yes"/>
      <point x="328" y="313"/>
      <point x="233" y="252"/>
    </contour>
    <contour>
      <point x="233" y="458" type="curve" smooth="yes"/>
      <point x="233" y="343"/>
      <point x="326" y="283"/>
      <point x="448" y="283" type="curve" smooth="yes"/>
      <point x="468" y="283"/>
      <point x="477" y="274"/>
      <point x="486" y="268" type="curve"/>
      <point x="486" y="276" type="line" smooth="yes"/>
      <point x="486" y="309"/>
      <point x="475" y="337"/>
      <point x="452" y="337" type="curve" smooth="yes"/>
      <point x="450" y="337" type="line" smooth="yes"/>
      <point x="363" y="337"/>
      <point x="312" y="392"/>
      <point x="312" y="464" type="curve" smooth="yes"/>
      <point x="312" y="545"/>
      <point x="362" y="597"/>
      <point x="362" y="654" type="curve" smooth="yes"/>
      <point x="362" y="657" type="line" smooth="yes"/>
      <point x="362" y="705"/>
      <point x="314" y="710"/>
      <point x="276" y="705" type="curve"/>
      <point x="291" y="686"/>
      <point x="294" y="671"/>
      <point x="294" y="650" type="curve" smooth="yes"/>
      <point x="294" y="612"/>
      <point x="233" y="548"/>
    </contour>
    <contour>
      <point x="158" y="688" type="curve" smooth="yes"/>
      <point x="255" y="688"/>
      <point x="300" y="672"/>
      <point x="320" y="609" type="curve"/>
      <point x="345" y="613"/>
      <point x="362" y="636"/>
      <point x="362" y="655" type="curve" smooth="yes"/>
      <point x="362" y="658" type="line" smooth="yes"/>
      <point x="362" y="739"/>
      <point x="279" y="770"/>
      <point x="144" y="770" type="curve" smooth="yes"/>
      <point x="139" y="770" type="line" smooth="yes"/>
      <point x="104" y="770"/>
      <point x="87" y="737"/>
      <point x="87" y="687" type="curve"/>
      <point x="87" y="679" type="line"/>
      <point x="91" y="679" type="line"/>
      <point x="113" y="685"/>
      <point x="130" y="688"/>
    </contour>
  </outline>
</glyph>
<glyph name="asciitilde" format="1">
  <advance width="600"/>
  <unicode hex="007E"/>
  <outline>
    <contour>
      <point x="426" y="291" type="curve" smooth="yes"/>
      <point x="336" y="291"/>
      <point x="258" y="398"/>
      <point x="167" y="398" type="curve" smooth="yes"/>
      <point x="114" y="398"/>
      <point x="81" y="375"/>
      <point x="64" y="343" type="curve" smooth="yes"/>
      <point x="58" y="330"/>
      <point x="54" y="315"/>
      <point x="54" y="291" type="curve" smooth="yes"/>
      <point x="54" y="278"/>
      <point x="56" y="264"/>
      <point x="61" y="254" type="curve"/>
      <point x="65" y="254" type="line"/>
      <point x="100" y="292"/>
      <point x="131" y="309"/>
      <point x="174" y="309" type="curve" smooth="yes"/>
      <point x="264" y="309"/>
      <point x="342" y="202"/>
      <point x="433" y="202" type="curve" smooth="yes"/>
      <point x="486" y="202"/>
      <point x="519" y="225"/>
      <point x="536" y="257" type="curve" smooth="yes"/>
      <point x="542" y="270"/>
      <point x="546" y="285"/>
      <point x="546" y="309" type="curve" smooth="yes"/>
      <point x="546" y="322"/>
      <point x="544" y="336"/>
      <point x="539" y="346" type="curve"/>
      <point x="535" y="346" type="line"/>
      <point x="500" y="308"/>
      <point x="469" y="291"/>
    </contour>
  </outline>
</glyph>
<glyph name="exclamdown" format="1">
  <advance width="600"/>
  <unicode hex="00A1"/>
  <outline>
    <contour>
      <point x="265" y="279" type="line"/>
      <point x="256" y="205"/>
      <point x="248" y="120"/>
      <point x="248" y="47" type="curve"/>
      <point x="248" y="-126" type="line" smooth="yes"/>
      <point x="248" y="-162"/>
      <point x="274" y="-175"/>
      <point x="326" y="-175" type="curve" smooth="yes"/>
      <point x="340" y="-175"/>
      <point x="350" y="-174"/>
      <point x="362" y="-171" type="curve"/>
      <point x="355" y="-135"/>
      <point x="353" y="-100"/>
      <point x="353" y="-62" type="curve" smooth="yes"/>
      <point x="353" y="45" type="line"/>
      <point x="353" y="153"/>
      <point x="346" y="246"/>
      <point x="330" y="262" type="curve" smooth="yes"/>
      <point x="317" y="274"/>
      <point x="298" y="279"/>
      <point x="273" y="279" type="curve"/>
    </contour>
    <contour>
      <point x="225" y="530" type="curve"/>
      <point x="225" y="445" type="line" smooth="yes"/>
      <point x="225" y="402"/>
      <point x="262" y="385"/>
      <point x="316" y="385" type="curve" smooth="yes"/>
      <point x="338" y="385"/>
      <point x="358" y="389"/>
      <point x="375" y="396" type="curve"/>
      <point x="375" y="482" type="line" smooth="yes"/>
      <point x="375" y="525"/>
      <point x="338" y="542"/>
      <point x="284" y="542" type="curve" smooth="yes"/>
      <point x="262" y="542"/>
      <point x="242" y="538"/>
    </contour>
  </outline>
</glyph>
<glyph name="cent" format="1">
  <advance width="600"/>
  <unicode hex="00A2"/>
  <outline>
    <contour>
      <point x="354" y="410" type="line"/>
      <point x="389" y="700" type="line" smooth="yes"/>
      <point x="397" y="749"/>
      <point x="381" y="774"/>
      <point x="337" y="774" type="curve" smooth="yes"/>
      <point x="325" y="774"/>
      <point x="310" y="771"/>
      <point x="301" y="768" type="curve"/>
      <point x="309" y="742"/>
      <point x="311" y="719"/>
      <point x="311" y="677" type="curve"/>
      <point x="311" y="445" type="line" smooth="yes"/>
      <point x="311" y="423"/>
      <point x="328" y="410"/>
      <point x="350" y="410" type="curve" smooth="yes"/>
    </contour>
    <contour>
      <point x="308" y="284" type="line"/>
      <point x="272" y="-6" type="line" smooth="yes"/>
      <point x="265" y="-55"/>
      <point x="281" y="-80"/>
      <point x="325" y="-80" type="curve" smooth="yes"/>
      <point x="336" y="-80"/>
      <point x="351" y="-77"/>
      <point x="361" y="-74" type="curve"/>
      <point x="353" y="-48"/>
      <point x="351" y="-25"/>
      <point x="351" y="17" type="curve"/>
      <point x="351" y="249" type="line" smooth="yes"/>
      <point x="351" y="271"/>
      <point x="334" y="284"/>
      <point x="312" y="284" type="curve" smooth="yes"/>
    </contour>
    <contour>
      <point x="345" y="626" type="curve" smooth="yes"/>
      <point x="186" y="626"/>
      <point x="67" y="513"/>
      <point x="67" y="316" type="curve" smooth="yes"/>
      <point x="67" y="302" type="line" smooth="yes"/>
      <point x="67" y="165"/>
      <point x="167" y="74"/>
      <point x="322" y="74" type="curve" smooth="yes"/>
      <point x="336" y="74"/>
      <point x="345" y="88"/>
      <point x="346" y="118" type="curve"/>
      <point x="201" y="138"/>
      <point x="149" y="210"/>
      <point x="149" y="302" type="curve" smooth="yes"/>
      <point x="149" y="316" type="line" smooth="yes"/>
      <point x="149" y="447"/>
      <point x="220" y="543"/>
      <point x="336" y="543" type="curve" smooth="yes"/>
      <point x="412" y="543"/>
      <point x="449" y="523"/>
      <point x="496" y="478" type="curve"/>
      <point x="500" y="478" type="line"/>
      <point x="505" y="491"/>
      <point x="507" y="503"/>
      <point x="507" y="519" type="curve" smooth="yes"/>
      <point x="507" y="545"/>
      <point x="503" y="568"/>
      <point x="489" y="582" type="curve" smooth="yes"/>
      <point x="460" y="611"/>
      <point x="411" y="626"/>
    </contour>
    <contour>
      <point x="146" y="237" type="curve"/>
      <point x="104" y="171"/>
      <point x="204" y="74"/>
      <point x="322" y="74" type="curve" smooth="yes"/>
      <point x="405" y="74"/>
      <point x="463" y="98"/>
      <point x="490" y="125" type="curve" smooth="yes"/>
      <point x="505" y="139"/>
      <point x="512" y="172"/>
      <point x="512" y="193" type="curve"/>
      <point x="512" y="205"/>
      <point x="511" y="212"/>
      <point x="509" y="220" type="curve"/>
      <point x="505" y="220" type="line"/>
      <point x="456" y="175"/>
      <point x="404" y="154"/>
      <point x="324" y="154" type="curve" smooth="yes"/>
      <point x="240" y="154"/>
      <point x="193" y="177"/>
    </contour>
  </outline>
</glyph>
<glyph name="brokenbar" format="1">
  <advance width="600"/>
  <unicode hex="00A6"/>
  <outline>
    <contour>
      <point x="249" y="759" type="curve"/>
      <point x="256" y="724"/>
      <point x="258" y="688"/>
      <point x="258" y="650" type="curve" smooth="yes"/>
      <point x="258" y="406" type="line" smooth="yes"/>
      <point x="258" y="379"/>
      <point x="283" y="369"/>
      <point x="324" y="369" type="curve" smooth="yes"/>
      <point x="331" y="369"/>
      <point x="338" y="369"/>
      <point x="342" y="370" type="curve"/>
      <point x="342" y="700" type="line" smooth="yes"/>
      <point x="342" y="723"/>
      <point x="340" y="740"/>
      <point x="328" y="751" type="curve" smooth="yes"/>
      <point x="319" y="760"/>
      <point x="307" y="764"/>
      <point x="282" y="764" type="curve" smooth="yes"/>
      <point x="270" y="764"/>
      <point x="260" y="762"/>
    </contour>
    <contour>
      <point x="258" y="229" type="curve"/>
      <point x="258" y="-124" type="line"/>
      <point x="258" y="-151"/>
      <point x="283" y="-161"/>
      <point x="324" y="-161" type="curve" smooth="yes"/>
      <point x="331" y="-161"/>
      <point x="338" y="-161"/>
      <point x="342" y="-160" type="curve"/>
      <point x="342" y="186" type="line" smooth="yes"/>
      <point x="342" y="218"/>
      <point x="329" y="234"/>
      <point x="286" y="234" type="curve" smooth="yes"/>
      <point x="275" y="234"/>
      <point x="265" y="232"/>
    </contour>
  </outline>
</glyph>
<glyph name="copyright" format="1">
  <advance width="600"/>
  <unicode hex="00A9"/>
  <outline>
    <contour>
      <point x="300" y="715" type="curve" smooth="yes"/>
      <point x="122" y="715"/>
      <point x="20" y="589"/>
      <point x="20" y="362" type="curve" smooth="yes"/>
      <point x="20" y="348" type="line" smooth="yes"/>
      <point x="20" y="111"/>
      <point x="119" y="-15"/>
      <point x="300" y="-15" type="curve" smooth="yes"/>
      <point x="330" y="-15"/>
      <point x="339" y="3"/>
      <point x="339" y="19" type="curve"/>
      <point x="172" y="19"/>
      <point x="73" y="119"/>
      <point x="73" y="332" type="curve" smooth="yes"/>
      <point x="73" y="369" type="line" smooth="yes"/>
      <point x="73" y="565"/>
      <point x="155" y="664"/>
      <point x="300" y="664" type="curve" smooth="yes"/>
      <point x="374" y="664"/>
      <point x="436" y="635"/>
      <point x="490" y="595" type="curve"/>
      <point x="534" y="641"/>
      <point x="390" y="715"/>
    </contour>
    <contour>
      <point x="300" y="-15" type="curve" smooth="yes"/>
      <point x="478" y="-15"/>
      <point x="580" y="111"/>
      <point x="580" y="338" type="curve" smooth="yes"/>
      <point x="580" y="352" type="line" smooth="yes"/>
      <point x="580" y="589"/>
      <point x="481" y="715"/>
      <point x="300" y="715" type="curve" smooth="yes"/>
      <point x="270" y="715"/>
      <point x="261" y="697"/>
      <point x="261" y="681" type="curve"/>
      <point x="428" y="681"/>
      <point x="527" y="581"/>
      <point x="527" y="368" type="curve" smooth="yes"/>
      <point x="527" y="331" type="line" smooth="yes"/>
      <point x="527" y="135"/>
      <point x="445" y="36"/>
      <point x="300" y="36" type="curve" smooth="yes"/>
      <point x="226" y="36"/>
      <point x="164" y="64"/>
      <point x="110" y="105" type="curve"/>
      <point x="68" y="58"/>
      <point x="210" y="-15"/>
    </contour>
    <contour>
      <point x="307" y="510" type="curve" smooth="yes"/>
      <point x="351" y="510"/>
      <point x="374" y="489"/>
      <point x="391" y="445" type="curve"/>
      <point x="412" y="445"/>
      <point x="418" y="459"/>
      <point x="418" y="468" type="curve" smooth="yes"/>
      <point x="418" y="491"/>
      <point x="411" y="511"/>
      <point x="390" y="533" type="curve" smooth="yes"/>
      <point x="367" y="556"/>
      <point x="343" y="566"/>
      <point x="306" y="566" type="curve" smooth="yes"/>
      <point x="215" y="566"/>
      <point x="164" y="487"/>
      <point x="164" y="345" type="curve" smooth="yes"/>
      <point x="164" y="334" type="line" smooth="yes"/>
      <point x="164" y="292"/>
      <point x="193" y="167"/>
      <point x="259" y="191" type="curve"/>
      <point x="234" y="238"/>
      <point x="225" y="265"/>
      <point x="225" y="342" type="curve" smooth="yes"/>
      <point x="225" y="353" type="line" smooth="yes"/>
      <point x="225" y="460"/>
      <point x="255" y="510"/>
    </contour>
    <contour>
      <point x="308" y="134" type="curve" smooth="yes"/>
      <point x="354" y="134"/>
      <point x="387" y="150"/>
      <point x="402" y="169" type="curve"/>
      <point x="414" y="183"/>
      <point x="416" y="195"/>
      <point x="416" y="213" type="curve" smooth="yes"/>
      <point x="416" y="225"/>
      <point x="414" y="238"/>
      <point x="411" y="248" type="curve"/>
      <point x="407" y="248" type="line"/>
      <point x="381" y="209"/>
      <point x="352" y="192"/>
      <point x="308" y="192" type="curve" smooth="yes"/>
      <point x="254" y="192"/>
      <point x="211" y="234"/>
      <point x="206" y="355" type="curve"/>
      <point x="177" y="355"/>
      <point x="164" y="355"/>
      <point x="164" y="334" type="curve" smooth="yes"/>
      <point x="164" y="191"/>
      <point x="216" y="134"/>
    </contour>
    <contour>
      <point x="418" y="409" type="curve"/>
      <point x="418" y="468" type="line" smooth="yes"/>
      <point x="418" y="484"/>
      <point x="391" y="540"/>
      <point x="352" y="528" type="curve"/>
      <point x="358" y="498"/>
      <point x="358" y="487"/>
      <point x="358" y="462" type="curve" smooth="yes"/>
      <point x="358" y="440" type="line" smooth="yes"/>
      <point x="358" y="415"/>
      <point x="370" y="404"/>
      <point x="394" y="404" type="curve" smooth="yes"/>
      <point x="406" y="404"/>
      <point x="411" y="405"/>
    </contour>
  </outline>
</glyph>
<glyph name="ordfeminine" format="1">
  <advance width="600"/>
  <unicode hex="00AA"/>
  <outline>
    <contour>
      <point x="286" y="759" type="curve" smooth="yes"/>
      <point x="222" y="759"/>
      <point x="166" y="748"/>
      <point x="148" y="730" type="curve" smooth="yes"/>
      <point x="137" y="720"/>
      <point x="133" y="706"/>
      <point x="133" y="686" type="curve" smooth="yes"/>
      <point x="133" y="678"/>
      <point x="134" y="670"/>
      <point x="136" y="663" type="curve"/>
      <point x="140" y="663" type="line"/>
      <point x="177" y="677"/>
      <point x="220" y="688"/>
      <point x="270" y="688" type="curve" smooth="yes"/>
      <point x="375" y="688"/>
      <point x="412" y="643"/>
      <point x="431" y="547" type="curve"/>
      <point x="454" y="547"/>
      <point x="465" y="557"/>
      <point x="465" y="578" type="curve"/>
      <point x="465" y="685"/>
      <point x="402" y="759"/>
    </contour>
    <contour>
      <point x="349" y="695" type="curve"/>
      <point x="380" y="658"/>
      <point x="391" y="633"/>
      <point x="391" y="577" type="curve" smooth="yes"/>
      <point x="391" y="507"/>
      <point x="391" y="464"/>
      <point x="391" y="410" type="curve" smooth="yes"/>
      <point x="391" y="343"/>
      <point x="431" y="326"/>
      <point x="478" y="338" type="curve"/>
      <point x="466" y="358"/>
      <point x="465" y="373"/>
      <point x="465" y="400" type="curve" smooth="yes"/>
      <point x="465" y="468"/>
      <point x="465" y="499"/>
      <point x="465" y="578" type="curve" smooth="yes"/>
      <point x="465" y="645"/>
      <point x="407" y="708"/>
    </contour>
    <contour>
      <point x="537" y="371" type="line"/>
      <point x="534" y="371" type="line"/>
      <point x="525" y="367"/>
      <point x="514" y="364"/>
      <point x="502" y="364" type="curve" smooth="yes"/>
      <point x="479" y="364"/>
      <point x="454" y="371"/>
      <point x="447" y="438" type="curve"/>
      <point x="406" y="439"/>
      <point x="391" y="431"/>
      <point x="391" y="410" type="curve" smooth="yes"/>
      <point x="391" y="336"/>
      <point x="429" y="291"/>
      <point x="490" y="291" type="curve" smooth="yes"/>
      <point x="493" y="291" type="line" smooth="yes"/>
      <point x="527" y="291"/>
      <point x="537" y="327"/>
      <point x="537" y="362" type="curve"/>
    </contour>
    <contour>
      <point x="178" y="422" type="curve" smooth="yes"/>
      <point x="178" y="430" type="line" smooth="yes"/>
      <point x="178" y="474"/>
      <point x="200" y="496"/>
      <point x="219" y="515" type="curve"/>
      <point x="165" y="531"/>
      <point x="104" y="468"/>
      <point x="104" y="426" type="curve" smooth="yes"/>
      <point x="104" y="413" type="line" smooth="yes"/>
      <point x="104" y="335"/>
      <point x="152" y="291"/>
      <point x="233" y="291" type="curve" smooth="yes"/>
      <point x="310" y="291"/>
      <point x="368" y="337"/>
      <point x="403" y="394" type="curve" smooth="yes"/>
      <point x="416" y="415"/>
      <point x="415" y="433"/>
      <point x="412" y="464" type="curve"/>
      <point x="353" y="389"/>
      <point x="299" y="360"/>
      <point x="249" y="360" type="curve" smooth="yes"/>
      <point x="246" y="360" type="line" smooth="yes"/>
      <point x="200" y="360"/>
      <point x="178" y="380"/>
    </contour>
    <contour>
      <point x="415" y="534" type="curve" smooth="yes"/>
      <point x="400" y="548"/>
      <point x="348" y="561"/>
      <point x="264" y="561" type="curve" smooth="yes"/>
      <point x="165" y="561"/>
      <point x="104" y="503"/>
      <point x="104" y="426" type="curve" smooth="yes"/>
      <point x="104" y="410"/>
      <point x="113" y="402"/>
      <point x="136" y="402" type="curve"/>
      <point x="159" y="471"/>
      <point x="199" y="502"/>
      <point x="283" y="502" type="curve" smooth="yes"/>
      <point x="329" y="502"/>
      <point x="379" y="498"/>
      <point x="427" y="486" type="curve"/>
      <point x="428" y="511"/>
      <point x="424" y="525"/>
    </contour>
  </outline>
</glyph>
<glyph name="guillemotleft" format="1">
  <advance width="601"/>
  <unicode hex="00AB"/>
  <outline>
    <contour>
      <point x="317" y="499" type="line"/>
      <point x="299" y="506"/>
      <point x="284" y="508"/>
      <point x="262" y="508" type="curve" smooth="yes"/>
      <point x="240" y="508"/>
      <point x="227" y="505"/>
      <point x="208" y="491" type="curve" smooth="yes"/>
      <point x="149" y="446"/>
      <point x="108" y="401"/>
      <point x="59" y="325" type="curve"/>
      <point x="59" y="305" type="line"/>
      <point x="59" y="285"/>
      <point x="84" y="278"/>
      <point x="113" y="276" type="curve"/>
      <point x="169" y="373"/>
      <point x="212" y="421"/>
      <point x="317" y="495" type="curve"/>
    </contour>
    <contour>
      <point x="317" y="105" type="line"/>
      <point x="214" y="180"/>
      <point x="162" y="233"/>
      <point x="116" y="322" type="curve"/>
      <point x="78" y="317"/>
      <point x="59" y="320"/>
      <point x="59" y="309" type="curve"/>
      <point x="59" y="301" type="line" smooth="yes"/>
      <point x="59" y="276"/>
      <point x="65" y="263"/>
      <point x="88" y="229" type="curve" smooth="yes"/>
      <point x="137" y="162"/>
      <point x="166" y="136"/>
      <point x="197" y="114" type="curve"/>
      <point x="222" y="97"/>
      <point x="238" y="92"/>
      <point x="264" y="92" type="curve" smooth="yes"/>
      <point x="288" y="92"/>
      <point x="301" y="94"/>
      <point x="317" y="101" type="curve"/>
    </contour>
    <contour>
      <point x="554" y="499" type="line"/>
      <point x="536" y="506"/>
      <point x="521" y="508"/>
      <point x="498" y="508" type="curve" smooth="yes"/>
      <point x="477" y="508"/>
      <point x="464" y="505"/>
      <point x="445" y="491" type="curve" smooth="yes"/>
      <point x="386" y="446"/>
      <point x="345" y="401"/>
      <point x="296" y="325" type="curve"/>
      <point x="296" y="305" type="line"/>
      <point x="296" y="285"/>
      <point x="321" y="278"/>
      <point x="349" y="276" type="curve"/>
      <point x="406" y="373"/>
      <point x="449" y="421"/>
      <point x="554" y="495" type="curve"/>
    </contour>
    <contour>
      <point x="554" y="105" type="line"/>
      <point x="451" y="180"/>
      <point x="399" y="233"/>
      <point x="353" y="322" type="curve"/>
      <point x="315" y="317"/>
      <point x="296" y="320"/>
      <point x="296" y="309" type="curve"/>
      <point x="296" y="301" type="line" smooth="yes"/>
      <point x="296" y="276"/>
      <point x="302" y="263"/>
      <point x="325" y="229" type="curve" smooth="yes"/>
      <point x="374" y="162"/>
      <point x="403" y="136"/>
      <point x="434" y="114" type="curve"/>
      <point x="459" y="97"/>
      <point x="475" y="92"/>
      <point x="500" y="92" type="curve" smooth="yes"/>
      <point x="525" y="92"/>
      <point x="538" y="94"/>
      <point x="554" y="101" type="curve"/>
    </contour>
  </outline>
</glyph>
<glyph name="logicalnot" format="1">
  <advance width="600"/>
  <unicode hex="00AC"/>
  <outline>
    <contour>
      <point x="63" y="424" type="line"/>
      <point x="63" y="420"/>
      <point x="63" y="416"/>
      <point x="63" y="411" type="curve" smooth="yes"/>
      <point x="63" y="384"/>
      <point x="68" y="368"/>
      <point x="79" y="357" type="curve" smooth="yes"/>
      <point x="86" y="350"/>
      <point x="95" y="347"/>
      <point x="112" y="347" type="curve"/>
      <point x="529" y="347" type="line"/>
      <point x="529" y="355" type="line"/>
      <point x="529" y="399"/>
      <point x="519" y="424"/>
      <point x="490" y="424" type="curve"/>
    </contour>
    <contour>
      <point x="529" y="137" type="curve"/>
      <point x="529" y="355" type="line" smooth="yes"/>
      <point x="529" y="376"/>
      <point x="500" y="380"/>
      <point x="457" y="380" type="curve"/>
      <point x="448" y="380" type="line"/>
      <point x="448" y="171" type="line" smooth="yes"/>
      <point x="448" y="141"/>
      <point x="471" y="135"/>
      <point x="504" y="135" type="curve" smooth="yes"/>
      <point x="513" y="135"/>
      <point x="522" y="136"/>
    </contour>
  </outline>
</glyph>
<glyph name="registered" format="1">
  <advance width="600"/>
  <unicode hex="00AE"/>
  <outline>
    <contour>
      <point x="256" y="329" type="curve"/>
      <point x="251" y="354"/>
      <point x="249" y="375"/>
      <point x="249" y="403" type="curve"/>
      <point x="249" y="536" type="line"/>
      <point x="249" y="582"/>
      <point x="234" y="601"/>
      <point x="194" y="601" type="curve"/>
      <point x="194" y="377" type="line" smooth="yes"/>
      <point x="194" y="345"/>
      <point x="207" y="325"/>
      <point x="233" y="325" type="curve" smooth="yes"/>
      <point x="241" y="325"/>
      <point x="248" y="325"/>
    </contour>
    <contour>
      <point x="171" y="628" type="curve"/>
      <point x="168" y="621"/>
      <point x="167" y="614"/>
      <point x="167" y="604" type="curve"/>
      <point x="167" y="587"/>
      <point x="172" y="576"/>
      <point x="182" y="576" type="curve"/>
      <point x="186" y="576"/>
      <point x="190" y="577"/>
      <point x="197" y="579" type="curve" smooth="yes"/>
      <point x="225" y="584"/>
      <point x="265" y="589"/>
      <point x="293" y="589" type="curve" smooth="yes"/>
      <point x="340" y="589"/>
      <point x="363" y="582"/>
      <point x="385" y="559" type="curve"/>
      <point x="414" y="595"/>
      <point x="360" y="640"/>
      <point x="307" y="640" type="curve" smooth="yes"/>
      <point x="266" y="640"/>
      <point x="225" y="637"/>
    </contour>
    <contour>
      <point x="422" y="545" type="curve" smooth="yes"/>
      <point x="422" y="553" type="line" smooth="yes"/>
      <point x="422" y="601"/>
      <point x="382" y="640"/>
      <point x="307" y="640" type="curve"/>
      <point x="286" y="640"/>
      <point x="272" y="626"/>
      <point x="272" y="602" type="curve"/>
      <point x="348" y="602"/>
      <point x="368" y="592"/>
      <point x="368" y="547" type="curve" smooth="yes"/>
      <point x="368" y="540" type="line" smooth="yes"/>
      <point x="368" y="500"/>
      <point x="319" y="472"/>
      <point x="240" y="472" type="curve" smooth="yes"/>
      <point x="222" y="472"/>
      <point x="218" y="472"/>
      <point x="214" y="472" type="curve"/>
      <point x="212" y="468"/>
      <point x="211" y="465"/>
      <point x="211" y="459" type="curve" smooth="yes"/>
      <point x="211" y="447"/>
      <point x="223" y="423"/>
      <point x="239" y="423" type="curve" smooth="yes"/>
      <point x="241" y="423" type="line" smooth="yes"/>
      <point x="337" y="423"/>
      <point x="422" y="469"/>
    </contour>
    <contour>
      <point x="350" y="477" type="line"/>
      <point x="329" y="471"/>
      <point x="303" y="454"/>
      <point x="309" y="439" type="curve" smooth="yes"/>
      <point x="334" y="372" type="line" smooth="yes"/>
      <point x="346" y="341"/>
      <point x="366" y="325"/>
      <point x="387" y="325" type="curve" smooth="yes"/>
      <point x="391" y="325" type="line" smooth="yes"/>
      <point x="414" y="325"/>
      <point x="424" y="338"/>
      <point x="424" y="360" type="curve"/>
      <point x="424" y="371"/>
      <point x="423" y="378"/>
      <point x="421" y="384" type="curve"/>
      <point x="418" y="384" type="line"/>
      <point x="413" y="380"/>
      <point x="406" y="378"/>
      <point x="398" y="378" type="curve"/>
      <point x="389" y="378"/>
      <point x="384" y="383"/>
      <point x="373" y="413" type="curve" smooth="yes"/>
    </contour>
    <contour>
      <point x="300" y="760" type="curve" smooth="yes"/>
      <point x="137" y="760"/>
      <point x="43" y="663"/>
      <point x="43" y="488" type="curve" smooth="yes"/>
      <point x="43" y="474" type="line" smooth="yes"/>
      <point x="43" y="296"/>
      <point x="134" y="201"/>
      <point x="300" y="201" type="curve" smooth="yes"/>
      <point x="329" y="201"/>
      <point x="338" y="218"/>
      <point x="338" y="234" type="curve"/>
      <point x="185" y="234"/>
      <point x="90" y="307"/>
      <point x="90" y="461" type="curve" smooth="yes"/>
      <point x="90" y="497" type="line" smooth="yes"/>
      <point x="90" y="639"/>
      <point x="168" y="713"/>
      <point x="300" y="713" type="curve" smooth="yes"/>
      <point x="369" y="713"/>
      <point x="428" y="689"/>
      <point x="477" y="652" type="curve"/>
      <point x="505" y="694"/>
      <point x="383" y="760"/>
    </contour>
    <contour>
      <point x="300" y="201" type="curve" smooth="yes"/>
      <point x="464" y="201"/>
      <point x="557" y="297"/>
      <point x="557" y="469" type="curve" smooth="yes"/>
      <point x="557" y="483" type="line" smooth="yes"/>
      <point x="557" y="664"/>
      <point x="466" y="760"/>
      <point x="300" y="760" type="curve" smooth="yes"/>
      <point x="271" y="760"/>
      <point x="262" y="742"/>
      <point x="262" y="727" type="curve"/>
      <point x="415" y="727"/>
      <point x="510" y="654"/>
      <point x="510" y="496" type="curve" smooth="yes"/>
      <point x="510" y="461" type="line" smooth="yes"/>
      <point x="510" y="321"/>
      <point x="432" y="248"/>
      <point x="300" y="248" type="curve" smooth="yes"/>
      <point x="231" y="248"/>
      <point x="171" y="272"/>
      <point x="123" y="309" type="curve"/>
      <point x="97" y="266"/>
      <point x="216" y="201"/>
    </contour>
  </outline>
</glyph>
<glyph name="macron" format="1">
  <advance width="600"/>
  <unicode hex="00AF"/>
  <outline>
    <contour>
      <point x="106" y="736" type="line"/>
      <point x="106" y="732"/>
      <point x="106" y="728"/>
      <point x="106" y="723" type="curve" smooth="yes"/>
      <point x="106" y="684"/>
      <point x="116" y="664"/>
      <point x="167" y="664" type="curve"/>
      <point x="493" y="664" type="line"/>
      <point x="494" y="671"/>
      <point x="495" y="680"/>
      <point x="495" y="688" type="curve" smooth="yes"/>
      <point x="495" y="718"/>
      <point x="486" y="736"/>
      <point x="456" y="736" type="curve"/>
    </contour>
  </outline>
</glyph>
<glyph name="degree" format="1">
  <advance width="600"/>
  <unicode hex="00B0"/>
  <outline>
    <contour>
      <point x="317" y="418" type="curve"/>
      <point x="245" y="418"/>
      <point x="203" y="462"/>
      <point x="203" y="531" type="curve" smooth="yes"/>
      <point x="203" y="538" type="line" smooth="yes"/>
      <point x="203" y="607"/>
      <point x="239" y="647"/>
      <point x="307" y="647" type="curve" smooth="yes"/>
      <point x="338" y="647"/>
      <point x="359" y="641"/>
      <point x="388" y="620" type="curve"/>
      <point x="404" y="662"/>
      <point x="361" y="710"/>
      <point x="302" y="710" type="curve"/>
      <point x="204" y="710"/>
      <point x="135" y="639"/>
      <point x="135" y="539" type="curve" smooth="yes"/>
      <point x="135" y="533" type="line" smooth="yes"/>
      <point x="135" y="435"/>
      <point x="203" y="369"/>
      <point x="296" y="369" type="curve"/>
      <point x="309" y="369"/>
      <point x="317" y="392"/>
    </contour>
    <contour>
      <point x="281" y="659" type="curve"/>
      <point x="353" y="659"/>
      <point x="395" y="616"/>
      <point x="395" y="548" type="curve" smooth="yes"/>
      <point x="395" y="542" type="line" smooth="yes"/>
      <point x="395" y="473"/>
      <point x="359" y="432"/>
      <point x="291" y="432" type="curve" smooth="yes"/>
      <point x="260" y="432"/>
      <point x="239" y="439"/>
      <point x="210" y="460" type="curve"/>
      <point x="194" y="417"/>
      <point x="237" y="369"/>
      <point x="296" y="369" type="curve"/>
      <point x="394" y="369"/>
      <point x="463" y="440"/>
      <point x="463" y="540" type="curve" smooth="yes"/>
      <point x="463" y="547" type="line" smooth="yes"/>
      <point x="463" y="645"/>
      <point x="395" y="710"/>
      <point x="302" y="710" type="curve"/>
      <point x="289" y="710"/>
      <point x="281" y="691"/>
    </contour>
  </outline>
</glyph>
<glyph name="plusminus" format="1">
  <advance width="600"/>
  <unicode hex="00B1"/>
  <outline>
    <contour>
      <point x="56" y="418" type="line"/>
      <point x="56" y="415"/>
      <point x="56" y="410"/>
      <point x="56" y="406" type="curve" smooth="yes"/>
      <point x="56" y="379"/>
      <point x="61" y="363"/>
      <point x="72" y="352" type="curve" smooth="yes"/>
      <point x="79" y="345"/>
      <point x="88" y="342"/>
      <point x="106" y="342" type="curve"/>
      <point x="544" y="342" type="line"/>
      <point x="545" y="350"/>
      <point x="546" y="360"/>
      <point x="546" y="367" type="curve" smooth="yes"/>
      <point x="546" y="400"/>
      <point x="538" y="418"/>
      <point x="508" y="418" type="curve"/>
    </contour>
    <contour>
      <point x="341" y="219" type="curve"/>
      <point x="341" y="464" type="line" smooth="yes"/>
      <point x="341" y="495"/>
      <point x="337" y="514"/>
      <point x="323" y="527" type="curve" smooth="yes"/>
      <point x="309" y="540"/>
      <point x="289" y="543"/>
      <point x="272" y="543" type="curve" smooth="yes"/>
      <point x="264" y="543"/>
      <point x="256" y="542"/>
      <point x="248" y="540" type="curve"/>
      <point x="257" y="513"/>
      <point x="259" y="498"/>
      <point x="259" y="457" type="curve" smooth="yes"/>
      <point x="259" y="253" type="line" smooth="yes"/>
      <point x="259" y="223"/>
      <point x="283" y="218"/>
      <point x="316" y="218" type="curve" smooth="yes"/>
      <point x="325" y="218"/>
      <point x="334" y="218"/>
    </contour>
    <contour>
      <point x="56" y="156" type="line"/>
      <point x="56" y="152"/>
      <point x="56" y="148"/>
      <point x="56" y="143" type="curve" smooth="yes"/>
      <point x="56" y="116"/>
      <point x="61" y="99"/>
      <point x="72" y="88" type="curve" smooth="yes"/>
      <point x="79" y="81"/>
      <point x="88" y="78"/>
      <point x="106" y="78" type="curve"/>
      <point x="544" y="78" type="line"/>
      <point x="545" y="86"/>
      <point x="546" y="96"/>
      <point x="546" y="103" type="curve" smooth="yes"/>
      <point x="546" y="138"/>
      <point x="538" y="156"/>
      <point x="508" y="156" type="curve"/>
    </contour>
  </outline>
</glyph>
<glyph name="threesuperior" format="1">
  <advance width="600"/>
  <unicode hex="00B3"/>
  <outline>
    <contour>
      <point x="291" y="648" type="curve" smooth="yes"/>
      <point x="340" y="648"/>
      <point x="367" y="629"/>
      <point x="367" y="604" type="curve" smooth="yes"/>
      <point x="367" y="596"/>
      <point x="366" y="591"/>
      <point x="365" y="586" type="curve"/>
      <point x="390" y="587"/>
      <point x="428" y="609"/>
      <point x="428" y="618" type="curve" smooth="yes"/>
      <point x="428" y="625" type="line" smooth="yes"/>
      <point x="428" y="672"/>
      <point x="379" y="711"/>
      <point x="297" y="711" type="curve"/>
      <point x="250" y="711"/>
      <point x="211" y="697"/>
      <point x="193" y="679" type="curve" smooth="yes"/>
      <point x="180" y="666"/>
      <point x="175" y="653"/>
      <point x="175" y="634" type="curve" smooth="yes"/>
      <point x="175" y="622"/>
      <point x="176" y="614"/>
      <point x="181" y="602" type="curve"/>
      <point x="183" y="602" type="line"/>
      <point x="216" y="636"/>
      <point x="249" y="648"/>
    </contour>
    <contour>
      <point x="257" y="526" type="curve" smooth="yes"/>
      <point x="376" y="526"/>
      <point x="428" y="572"/>
      <point x="428" y="618" type="curve" smooth="yes"/>
      <point x="428" y="642"/>
      <point x="393" y="658"/>
      <point x="368" y="658" type="curve"/>
      <point x="371" y="653"/>
      <point x="371" y="648"/>
      <point x="371" y="636" type="curve" smooth="yes"/>
      <point x="371" y="585"/>
      <point x="321" y="562"/>
      <point x="237" y="562" type="curve"/>
      <point x="235" y="556"/>
      <point x="234" y="551"/>
      <point x="234" y="541" type="curve" smooth="yes"/>
      <point x="234" y="529"/>
      <point x="252" y="526"/>
    </contour>
    <contour>
      <point x="262" y="508" type="curve" smooth="yes"/>
      <point x="337" y="507"/>
      <point x="377" y="484"/>
      <point x="377" y="450" type="curve" smooth="yes"/>
      <point x="377" y="443"/>
      <point x="376" y="437"/>
      <point x="374" y="431" type="curve"/>
      <point x="409" y="431"/>
      <point x="433" y="444"/>
      <point x="433" y="456" type="curve" smooth="yes"/>
      <point x="433" y="534"/>
      <point x="349" y="550"/>
      <point x="239" y="550" type="curve"/>
      <point x="238" y="544"/>
      <point x="234" y="544"/>
      <point x="234" y="541" type="curve" smooth="yes"/>
      <point x="234" y="523"/>
      <point x="239" y="509"/>
    </contour>
    <contour>
      <point x="291" y="420" type="curve" smooth="yes"/>
      <point x="243" y="420"/>
      <point x="208" y="435"/>
      <point x="177" y="464" type="curve"/>
      <point x="175" y="464" type="line"/>
      <point x="168" y="452"/>
      <point x="166" y="442"/>
      <point x="166" y="427" type="curve" smooth="yes"/>
      <point x="166" y="408"/>
      <point x="169" y="399"/>
      <point x="179" y="389" type="curve" smooth="yes"/>
      <point x="196" y="373"/>
      <point x="243" y="357"/>
      <point x="295" y="357" type="curve" smooth="yes"/>
      <point x="384" y="357"/>
      <point x="433" y="403"/>
      <point x="433" y="448" type="curve" smooth="yes"/>
      <point x="433" y="456" type="line" smooth="yes"/>
      <point x="433" y="478"/>
      <point x="405" y="487"/>
      <point x="372" y="488" type="curve"/>
      <point x="373" y="483"/>
      <point x="374" y="477"/>
      <point x="374" y="470" type="curve" smooth="yes"/>
      <point x="374" y="439"/>
      <point x="346" y="420"/>
    </contour>
  </outline>
</glyph>
<glyph name="acute" format="1">
  <advance width="600"/>
  <unicode hex="00B4"/>
  <outline>
    <contour>
      <point x="292" y="632" type="curve" smooth="yes"/>
      <point x="310" y="632"/>
      <point x="328" y="637"/>
      <point x="343" y="646" type="curve" smooth="yes"/>
      <point x="392" y="674"/>
      <point x="427" y="715"/>
      <point x="444" y="766" type="curve"/>
      <point x="449" y="779"/>
      <point x="446" y="794"/>
      <point x="432" y="800" type="curve" smooth="yes"/>
      <point x="413" y="809"/>
      <point x="397" y="812"/>
      <point x="373" y="812" type="curve"/>
      <point x="356" y="745"/>
      <point x="315" y="697"/>
      <point x="252" y="643" type="curve"/>
      <point x="266" y="634"/>
      <point x="279" y="632"/>
    </contour>
  </outline>
</glyph>
<glyph name="uni00B5" format="1">
  <advance width="600"/>
  <unicode hex="00B5"/>
  <outline>
    <contour>
      <point x="79" y="531" type="curve"/>
      <point x="90" y="483"/>
      <point x="93" y="448"/>
      <point x="93" y="396" type="curve" smooth="yes"/>
      <point x="93" y="138" type="line"/>
      <point x="93" y="106"/>
      <point x="112" y="88"/>
      <point x="159" y="89" type="curve"/>
      <point x="172" y="232"/>
      <point x="180" y="299"/>
      <point x="180" y="396" type="curve" smooth="yes"/>
      <point x="180" y="401" type="line" smooth="yes"/>
      <point x="180" y="507"/>
      <point x="150" y="534"/>
      <point x="105" y="534" type="curve" smooth="yes"/>
      <point x="95" y="534"/>
      <point x="87" y="533"/>
    </contour>
    <contour>
      <point x="248" y="-11" type="curve" smooth="yes"/>
      <point x="325" y="-11"/>
      <point x="395" y="77"/>
      <point x="432" y="194" type="curve" smooth="yes"/>
      <point x="443" y="243"/>
      <point x="449" y="290"/>
      <point x="434" y="337" type="curve"/>
      <point x="377" y="139"/>
      <point x="308" y="76"/>
      <point x="240" y="76" type="curve" smooth="yes"/>
      <point x="194" y="76"/>
      <point x="162" y="110"/>
      <point x="152" y="177" type="curve"/>
      <point x="108" y="176"/>
      <point x="93" y="157"/>
      <point x="93" y="138" type="curve" smooth="yes"/>
      <point x="93" y="62"/>
      <point x="159" y="-11"/>
    </contour>
    <contour>
      <point x="505" y="533" type="line"/>
      <point x="497" y="535"/>
      <point x="488" y="536"/>
      <point x="476" y="536" type="curve" smooth="yes"/>
      <point x="446" y="536"/>
      <point x="422" y="530"/>
      <point x="422" y="501" type="curve" smooth="yes"/>
      <point x="422" y="103" type="line" smooth="yes"/>
      <point x="422" y="50"/>
      <point x="474" y="21"/>
      <point x="525" y="38" type="curve"/>
      <point x="509" y="61"/>
      <point x="505" y="78"/>
      <point x="505" y="117" type="curve"/>
    </contour>
    <contour>
      <point x="565" y="76" type="line"/>
      <point x="561" y="76" type="line"/>
      <point x="554" y="72"/>
      <point x="546" y="70"/>
      <point x="536" y="70" type="curve" smooth="yes"/>
      <point x="512" y="70"/>
      <point x="488" y="83"/>
      <point x="480" y="131" type="curve"/>
      <point x="435" y="132"/>
      <point x="422" y="125"/>
      <point x="422" y="103" type="curve" smooth="yes"/>
      <point x="422" y="40"/>
      <point x="459" y="-10"/>
      <point x="516" y="-10" type="curve" smooth="yes"/>
      <point x="519" y="-10" type="line" smooth="yes"/>
      <point x="549" y="-10"/>
      <point x="565" y="30"/>
      <point x="565" y="67" type="curve"/>
    </contour>
    <contour>
      <point x="119" y="157" type="line"/>
      <point x="95" y="45"/>
      <point x="86" y="-33"/>
      <point x="86" y="-130" type="curve" smooth="yes"/>
      <point x="86" y="-182"/>
      <point x="114" y="-204"/>
      <point x="144" y="-204" type="curve" smooth="yes"/>
      <point x="157" y="-204"/>
      <point x="164" y="-201"/>
      <point x="173" y="-198" type="curve"/>
      <point x="173" y="-178"/>
      <point x="173" y="-169"/>
      <point x="173" y="-140" type="curve" smooth="yes"/>
      <point x="173" y="-65"/>
      <point x="145" y="157"/>
      <point x="125" y="157" type="curve" smooth="yes"/>
    </contour>
  </outline>
</glyph>
<glyph name="paragraph" format="1">
  <advance width="600"/>
  <unicode hex="00B6"/>
  <outline>
    <contour>
      <point x="351" y="-155" type="curve"/>
      <point x="351" y="559" type="line"/>
      <point x="351" y="636"/>
      <point x="328" y="655"/>
      <point x="297" y="655" type="curve" smooth="yes"/>
      <point x="290" y="655"/>
      <point x="285" y="654"/>
      <point x="279" y="651" type="curve"/>
      <point x="279" y="-92" type="line" smooth="yes"/>
      <point x="279" y="-135"/>
      <point x="294" y="-160"/>
      <point x="329" y="-160" type="curve" smooth="yes"/>
      <point x="338" y="-160"/>
      <point x="345" y="-158"/>
    </contour>
    <contour>
      <point x="524" y="-156" type="curve"/>
      <point x="517" y="-120"/>
      <point x="515" y="-85"/>
      <point x="515" y="-47" type="curve" smooth="yes"/>
      <point x="515" y="614" type="line" smooth="yes"/>
      <point x="515" y="640"/>
      <point x="492" y="651"/>
      <point x="454" y="651" type="curve" smooth="yes"/>
      <point x="450" y="651"/>
      <point x="445" y="651"/>
      <point x="442" y="651" type="curve"/>
      <point x="442" y="-91" type="line" smooth="yes"/>
      <point x="442" y="-133"/>
      <point x="458" y="-160"/>
      <point x="494" y="-160" type="curve" smooth="yes"/>
      <point x="506" y="-160"/>
      <point x="514" y="-159"/>
    </contour>
    <contour>
      <point x="361" y="710" type="line" smooth="yes"/>
      <point x="183" y="710"/>
      <point x="54" y="598"/>
      <point x="54" y="409" type="curve" smooth="yes"/>
      <point x="54" y="396" type="line" smooth="yes"/>
      <point x="54" y="265"/>
      <point x="130" y="183"/>
      <point x="267" y="183" type="curve" smooth="yes"/>
      <point x="279" y="183" type="line" smooth="yes"/>
      <point x="306" y="183"/>
      <point x="341" y="205"/>
      <point x="342" y="250" type="curve"/>
      <point x="327" y="250" type="line" smooth="yes"/>
      <point x="214" y="250"/>
      <point x="163" y="310"/>
      <point x="163" y="398" type="curve" smooth="yes"/>
      <point x="163" y="411" type="line" smooth="yes"/>
      <point x="163" y="541"/>
      <point x="231" y="633"/>
      <point x="358" y="633" type="curve" smooth="yes"/>
      <point x="445" y="633"/>
      <point x="498" y="622"/>
      <point x="554" y="581" type="curve"/>
      <point x="558" y="581" type="line"/>
      <point x="561" y="594"/>
      <point x="563" y="605"/>
      <point x="563" y="617" type="curve" smooth="yes"/>
      <point x="563" y="636"/>
      <point x="559" y="649"/>
      <point x="548" y="661" type="curve" smooth="yes"/>
      <point x="519" y="690"/>
      <point x="462" y="710"/>
      <point x="366" y="710" type="curve" smooth="yes"/>
    </contour>
  </outline>
</glyph>
